<svg width="266" height="188" viewBox="0 0 266 188" fill="none" xmlns="http://www.w3.org/2000/svg">
<g clip-path="url(#clip0_144_4695)">
<path d="M135.852 187.602C143.852 187.602 150.338 181.097 150.338 173.074C150.338 165.05 143.852 158.545 135.852 158.545C127.851 158.545 121.366 165.05 121.366 173.074C121.366 181.097 127.851 187.602 135.852 187.602Z" fill="#A70057"/>
<path d="M222.392 186.785C230.496 184.344 239.112 181.799 245.539 175.996C251.282 170.811 255.16 162.893 252.781 155.117C250.406 147.356 243.294 142.181 235.951 139.608C231.786 138.148 227.429 137.338 223.074 136.702C218.339 136.01 213.583 135.444 208.83 134.899C189.583 132.691 170.264 131.342 150.872 130.853C141.304 130.611 131.737 130.617 122.167 130.756C113.62 130.88 104.619 130.877 96.6907 127.234C90.5252 124.401 84.9293 119.247 83.2114 112.475C81.2283 104.656 84.8861 96.6946 90.1331 91.0324C92.8989 88.0478 96.1314 85.5358 99.466 83.226C103.084 80.7202 106.827 78.3918 110.652 76.2184C118.185 71.9398 126.061 68.2985 134.197 65.3323C138.211 63.8686 142.284 62.6058 146.393 61.4408C149.862 60.4571 153.343 59.472 156.696 58.1317C163.178 55.5408 169.343 51.152 170.991 43.957C172.553 37.1378 169.919 29.735 165.302 24.6692C159.96 18.8084 151.906 16.2392 144.184 15.8235C135.515 15.3568 127.046 17.5327 118.897 20.2943C110.207 23.2397 101.704 26.6264 92.8294 29.0122C84.0293 31.3756 75.0591 33.0479 66 34.0138C61.5653 34.4874 56.9966 35.0221 52.5355 34.6596C48.7967 34.3557 45.077 33.2529 42.3216 30.5918C39.9589 28.31 38.5515 25.1741 39.0353 21.8647C39.1232 21.2637 40.0337 21.5192 39.9463 22.1166C39.3573 26.1451 42.0877 29.8571 45.4523 31.7586C49.3409 33.9563 54.0728 33.9592 58.4022 33.7079C67.7894 33.1393 77.1131 31.7876 86.2766 29.6667C95.2808 27.6042 103.963 24.6557 112.636 21.506C120.873 18.5146 129.294 15.595 138.094 14.9471C145.729 14.3849 153.761 15.5005 160.413 19.5023C166.259 23.0194 170.558 28.8847 171.928 35.6153C173.266 42.1923 171.412 48.8121 166.448 53.4018C161.308 58.1538 154.261 60.1855 147.693 62.0566C139.363 64.4299 131.211 67.204 123.321 70.806C115.323 74.4468 107.653 78.7715 100.395 83.7322C93.3897 88.5335 86.4759 94.5748 84.2602 103.14C83.2281 107.13 83.4187 111.362 85.1456 115.13C86.6812 118.481 89.2101 121.3 92.1562 123.474C99.1853 128.661 108.044 129.727 116.535 129.832C126.071 129.951 135.607 129.629 145.146 129.786C164.587 130.106 183.988 131.292 203.348 133.346C208.2 133.861 213.045 134.43 217.884 135.054C222.237 135.615 226.604 136.172 230.883 137.168C238.492 138.939 245.896 142.345 250.626 148.815C252.725 151.62 254.025 154.943 254.388 158.431C254.719 162.07 253.831 165.717 252.19 168.954C248.558 176.121 241.756 180.679 234.532 183.673C230.662 185.277 226.649 186.493 222.643 187.699C222.06 187.875 221.81 186.961 222.392 186.785L222.392 186.785Z" fill="#F2F2F2"/>
<path d="M39.6453 29.5299C43.8195 29.5299 47.2033 26.1363 47.2033 21.95C47.2033 17.7638 43.8195 14.3701 39.6453 14.3701C35.4712 14.3701 32.0874 17.7638 32.0874 21.95C32.0874 26.1363 35.4712 29.5299 39.6453 29.5299Z" fill="#F2F2F2"/>
<path d="M92.0784 43.9C96.2526 43.9 99.6364 40.5064 99.6364 36.3202C99.6364 32.1339 96.2526 28.7403 92.0784 28.7403C87.9043 28.7403 84.5205 32.1339 84.5205 36.3202C84.5205 40.5064 87.9043 43.9 92.0784 43.9Z" fill="#F2F2F2"/>
<path d="M136.481 15.1597C140.655 15.1597 144.039 11.7661 144.039 7.57986C144.039 3.39362 140.655 0 136.481 0C132.307 0 128.923 3.39362 128.923 7.57986C128.923 11.7661 132.307 15.1597 136.481 15.1597Z" fill="#F2F2F2"/>
<path d="M164.194 47.3741C168.368 47.3741 171.752 43.9805 171.752 39.7943C171.752 35.608 168.368 32.2144 164.194 32.2144C160.02 32.2144 156.636 35.608 156.636 39.7943C156.636 43.9805 160.02 47.3741 164.194 47.3741Z" fill="#F2F2F2"/>
<path d="M126.719 84.6418C130.893 84.6418 134.277 81.2482 134.277 77.0619C134.277 72.8757 130.893 69.4821 126.719 69.4821C122.545 69.4821 119.161 72.8757 119.161 77.0619C119.161 81.2482 122.545 84.6418 126.719 84.6418Z" fill="#F2F2F2"/>
<path d="M79.1673 102.644C83.3414 102.644 86.7252 99.2503 86.7252 95.0641C86.7252 90.8779 83.3414 87.4842 79.1673 87.4842C74.9932 87.4842 71.6094 90.8779 71.6094 95.0641C71.6094 99.2503 74.9932 102.644 79.1673 102.644Z" fill="#F2F2F2"/>
<path d="M129.554 130.753C133.728 130.753 137.111 127.359 137.111 123.173C137.111 118.987 133.728 115.593 129.554 115.593C125.379 115.593 121.996 118.987 121.996 123.173C121.996 127.359 125.379 130.753 129.554 130.753Z" fill="#F2F2F2"/>
<path d="M183.719 146.544C187.893 146.544 191.277 143.15 191.277 138.964C191.277 134.778 187.893 131.384 183.719 131.384C179.544 131.384 176.161 134.778 176.161 138.964C176.161 143.15 179.544 146.544 183.719 146.544Z" fill="#F2F2F2"/>
<path d="M247.016 143.07C251.19 143.07 254.574 139.676 254.574 135.49C254.574 131.304 251.19 127.91 247.016 127.91C242.842 127.91 239.458 131.304 239.458 135.49C239.458 139.676 242.842 143.07 247.016 143.07Z" fill="#F2F2F2"/>
<path d="M134.3 21.4774C111.66 21.6377 93.1232 40.089 92.8015 62.7928C92.7986 63.0024 92.7972 64.4763 92.7974 66.404C92.7975 69.2305 93.9171 71.9412 95.9099 73.9399C97.9027 75.9386 100.605 77.0616 103.424 77.0619H103.424C104.821 77.0616 106.204 76.7852 107.495 76.2485C108.785 75.7119 109.958 74.9254 110.945 73.9341C111.932 72.9428 112.715 71.7661 113.249 70.4713C113.783 69.1764 114.057 67.7888 114.056 66.3877C114.055 65.0763 114.054 64.1687 114.054 64.113C114.053 60.6042 114.963 57.1556 116.695 54.1065C118.426 51.0573 120.919 48.5127 123.928 46.723C126.937 44.9332 130.359 43.9599 133.858 43.8988C137.356 43.8377 140.809 44.6909 143.879 46.3745C146.949 48.0581 149.528 50.5141 151.365 53.5009C153.201 56.4877 154.23 59.9024 154.351 63.4092C154.472 66.9159 153.681 70.3938 152.055 73.5009C150.43 76.6079 148.025 79.237 145.079 81.1296L145.083 81.1341C145.083 81.1341 129.958 90.8993 125.347 104.295L125.351 104.296C124.54 107.041 124.129 109.888 124.131 112.75C124.131 113.927 124.2 124.222 124.334 132.577C124.38 135.46 125.555 138.209 127.605 140.231C129.654 142.254 132.414 143.386 135.289 143.386H135.289C136.734 143.386 138.164 143.099 139.498 142.543C140.832 141.986 142.043 141.17 143.061 140.143C144.08 139.115 144.885 137.896 145.432 136.555C145.979 135.213 146.255 133.777 146.247 132.328C146.2 124.676 146.175 115.766 146.175 115.119C146.175 106.894 154.087 98.6978 160.587 93.3531C168.071 87.1986 173.457 78.8115 175.62 69.3505C176.099 67.4027 176.362 65.408 176.407 63.4024C176.407 57.8711 175.316 52.3944 173.196 47.288C171.076 42.1816 167.97 37.5463 164.056 33.6492C160.142 29.7522 155.497 26.6704 150.391 24.5813C145.284 22.4923 139.815 21.4374 134.3 21.4774Z" fill="#A70057"/>
<path d="M265.625 188H0.374855C0.275597 188 0.180505 187.96 0.11042 187.89C0.0403353 187.819 0.000976562 187.724 0.000976562 187.624C0.000976562 187.524 0.0403353 187.429 0.11042 187.358C0.180505 187.288 0.275597 187.248 0.374855 187.248H265.625C265.724 187.248 265.82 187.288 265.89 187.358C265.96 187.429 266 187.524 266 187.624C266 187.724 265.96 187.819 265.89 187.89C265.82 187.96 265.724 188 265.625 188Z" fill="#3F3D56"/>
<path d="M197.907 86.2196C203.125 86.2196 207.355 81.9776 207.355 76.7448C207.355 71.512 203.125 67.27 197.907 67.27C192.69 67.27 188.46 71.512 188.46 76.7448C188.46 81.9776 192.69 86.2196 197.907 86.2196Z" fill="#2F2E41"/>
<path d="M180.449 183.852H176.589L174.752 168.918H180.45L180.449 183.852Z" fill="#A0616A"/>
<path d="M173.831 182.746H181.277V187.448H169.143C169.143 186.83 169.264 186.219 169.5 185.648C169.736 185.078 170.081 184.56 170.516 184.123C170.951 183.686 171.468 183.34 172.037 183.104C172.606 182.868 173.215 182.746 173.831 182.746Z" fill="#2F2E41"/>
<path d="M210.366 183.852H206.506L204.669 168.918H210.367L210.366 183.852Z" fill="#A0616A"/>
<path d="M203.748 182.746H211.193V187.448H199.06C199.06 186.83 199.181 186.219 199.416 185.648C199.652 185.078 199.997 184.56 200.433 184.123C200.868 183.686 201.385 183.34 201.954 183.104C202.522 182.868 203.132 182.746 203.748 182.746Z" fill="#2F2E41"/>
<path d="M196.471 86.275C200.743 86.275 204.206 82.802 204.206 78.5179C204.206 74.2338 200.743 70.7609 196.471 70.7609C192.2 70.7609 188.737 74.2338 188.737 78.5179C188.737 82.802 192.2 86.275 196.471 86.275Z" fill="#A0616A"/>
<path d="M201.081 111.299L204.542 103.325C205.383 101.454 205.624 99.3678 205.232 97.3539C204.84 95.34 203.834 93.4977 202.354 92.0814C202.05 91.7799 201.727 91.4983 201.387 91.2381C199.679 89.8983 197.575 89.1681 195.407 89.1631C193.949 89.1688 192.51 89.4898 191.187 90.1043C191.073 90.1548 190.963 90.2085 190.85 90.2622C190.633 90.3664 190.419 90.4801 190.211 90.597C188.855 91.3777 187.701 92.467 186.842 93.777C185.984 95.0871 185.444 96.5812 185.266 98.1389L183.739 110.974C183.355 111.982 169.65 148.365 174.443 176.142C174.494 176.439 174.638 176.711 174.855 176.92C175.071 177.128 175.348 177.262 175.646 177.301L180.505 177.964C180.86 178.013 181.22 177.925 181.513 177.718C181.805 177.511 182.009 177.201 182.083 176.849L190.236 137.873C190.287 137.631 190.417 137.413 190.606 137.254C190.795 137.095 191.032 137.004 191.278 136.995C191.525 136.987 191.767 137.062 191.966 137.208C192.166 137.354 192.31 137.562 192.377 137.801L203.897 178.789C203.979 179.086 204.156 179.349 204.401 179.536C204.646 179.723 204.946 179.825 205.254 179.825C205.346 179.824 205.438 179.816 205.528 179.799L211.464 178.653C211.809 178.588 212.118 178.397 212.329 178.115C212.541 177.834 212.64 177.484 212.607 177.134C211.735 167.378 207.099 118.51 201.081 111.299Z" fill="#2F2E41"/>
<path d="M166.413 84.9734C166.359 85.4345 166.407 85.9019 166.553 86.3425C166.699 86.7832 166.939 87.1863 167.257 87.5237C167.576 87.861 167.963 88.1243 168.394 88.295C168.825 88.4658 169.287 88.5397 169.749 88.5117L174.073 98.9316L177.343 94.0697L172.736 84.9201C172.638 84.1447 172.259 83.4324 171.672 82.9181C171.085 82.4039 170.33 82.1235 169.551 82.1301C168.772 82.1366 168.022 82.4297 167.443 82.9537C166.865 83.4778 166.498 84.1964 166.413 84.9734L166.413 84.9734Z" fill="#A0616A"/>
<path d="M196.043 121.791C196.502 121.736 196.944 121.581 197.338 121.336C197.731 121.091 198.066 120.762 198.319 120.374C198.572 119.985 198.737 119.545 198.802 119.085C198.867 118.626 198.831 118.157 198.696 117.713L207.793 111.069L202.316 109.012L194.518 115.637C193.789 115.913 193.186 116.449 192.824 117.141C192.462 117.833 192.366 118.635 192.554 119.393C192.742 120.152 193.201 120.815 193.844 121.257C194.487 121.699 195.269 121.889 196.043 121.791Z" fill="#A0616A"/>
<path d="M181.214 105.878C180.865 105.878 180.517 105.844 180.175 105.776C179.348 105.618 178.572 105.258 177.916 104.728C177.26 104.199 176.743 103.515 176.413 102.739L170.356 95.3314C170.228 95.1748 170.134 94.9926 170.082 94.7969C170.03 94.6013 170.02 94.3967 170.053 94.1969C170.087 93.9971 170.162 93.8067 170.274 93.6385C170.387 93.4703 170.534 93.3281 170.705 93.2215L175.015 90.5462C175.174 90.4474 175.351 90.3812 175.536 90.3514C175.72 90.3216 175.909 90.3288 176.091 90.3725C176.273 90.4163 176.445 90.4957 176.596 90.6063C176.747 90.7169 176.875 90.8565 176.972 91.0169L181.241 98.0706L189.417 92.0109C190.068 91.6686 190.82 91.5726 191.535 91.7405C192.251 91.9083 192.883 92.3288 193.315 92.9251C193.747 93.5214 193.951 94.2537 193.889 94.9882C193.827 95.7227 193.504 96.4104 192.978 96.9257L184.818 104.391C183.86 105.344 182.564 105.879 181.214 105.878Z" fill="#2F2E41"/>
<path d="M203.305 117.018C203.294 117.018 203.283 117.018 203.272 117.018C203.073 117.013 202.878 116.967 202.698 116.881C202.518 116.796 202.359 116.673 202.229 116.522L198.398 112.039C198.267 111.887 198.171 111.708 198.114 111.515C198.058 111.322 198.043 111.119 198.07 110.92C198.097 110.721 198.167 110.53 198.273 110.36C198.38 110.189 198.521 110.044 198.688 109.932L205.862 105.135L199.363 97.2989C198.985 96.6667 198.846 95.9193 198.972 95.1931C199.098 94.4669 199.48 93.8104 200.049 93.3436C200.618 92.8767 201.335 92.6307 202.07 92.6505C202.805 92.6703 203.508 92.9545 204.051 93.4513L211.95 101.193C212.572 101.763 213.046 102.475 213.333 103.269C213.62 104.063 213.71 104.915 213.596 105.752C213.482 106.588 213.168 107.385 212.679 108.073C212.191 108.761 211.544 109.32 210.793 109.702L204.336 116.572C204.204 116.713 204.044 116.825 203.867 116.902C203.689 116.979 203.498 117.018 203.305 117.018Z" fill="#2F2E41"/>
<path d="M194.505 100.501C194.444 100.501 194.382 100.497 194.321 100.489C194.054 100.457 193.802 100.348 193.595 100.176C193.388 100.004 193.235 99.7766 193.153 99.5199L190.274 90.6675C190.201 90.4437 190.213 90.2013 190.305 89.985C190.397 89.7688 190.564 89.5933 190.776 89.4912L190.869 89.4469C190.954 89.4065 191.038 89.3666 191.123 89.3283C192.466 88.7039 193.927 88.3782 195.407 88.3736C197.328 88.3771 199.206 88.9432 200.811 90.0022C201.027 90.1458 201.177 90.3684 201.23 90.6221C201.283 90.8758 201.235 91.1403 201.095 91.3585L195.694 99.8441C195.568 100.046 195.392 100.212 195.184 100.326C194.976 100.441 194.743 100.501 194.505 100.501Z" fill="#E6E6E6"/>
<path d="M205.356 72.5149C207.063 72.5149 208.447 71.1268 208.447 69.4145C208.447 67.7022 207.063 66.3141 205.356 66.3141C203.648 66.3141 202.264 67.7022 202.264 69.4145C202.264 71.1268 203.648 72.5149 205.356 72.5149Z" fill="#2F2E41"/>
<path d="M194.758 66.0067C192.587 66.0067 190.504 66.8718 188.968 68.4118C187.433 69.9517 186.57 72.0403 186.57 74.2182V77.6923H190.831L192.869 74.2182L193.48 77.6923H206.41L202.946 74.2182C202.946 72.0403 202.083 69.9517 200.548 68.4118C199.012 66.8718 196.93 66.0067 194.758 66.0067Z" fill="#2F2E41"/>
<path d="M206.944 67.2909C207.286 66.2188 207.994 65.3019 208.943 64.7014C209.892 64.1009 211.022 63.8553 212.134 64.0076C214.104 64.338 215.662 65.9262 216.59 67.7C217.518 69.4739 217.947 71.4591 218.571 73.3621C219.195 75.2651 220.08 77.1785 221.655 78.4103C223.23 79.6422 225.647 79.9763 227.194 78.7091C227.017 80.0298 226.431 81.2613 225.518 82.2295C224.605 83.1977 223.412 83.8535 222.107 84.1043C220.802 84.3551 219.452 84.188 218.247 83.6269C217.042 83.0657 216.043 82.1387 215.392 80.9772C214.576 79.5206 214.365 77.8136 214.123 76.1605C213.881 74.5074 213.566 72.797 212.592 71.4419C211.617 70.0868 209.793 69.2017 208.245 69.819L206.944 67.2909Z" fill="#2F2E41"/>
<path d="M106.424 72.0208C103.606 72.0205 100.903 70.8975 98.9102 68.8988C96.9174 66.9001 95.7978 64.1894 95.7976 61.3629C95.7974 59.4351 95.7988 57.9613 95.8017 57.7516C95.8913 51.1488 97.5494 44.6625 100.638 38.8308C95.5632 45.7989 92.7725 54.1766 92.6526 62.8049C92.6497 63.0145 92.6483 64.4884 92.6484 66.4161C92.6486 69.2426 93.7682 71.9533 95.761 73.952C97.7538 75.9507 100.457 77.0737 103.275 77.074C105.591 77.0732 107.843 76.3142 109.69 74.9124C111.536 73.5107 112.876 71.5428 113.506 69.3077C111.56 71.0576 109.038 72.024 106.424 72.0208Z" fill="#3F3D56"/>
<path d="M135.02 43.9345C138.278 44.0906 141.45 45.0374 144.263 46.6936C147.076 48.3498 149.446 50.6659 151.17 53.4431C152.894 56.2204 153.92 59.3757 154.16 62.6381C154.4 65.9006 153.847 69.1727 152.548 72.1736C154.427 69.9611 155.807 67.3685 156.596 64.5723C157.385 61.7762 157.563 58.8424 157.119 55.9708C156.674 53.0993 155.618 50.3577 154.021 47.9328C152.425 45.5078 150.326 43.4567 147.867 41.9192C145.408 40.3816 142.648 39.3938 139.774 39.0232C136.9 38.6525 133.981 38.9077 131.214 39.7712C128.448 40.6348 125.899 42.0865 123.743 44.0273C121.586 45.9682 119.873 48.3525 118.718 51.0178C120.713 48.6641 123.221 46.8013 126.047 45.5732C128.874 44.3451 131.944 43.7845 135.02 43.9345Z" fill="#3F3D56"/>
<path d="M138.29 138.345C135.415 138.345 132.655 137.212 130.605 135.19C128.555 133.168 127.381 130.419 127.334 127.536C127.201 119.181 127.132 108.886 127.132 107.709C127.13 104.847 127.541 102 128.351 99.2552L128.348 99.2543C128.826 97.8768 129.405 96.5362 130.078 95.243C128.011 98.0047 126.367 101.06 125.198 104.308L125.202 104.308C124.391 107.053 123.981 109.9 123.982 112.763C123.982 113.939 124.051 124.234 124.185 132.589C124.231 135.472 125.406 138.222 127.456 140.244C129.506 142.266 132.266 143.398 135.141 143.398C137.511 143.397 139.818 142.626 141.714 141.2C143.611 139.773 144.995 137.769 145.659 135.487C143.645 137.329 141.016 138.348 138.29 138.345Z" fill="#3F3D56"/>
<path d="M39.8496 183.996L43.7101 183.996L45.547 169.061L39.8486 169.062L39.8496 183.996Z" fill="#FFB8B8"/>
<path d="M51.1562 187.591L39.0224 187.592L39.0222 182.89L46.468 182.89C47.7113 182.89 48.9038 183.385 49.783 184.267C50.6622 185.148 51.1562 186.344 51.1562 187.591L51.1562 187.591Z" fill="#2F2E41"/>
<path d="M25.9931 183.996L29.8537 183.996L31.6906 169.061L25.9922 169.062L25.9931 183.996Z" fill="#FFB8B8"/>
<path d="M37.2998 187.591L25.166 187.592L25.1657 182.89L32.6115 182.89C33.8549 182.89 35.0473 183.385 35.9265 184.267C36.8058 185.148 37.2997 186.344 37.2998 187.591L37.2998 187.591Z" fill="#2F2E41"/>
<path d="M29.3672 179.403L25.5961 179.204C25.4017 179.194 25.2112 179.145 25.0357 179.061C24.8602 178.976 24.7032 178.857 24.5738 178.711C24.4444 178.565 24.3451 178.395 24.2817 178.21C24.2184 178.026 24.1922 177.83 24.2047 177.636L28.712 127.588L49.4682 133.205L51.468 132.658L45.2144 176.963C45.1611 177.297 44.9961 177.602 44.7465 177.828C44.497 178.055 44.1779 178.189 43.8419 178.209L39.7767 178.399C39.5735 178.411 39.3701 178.379 39.1794 178.308C38.9887 178.236 38.8149 178.126 38.6689 177.984C38.523 177.841 38.4081 177.67 38.3314 177.481C38.2548 177.292 38.2181 177.089 38.2237 176.885L38.9603 150.293C38.9638 150.17 38.9212 150.05 38.8409 149.957C38.7607 149.864 38.6486 149.805 38.5267 149.79C38.4049 149.776 38.2822 149.808 38.1827 149.88C38.0832 149.952 38.0143 150.059 37.9894 150.179L30.8859 178.229C30.8188 178.562 30.6388 178.861 30.3764 179.075C30.114 179.29 29.7855 179.407 29.447 179.405C29.4206 179.405 29.394 179.405 29.3672 179.403Z" fill="#2F2E41"/>
<path d="M40.5427 86.6378C44.8144 86.6378 48.2773 83.1648 48.2773 78.8807C48.2773 74.5966 44.8144 71.1237 40.5427 71.1237C36.271 71.1237 32.8081 74.5966 32.8081 78.8807C32.8081 83.1648 36.271 86.6378 40.5427 86.6378Z" fill="#FFB8B8"/>
<path d="M27.6649 101.67L28.5154 120.073L28.8228 126.768C28.8351 127.06 28.9337 127.341 29.1062 127.576C29.2787 127.81 29.5171 127.988 29.7909 128.087L49.7363 135.333C49.8975 135.393 50.0682 135.423 50.2401 135.421C50.4365 135.422 50.6311 135.384 50.8123 135.307C50.9935 135.231 51.1576 135.119 51.2946 134.978C51.4317 134.837 51.539 134.67 51.6102 134.486C51.6813 134.302 51.7148 134.106 51.7087 133.909L50.891 100.821C50.8373 98.1062 49.8409 95.4953 48.0735 93.4384C46.3062 91.3815 43.8786 90.0074 41.2094 89.5531C41.0165 89.5236 40.8202 89.494 40.6239 89.4678C38.9688 89.2617 37.2887 89.4219 35.7019 89.9371C34.1151 90.4522 32.6602 91.3099 31.4394 92.4496C30.1754 93.6156 29.1821 95.0458 28.5299 96.6391C27.8777 98.2325 27.5824 99.9501 27.6649 101.67L27.6649 101.67Z" fill="#CCCCCC"/>
<path d="M59.2645 131.661C58.7927 131.514 58.3617 131.259 58.0059 130.915C57.65 130.572 57.3792 130.149 57.2149 129.682C57.0507 129.215 56.9976 128.716 57.0599 128.224C57.1222 127.733 57.2982 127.263 57.5738 126.852L50.8101 117.832L56.6467 117.47L62.1749 126.091C62.7667 126.55 63.1785 127.203 63.3381 127.936C63.4977 128.669 63.3949 129.435 63.0476 130.099C62.7004 130.764 62.131 131.284 61.4392 131.57C60.7475 131.856 59.9775 131.888 59.2645 131.661H59.2645Z" fill="#FFB8B8"/>
<path d="M54.5087 125.22C54.3295 125.147 54.1666 125.039 54.0292 124.902C53.8918 124.766 53.7828 124.603 53.7085 124.424L43.5185 100.076C43.3185 99.599 43.2142 99.0874 43.2115 98.5702C43.2088 98.0531 43.3077 97.5404 43.5026 97.0616C43.6975 96.5828 43.9846 96.1472 44.3475 95.7797C44.7103 95.4123 45.1419 95.1201 45.6173 94.9199C46.0928 94.7198 46.603 94.6156 47.1187 94.6132C47.6344 94.6109 48.1454 94.7105 48.6227 94.9064C49.1 95.1023 49.5341 95.3905 49.9002 95.7547C50.2664 96.1189 50.5574 96.5519 50.7566 97.0289L60.9466 121.378C61.0972 121.739 61.0989 122.145 60.9513 122.507C60.8036 122.869 60.5188 123.158 60.1592 123.31L55.6353 125.214C55.4572 125.29 55.2659 125.329 55.0725 125.33C54.8792 125.331 54.6875 125.294 54.5087 125.22L54.5087 125.22Z" fill="#CCCCCC"/>
<path d="M38.056 124.361L47.8433 105.566C48.0321 105.205 48.3561 104.933 48.7442 104.811C49.1324 104.689 49.553 104.726 49.9139 104.915L64.1201 112.355C64.4805 112.545 64.7513 112.87 64.8732 113.259C64.995 113.648 64.9578 114.07 64.7699 114.432L54.9826 133.227C54.7939 133.588 54.4699 133.86 54.0817 133.982C53.6936 134.104 53.2729 134.067 52.9121 133.878L38.7059 126.437C38.3455 126.248 38.0746 125.923 37.9528 125.534C37.831 125.145 37.8681 124.723 38.056 124.361Z" fill="#3F3D56"/>
<path d="M44.6195 115.774C44.4455 115.31 44.1658 114.894 43.8029 114.558C43.4399 114.222 43.0037 113.976 42.5289 113.839C42.0542 113.702 41.5542 113.678 41.0687 113.77C40.5833 113.861 40.1259 114.065 39.7329 114.365L30.3553 108.126L30.3394 113.991L39.247 119.017C39.7387 119.582 40.4132 119.956 41.1522 120.072C41.8912 120.189 42.6475 120.041 43.2884 119.654C43.9294 119.267 44.4141 118.666 44.6574 117.957C44.9008 117.247 44.8874 116.475 44.6195 115.774Z" fill="#FFB8B8"/>
<path d="M32.763 117.093L25.099 111.004C24.2699 110.725 23.5208 110.248 22.9159 109.615C22.311 108.982 21.8684 108.21 21.6261 107.367C21.3838 106.525 21.3491 105.636 21.5249 104.776C21.7006 103.917 22.0817 103.113 22.6353 102.434L29.594 93.2882C30.0776 92.6956 30.7577 92.2973 31.51 92.1661C32.2622 92.035 33.0364 92.1797 33.6911 92.5739C34.3457 92.968 34.8371 93.5853 35.0753 94.3129C35.3135 95.0404 35.2826 95.8297 34.9884 96.5363L29.4825 105.569L37.5739 109.418C37.762 109.507 37.9291 109.636 38.0641 109.795C38.199 109.954 38.2988 110.14 38.3568 110.341C38.4148 110.541 38.4297 110.752 38.4004 110.959C38.3712 111.165 38.2986 111.364 38.1874 111.54L34.9212 116.724C34.8108 116.899 34.6649 117.049 34.4931 117.164C34.3213 117.279 34.1274 117.356 33.9239 117.391C33.9158 117.392 33.9077 117.394 33.8996 117.395C33.6996 117.425 33.4956 117.414 33.3001 117.362C33.1046 117.31 32.9218 117.219 32.763 117.093Z" fill="#CCCCCC"/>
<path d="M34.6982 84.0749C34.665 83.9776 34.6544 83.8739 34.6674 83.7718C34.6803 83.6697 34.7164 83.572 34.7728 83.486C34.8292 83.4001 34.9045 83.3283 34.9929 83.276C35.0813 83.2238 35.1804 83.1925 35.2827 83.1846C35.4922 83.196 35.6972 83.2499 35.8854 83.343C36.0735 83.4361 36.2409 83.5665 36.3774 83.7262C36.6573 84.0499 36.9832 84.3306 37.3446 84.5591C37.7187 84.7483 38.2262 84.7213 38.4395 84.3607C38.6398 84.0221 38.5025 83.5686 38.3813 83.1753C38.0727 82.1745 37.9001 81.1366 37.868 80.0896C37.8331 78.921 37.9975 77.7013 38.6426 76.7898C39.4752 75.6134 40.964 75.1668 42.3729 75.1992C43.7818 75.2316 45.1679 75.6678 46.5635 75.9435C47.0453 76.0387 47.6116 76.0874 47.9338 75.7129C48.2765 75.3147 48.1506 74.6702 48.0049 74.1326C47.6267 72.7374 47.2255 71.295 46.3468 70.1682C45.3967 68.9974 44.0396 68.2311 42.5487 68.0237C41.1173 67.8459 39.6644 68.0113 38.3092 68.5064C36.1013 69.2043 34.1585 70.5617 32.7406 72.397C31.279 74.3487 30.6474 76.8014 30.984 79.2189C31.3128 81.3244 32.4253 83.2266 34.0972 84.542L34.6982 84.0749Z" fill="#2F2E41"/>
<path d="M132.66 184.058C130.602 183.159 128.781 181.793 127.34 180.067C125.898 178.341 124.877 176.303 124.356 174.114C123.834 171.924 123.828 169.643 124.336 167.451C124.844 165.258 125.853 163.214 127.284 161.48C125.625 162.695 124.243 164.249 123.229 166.041C122.215 167.833 121.592 169.82 121.403 171.871C121.213 173.923 121.461 175.991 122.129 177.939C122.797 179.887 123.871 181.67 125.279 183.17C126.687 184.67 128.397 185.853 130.296 186.639C132.194 187.426 134.238 187.798 136.291 187.732C138.344 187.666 140.36 187.163 142.204 186.256C144.048 185.349 145.679 184.059 146.988 182.471C144.946 183.968 142.549 184.902 140.035 185.18C137.521 185.459 134.978 185.072 132.66 184.058Z" fill="#3F3D56"/>
</g>
<defs>
<clipPath id="clip0_144_4695">
<rect width="266" height="188" fill="white"/>
</clipPath>
</defs>
</svg>
