<svg width="185" height="49" viewBox="0 0 185 49" fill="none" xmlns="http://www.w3.org/2000/svg">
<path d="M56.2605 48.0521H56.0283V0H56.2605V48.0521Z" fill="white"/>
<path d="M156.079 38.7667V45.0344H154.222V33.8918H156.311L160.489 40.6238L161.882 42.4809L161.65 40.3916V33.8918H163.507V45.0344H161.186L157.24 38.5346L156.079 36.6775H155.847L156.079 38.7667Z" fill="white"/>
<path d="M174.186 35.7489H167.918V38.5346H173.489V40.3916H167.918V42.9451H174.186V45.0344H166.061V33.8918H174.186V35.7489Z" fill="white"/>
<path d="M184.167 33.8918V35.7489H180.453V45.0344H178.596V35.7489H174.882V33.8918H184.167Z" fill="white"/>
<path d="M80.8669 22.0529C80.6347 20.428 80.1705 17.1781 79.9383 16.4816V3.01777H85.7417V29.4813H79.7062L71.3493 15.5531L69.4922 11.8389L69.2601 12.0711L69.9565 16.4816V29.4813H64.1531V3.01777H69.7243L78.5455 17.4102L80.4026 22.285L80.8669 22.0529Z" fill="white"/>
<path d="M100.366 16.0174C100.366 13.2317 94.7951 13.2317 95.0272 16.0174V17.8745H100.366V16.0174ZM104.545 25.7671C103.152 28.5527 99.902 29.4813 97.5807 29.4813C93.6344 29.4813 89.4559 27.1599 89.4559 22.5172V16.2495C89.4559 11.6068 93.6344 9.51757 97.5807 9.51757C101.527 9.51757 105.473 11.6068 105.473 16.2495V21.5886H95.0272V22.5172C95.0272 25.3028 99.6699 25.5349 101.063 23.4457L104.545 25.7671Z" fill="white"/>
<path d="M110.348 22.7493C112.67 24.8385 116.152 25.5349 116.848 24.1421C117.312 22.9815 116.616 21.8208 114.759 21.5886C105.241 19.9637 106.634 9.51757 115.223 9.51757C117.08 9.51757 119.401 9.98184 121.491 11.6068L118.937 15.0888C117.777 13.9282 114.062 12.9996 113.83 15.321C113.598 16.4816 115.687 17.1781 116.384 17.4102C118.937 18.1066 122.187 19.4994 122.187 22.9815C122.187 27.392 118.705 29.4813 114.991 29.4813C112.205 29.4813 109.652 28.5527 107.795 26.2314L110.348 22.7493Z" fill="white"/>
<path d="M125.669 22.7493C128.223 24.8385 131.472 25.5349 132.169 24.1421C132.865 22.9815 132.169 21.8208 130.312 21.5886C120.794 19.9637 122.187 9.51757 130.544 9.51757C132.401 9.51757 134.955 9.98184 137.044 11.6068L134.258 15.0888C133.097 13.9282 129.383 12.9996 129.151 15.321C129.151 16.4816 131.008 17.1781 131.937 17.4102C134.49 18.1066 137.74 19.4994 137.74 22.9815C137.74 27.392 134.258 29.4813 130.312 29.4813C127.526 29.4813 125.205 28.5527 123.116 26.2314L125.669 22.7493Z" fill="white"/>
<path d="M173.257 22.7493C173.257 25.5349 178.828 25.5349 178.828 22.7493V21.1244H173.257V22.7493ZM169.079 12.9996C170.704 10.214 173.721 9.51757 176.043 9.51757C180.221 9.51757 184.167 11.6068 184.167 16.2495V22.5172C184.167 27.1599 180.221 29.4813 176.043 29.4813C172.096 29.4813 168.15 27.1599 168.15 22.5172V17.1781H178.828V16.2495C178.828 13.696 173.953 13.2317 172.561 15.5531L169.079 12.9996Z" fill="white"/>
<path d="M157.936 9.74971C156.079 9.74971 154.222 10.4461 152.829 12.0711C151.668 10.4461 149.579 9.74971 147.722 9.74971C144.008 9.74971 140.294 11.8389 140.294 16.2495V29.4813H145.633V16.2495C145.633 14.3924 148.186 14.1603 149.579 14.8567C150.043 15.0888 150.276 15.5531 150.276 16.0174V29.4813H155.383H155.615V16.0174C155.615 15.5531 155.847 15.0888 156.311 14.8567C157.704 14.1603 160.257 14.3924 160.257 16.2495V29.4813H165.597V16.2495C165.597 11.8389 161.65 9.74971 157.936 9.74971Z" fill="white"/>
<path d="M18.1902 33.1954L19.3508 30.1777C17.4938 28.7848 16.3331 26.4635 16.3331 23.91C16.3331 19.7315 19.8151 16.2495 23.9936 16.2495C28.4041 16.2495 31.8862 19.7315 31.8862 23.91C31.8862 26.4635 30.7255 28.7848 28.8684 30.1777L30.0291 33.1954C32.8147 31.1062 34.9039 27.8563 34.9039 23.91C34.9039 18.1066 30.0291 13.2317 23.9936 13.2317C18.1902 13.2317 13.3153 18.1066 13.3153 23.91C13.3153 27.8563 15.1724 31.1062 18.1902 33.1954Z" fill="white"/>
<path d="M16.3332 37.606L17.4939 34.8204C14.0118 32.499 11.4583 28.5527 11.4583 23.91C11.4583 16.9459 17.0296 11.3747 23.9937 11.3747C30.9577 11.3747 36.7611 16.9459 36.7611 23.91C36.7611 28.5527 34.2076 32.499 30.7256 34.8204L31.8863 37.606C36.529 34.8204 39.7789 29.9455 39.7789 23.91C39.7789 15.321 32.8148 8.35689 23.9937 8.35689C15.4046 8.35689 8.44055 15.321 8.44055 23.91C8.44055 29.9455 11.6905 34.8204 16.3332 37.606Z" fill="white"/>
<path d="M28.8685 42.713L25.3864 28.7848V28.5527C24.9222 28.7848 24.4579 28.7848 23.9936 28.7848C23.7615 28.7848 23.2972 28.7848 22.8329 28.5527V28.7848L19.3509 42.713C10.994 40.6238 4.95847 32.9633 4.95847 23.91C4.95847 13.4639 13.5475 4.87485 23.9936 4.87485C34.6719 4.87485 43.2609 13.4639 43.2609 23.91C43.2609 32.9633 37.2254 40.6238 28.8685 42.713ZM23.9936 0C10.7619 0 0.0836182 10.6783 0.0836182 23.91C0.0836182 37.3739 10.7619 48.0521 23.9936 48.0521C37.4575 48.0521 48.1357 37.3739 48.1357 23.91C48.1357 10.6783 37.4575 0 23.9936 0Z" fill="white"/>
<path d="M23.9936 20.8922C22.3686 20.8922 20.9758 22.285 20.9758 23.91C20.9758 25.7671 22.3686 26.9278 23.9936 26.9278C25.8507 26.9278 27.0114 25.7671 27.0114 23.91C27.0114 22.285 25.8507 20.8922 23.9936 20.8922Z" fill="white"/>
</svg>
