<svg width="245" height="64" viewBox="0 0 245 64" fill="none" xmlns="http://www.w3.org/2000/svg">
<path d="M74.81 64H74.5013V0H74.81V64Z" fill="white"/>
<path d="M207.539 51.6328V59.9807H205.07V45.1401H207.848L213.404 54.1063L215.256 56.5797L214.948 53.7971V45.1401H217.417V59.9807H214.33L209.083 51.3237L207.539 48.8502H207.231L207.539 51.6328Z" fill="#00A9AC"/>
<path d="M231.616 47.6135H223.282V51.3237H230.69V53.7971H223.282V57.1981H231.616V59.9807H220.812V45.1401H231.616V47.6135Z" fill="#00A9AC"/>
<path d="M244.889 45.1401V47.6135H239.95V59.9807H237.481V47.6135H232.542V45.1401H244.889Z" fill="#00A9AC"/>
<path d="M107.529 29.372C107.221 27.2077 106.603 22.8792 106.295 21.9517V4.01932H114.011V39.2657H105.986L94.8738 20.715L92.4044 15.7681L92.0957 16.0773L93.0217 21.9517V39.2657H85.3049V4.01932H92.713L104.443 23.1884L106.912 29.6812L107.529 29.372Z" fill="#A70057"/>
<path d="M133.458 21.3333C133.458 17.6232 126.05 17.6232 126.358 21.3333V23.8068H133.458V21.3333ZM139.014 34.3188C137.162 38.029 132.841 39.2657 129.754 39.2657C124.506 39.2657 118.95 36.1739 118.95 29.9903V21.6425C118.95 15.4589 124.506 12.6763 129.754 12.6763C135.001 12.6763 140.249 15.4589 140.249 21.6425V28.7536H126.358V29.9903C126.358 33.7005 132.532 34.0097 134.384 31.2271L139.014 34.3188Z" fill="#A70057"/>
<path d="M146.731 30.2995C149.818 33.0821 154.448 34.0097 155.374 32.1546C155.991 30.6087 155.065 29.0628 152.596 28.7536C139.94 26.5894 141.792 12.6763 153.213 12.6763C155.682 12.6763 158.769 13.2947 161.547 15.4589L158.152 20.0966C156.608 18.5507 151.67 17.314 151.361 20.4058C151.052 21.9517 153.83 22.8792 154.756 23.1884C158.152 24.1159 162.473 25.971 162.473 30.6087C162.473 36.4831 157.843 39.2657 152.904 39.2657C149.2 39.2657 145.805 38.029 143.335 34.9372L146.731 30.2995Z" fill="#A70057"/>
<path d="M167.103 30.2995C170.499 33.0821 174.82 34.0097 175.746 32.1546C176.672 30.6087 175.746 29.0628 173.277 28.7536C160.621 26.5894 162.473 12.6763 173.585 12.6763C176.055 12.6763 179.45 13.2947 182.228 15.4589L178.524 20.0966C176.981 18.5507 172.042 17.314 171.733 20.4058C171.733 21.9517 174.203 22.8792 175.437 23.1884C178.833 24.1159 183.154 25.971 183.154 30.6087C183.154 36.4831 178.524 39.2657 173.277 39.2657C169.573 39.2657 166.486 38.029 163.708 34.9372L167.103 30.2995Z" fill="#A70057"/>
<path d="M230.381 30.2995C230.381 34.0097 237.789 34.0097 237.789 30.2995V28.1353H230.381V30.2995ZM224.825 17.314C226.986 13.6039 230.999 12.6763 234.085 12.6763C239.641 12.6763 244.889 15.4589 244.889 21.6425V29.9903C244.889 36.1739 239.641 39.2657 234.085 39.2657C228.838 39.2657 223.59 36.1739 223.59 29.9903V22.8792H237.789V21.6425C237.789 18.2415 231.307 17.6232 229.455 20.715L224.825 17.314Z" fill="#A70057"/>
<path d="M210.009 12.9855C207.539 12.9855 205.07 13.913 203.218 16.0773C201.675 13.913 198.897 12.9855 196.427 12.9855C191.488 12.9855 186.55 15.7681 186.55 21.6425V39.2657H193.649V21.6425C193.649 19.1691 197.045 18.8599 198.897 19.7874C199.514 20.0966 199.823 20.715 199.823 21.3333V39.2657H206.613H206.922V21.3333C206.922 20.715 207.231 20.0966 207.848 19.7874C209.7 18.8599 213.096 19.1691 213.096 21.6425V39.2657H220.195V21.6425C220.195 15.7681 214.948 12.9855 210.009 12.9855Z" fill="#A70057"/>
<path d="M24.1876 44.2126L25.731 40.1932C23.2616 38.3382 21.7182 35.2464 21.7182 31.8454C21.7182 26.2802 26.3483 21.6425 31.9044 21.6425C37.7692 21.6425 42.3993 26.2802 42.3993 31.8454C42.3993 35.2464 40.856 38.3382 38.3866 40.1932L39.9299 44.2126C43.634 41.43 46.4121 37.1015 46.4121 31.8454C46.4121 24.116 39.9299 17.6232 31.9044 17.6232C24.1876 17.6232 17.7055 24.116 17.7055 31.8454C17.7055 37.1015 20.1749 41.43 24.1876 44.2126Z" fill="#00A9AC"/>
<path d="M21.7182 50.087L23.2616 46.3768C18.6315 43.285 15.2361 38.029 15.2361 31.8454C15.2361 22.57 22.6442 15.1498 31.9044 15.1498C41.1646 15.1498 48.8815 22.57 48.8815 31.8454C48.8815 38.029 45.4861 43.285 40.856 46.3768L42.3993 50.087C48.5728 46.3768 52.8942 39.8841 52.8942 31.8454C52.8942 20.4058 43.634 11.1304 31.9044 11.1304C20.4835 11.1304 11.2233 20.4058 11.2233 31.8454C11.2233 39.8841 15.5448 46.3768 21.7182 50.087Z" fill="#00A9AC"/>
<path d="M38.3866 56.8889L33.7565 38.3382V38.029C33.1391 38.3382 32.5218 38.3382 31.9044 38.3382C31.5958 38.3382 30.9784 38.3382 30.3611 38.029V38.3382L25.731 56.8889C14.6188 54.1063 6.59325 43.9034 6.59325 31.8454C6.59325 17.9324 18.0142 6.49275 31.9044 6.49275C46.1034 6.49275 57.5243 17.9324 57.5243 31.8454C57.5243 43.9034 49.4988 54.1063 38.3866 56.8889ZM31.9044 0C14.3101 0 0.111115 14.2222 0.111115 31.8454C0.111115 49.7778 14.3101 64 31.9044 64C49.8075 64 64.0065 49.7778 64.0065 31.8454C64.0065 14.2222 49.8075 0 31.9044 0Z" fill="#A70057"/>
<path d="M31.9044 27.8261C29.7437 27.8261 27.8917 29.6812 27.8917 31.8454C27.8917 34.3188 29.7437 35.8647 31.9044 35.8647C34.3738 35.8647 35.9172 34.3188 35.9172 31.8454C35.9172 29.6812 34.3738 27.8261 31.9044 27.8261Z" fill="#00A9AC"/>
</svg>
