<svg width="41" height="40" viewBox="0 0 41 40" fill="none" xmlns="http://www.w3.org/2000/svg">
<rect x="0.5" width="40" height="40" rx="20" fill="url(#paint0_linear_141_89345)"/>
<path d="M27.1824 19.34V16.0475C27.1824 15.4325 26.7174 14.735 26.1399 14.5025L21.9624 12.7925C21.0249 12.41 19.9674 12.41 19.0299 12.7925L14.8524 14.5025C14.2824 14.735 13.8174 15.4325 13.8174 16.0475V19.34C13.8174 23.0075 16.4799 26.4425 20.1174 27.4475C20.3649 27.515 20.6349 27.515 20.8824 27.4475C24.5199 26.4425 27.1824 23.0075 27.1824 19.34ZM21.0624 20.6525V22.625C21.0624 22.9325 20.8074 23.1875 20.4999 23.1875C20.1924 23.1875 19.9374 22.9325 19.9374 22.625V20.6525C19.1799 20.4125 18.6249 19.7075 18.6249 18.875C18.6249 17.84 19.4649 17 20.4999 17C21.5349 17 22.3749 17.84 22.3749 18.875C22.3749 19.715 21.8199 20.4125 21.0624 20.6525Z" fill="#008183"/>
<defs>
<linearGradient id="paint0_linear_141_89345" x1="20.5" y1="0" x2="20.5" y2="40" gradientUnits="userSpaceOnUse">
<stop stop-color="#3C5AF6" stop-opacity="0.11"/>
<stop offset="1" stop-color="#3C5AF6" stop-opacity="0"/>
</linearGradient>
</defs>
</svg>
