<svg width="25" height="24" viewBox="0 0 25 24" fill="none" xmlns="http://www.w3.org/2000/svg">
<path d="M10.022 13.75C10.022 14.72 10.772 15.5 11.692 15.5H13.572C14.372 15.5 15.022 14.82 15.022 13.97C15.022 13.06 14.622 12.73 14.032 12.52L11.022 11.47C10.432 11.26 10.032 10.94 10.032 10.02C10.032 9.17999 10.682 8.48999 11.482 8.48999H13.362C14.282 8.48999 15.032 9.26999 15.032 10.24" stroke="currentColor" stroke-width="1.5" stroke-linecap="round" stroke-linejoin="round"/>
<path d="M12.522 7.5V16.5" stroke="currentColor" stroke-width="1.5" stroke-linecap="round" stroke-linejoin="round"/>
<path d="M22.522 12C22.522 17.52 18.042 22 12.522 22C7.00197 22 2.52197 17.52 2.52197 12C2.52197 6.48 7.00197 2 12.522 2" stroke="currentColor" stroke-width="1.5" stroke-linecap="round" stroke-linejoin="round"/>
<path d="M17.522 3V7H21.522" stroke="currentColor" stroke-width="1.5" stroke-linecap="round" stroke-linejoin="round"/>
<path d="M22.522 2L17.522 7" stroke="currentColor" stroke-width="1.5" stroke-linecap="round" stroke-linejoin="round"/>
</svg>
