<svg width="40" height="40" viewBox="0 0 40 40" fill="none" xmlns="http://www.w3.org/2000/svg">
<rect width="40" height="40" rx="20" fill="#DCF9FA"/>
<path d="M12.7084 20.1948H25.1042" stroke="#A70057" stroke-width="1.5" stroke-miterlimit="10" stroke-linecap="round" stroke-linejoin="round"/>
<path d="M25.1042 18.4958V23.7093C25.0823 25.7875 24.5136 26.3125 22.3479 26.3125H15.4646C13.2626 26.3125 12.7084 25.7656 12.7084 23.5927V18.4958C12.7084 16.527 13.1677 15.8927 14.8959 15.7906C15.0709 15.7833 15.2605 15.776 15.4646 15.776H22.3479C24.55 15.776 25.1042 16.3229 25.1042 18.4958Z" stroke="#A70057" stroke-width="1.5" stroke-linecap="round" stroke-linejoin="round"/>
<path d="M27.2917 15.9073V21.0042C27.2917 22.9729 26.8323 23.6073 25.1042 23.7094V18.4958C25.1042 16.3229 24.55 15.776 22.3479 15.776H15.4646C15.2605 15.776 15.0709 15.7833 14.8959 15.7906C14.9177 13.7125 15.4865 13.1875 17.6521 13.1875H24.5354C26.7375 13.1875 27.2917 13.7344 27.2917 15.9073Z" stroke="#A70057" stroke-width="1.5" stroke-linecap="round" stroke-linejoin="round"/>
<path d="M15.0781 23.9865H16.3323" stroke="#A70057" stroke-width="1.5" stroke-miterlimit="10" stroke-linecap="round" stroke-linejoin="round"/>
<path d="M17.8927 23.9865H20.401" stroke="#A70057" stroke-width="1.5" stroke-miterlimit="10" stroke-linecap="round" stroke-linejoin="round"/>
</svg>
