<svg width="35" height="35" viewBox="0 0 35 35" fill="none" xmlns="http://www.w3.org/2000/svg">
<rect x="0.933105" y="0.466553" width="34" height="34" rx="5" fill="#FADCDC"/>
<path d="M26.9331 11.4465C23.6031 11.1165 20.2531 10.9465 16.9131 10.9465C14.9331 10.9465 12.9531 11.0465 10.9731 11.2465L8.93311 11.4465" stroke="#A70057" stroke-width="1.5" stroke-linecap="round" stroke-linejoin="round"/>
<path d="M14.4331 10.4366L14.6531 9.12655C14.8131 8.17655 14.9331 7.46655 16.6231 7.46655H19.2431C20.9331 7.46655 21.0631 8.21655 21.2131 9.13655L21.4331 10.4366" stroke="#A70057" stroke-width="1.5" stroke-linecap="round" stroke-linejoin="round"/>
<path d="M24.783 14.6066L24.133 24.6766C24.023 26.2466 23.933 27.4666 21.143 27.4666H14.723C11.933 27.4666 11.843 26.2466 11.733 24.6766L11.083 14.6066" stroke="#A70057" stroke-width="1.5" stroke-linecap="round" stroke-linejoin="round"/>
<path d="M16.2632 21.9666H19.5932" stroke="#A70057" stroke-width="1.5" stroke-linecap="round" stroke-linejoin="round"/>
<path d="M15.4331 17.9666H20.4331" stroke="#A70057" stroke-width="1.5" stroke-linecap="round" stroke-linejoin="round"/>
</svg>
