<svg width="48" height="48" viewBox="0 0 48 48" fill="none" xmlns="http://www.w3.org/2000/svg">
<rect width="48" height="48" rx="24" fill="white"/>
<rect x="4" y="4" width="40" height="40" rx="20" fill="url(#paint0_linear_120_1921)"/>
<path d="M23.0833 18.7191V18.8962H25.9167V18.7191C25.9167 18.3434 25.7674 17.983 25.5017 17.7173C25.2361 17.4517 24.8757 17.3024 24.5 17.3024C24.1243 17.3024 23.7639 17.4517 23.4983 17.7173C23.2326 17.983 23.0833 18.3434 23.0833 18.7191ZM22.1979 18.8962V18.7191C22.1979 18.1085 22.4405 17.523 22.8722 17.0913C23.3039 16.6595 23.8894 16.417 24.5 16.417C25.1105 16.417 25.6961 16.6595 26.1278 17.0913C26.5595 17.523 26.8021 18.1085 26.8021 18.7191V18.8962H30.7865C30.9039 18.8962 31.0165 18.9428 31.0995 19.0258C31.1825 19.1088 31.2292 19.2215 31.2292 19.3389C31.2292 19.4563 31.1825 19.5689 31.0995 19.6519C31.0165 19.7349 30.9039 19.7816 30.7865 19.7816H29.7534L29.045 28.2306C28.9912 28.8722 28.6983 29.4702 28.2244 29.906C27.7504 30.3418 27.13 30.5837 26.4862 30.5837H22.5138C21.87 30.5836 21.2497 30.3417 20.7759 29.9059C20.302 29.4701 20.0091 28.8721 19.9553 28.2306L19.247 19.7816H18.2135C18.0961 19.7816 17.9835 19.7349 17.9005 19.6519C17.8175 19.5689 17.7708 19.4563 17.7708 19.3389C17.7708 19.2215 17.8175 19.1088 17.9005 19.0258C17.9835 18.9428 18.0961 18.8962 18.2135 18.8962H22.1979ZM23.6146 22.1722C23.6146 22.1141 23.6031 22.0565 23.5809 22.0028C23.5586 21.9491 23.526 21.9003 23.4849 21.8592C23.4438 21.818 23.395 21.7854 23.3413 21.7632C23.2876 21.7409 23.23 21.7295 23.1719 21.7295C23.1137 21.7295 23.0562 21.7409 23.0025 21.7632C22.9487 21.7854 22.8999 21.818 22.8588 21.8592C22.8177 21.9003 22.7851 21.9491 22.7629 22.0028C22.7406 22.0565 22.7292 22.1141 22.7292 22.1722V27.3076C22.7292 27.3658 22.7406 27.4233 22.7629 27.477C22.7851 27.5307 22.8177 27.5796 22.8588 27.6207C22.8999 27.6618 22.9487 27.6944 23.0025 27.7166C23.0562 27.7389 23.1137 27.7503 23.1719 27.7503C23.23 27.7503 23.2876 27.7389 23.3413 27.7166C23.395 27.6944 23.4438 27.6618 23.4849 27.6207C23.526 27.5796 23.5586 27.5307 23.5809 27.477C23.6031 27.4233 23.6146 27.3658 23.6146 27.3076V22.1722ZM25.8281 21.7295C25.5837 21.7295 25.3854 21.9278 25.3854 22.1722V27.3076C25.3854 27.425 25.4321 27.5376 25.5151 27.6207C25.5981 27.7037 25.7107 27.7503 25.8281 27.7503C25.9455 27.7503 26.0581 27.7037 26.1412 27.6207C26.2242 27.5376 26.2708 27.425 26.2708 27.3076V22.1722C26.2708 21.9278 26.0725 21.7295 25.8281 21.7295Z" fill="#008183"/>
<defs>
<linearGradient id="paint0_linear_120_1921" x1="24" y1="4" x2="24" y2="44" gradientUnits="userSpaceOnUse">
<stop stop-color="#3C5AF6" stop-opacity="0.11"/>
<stop offset="1" stop-color="#3C5AF6" stop-opacity="0"/>
</linearGradient>
</defs>
</svg>
