<svg width="35" height="35" viewBox="0 0 35 35" fill="none" xmlns="http://www.w3.org/2000/svg">
<rect x="0.933105" y="0.635281" width="34" height="34" rx="5" fill="#DCF9FA"/>
<path d="M21.513 17.6353C21.513 19.6153 19.913 21.2153 17.933 21.2153C15.953 21.2153 14.353 19.6153 14.353 17.6353C14.353 15.6553 15.953 14.0553 17.933 14.0553C19.913 14.0553 21.513 15.6553 21.513 17.6353Z" fill="#008183" stroke="#008183" stroke-width="1.5" stroke-linecap="round" stroke-linejoin="round"/>
<path d="M17.9332 25.9053C21.4632 25.9053 24.7532 23.8253 27.0432 20.2253C27.9432 18.8153 27.9432 16.4453 27.0432 15.0353C24.7532 11.4353 21.4632 9.35528 17.9332 9.35528C14.4032 9.35528 11.1132 11.4353 8.82319 15.0353C7.92319 16.4453 7.92319 18.8153 8.82319 20.2253C11.1132 23.8253 14.4032 25.9053 17.9332 25.9053Z" stroke="#008183" stroke-width="1.5" stroke-linecap="round" stroke-linejoin="round"/>
</svg>
