<svg width="41" height="40" viewBox="0 0 41 40" fill="none" xmlns="http://www.w3.org/2000/svg">
<rect x="0.5" width="40" height="40" rx="20" fill="url(#paint0_linear_141_89598)"/>
<path d="M24.25 12.8225H16.75C14.5 12.8225 13 14.3225 13 16.5725V21.0725C13 23.3225 14.5 24.8225 16.75 24.8225V26.42C16.75 27.02 17.4175 27.38 17.9125 27.0425L21.25 24.8225H24.25C26.5 24.8225 28 23.3225 28 21.0725V16.5725C28 14.3225 26.5 12.8225 24.25 12.8225ZM20.5 21.95C20.185 21.95 19.9375 21.695 19.9375 21.3875C19.9375 21.08 20.185 20.825 20.5 20.825C20.815 20.825 21.0625 21.08 21.0625 21.3875C21.0625 21.695 20.815 21.95 20.5 21.95ZM21.445 18.8375C21.1525 19.0325 21.0625 19.16 21.0625 19.37V19.5275C21.0625 19.835 20.8075 20.09 20.5 20.09C20.1925 20.09 19.9375 19.835 19.9375 19.5275V19.37C19.9375 18.5 20.575 18.0725 20.815 17.9075C21.0925 17.72 21.1825 17.5925 21.1825 17.3975C21.1825 17.0225 20.875 16.715 20.5 16.715C20.125 16.715 19.8175 17.0225 19.8175 17.3975C19.8175 17.705 19.5625 17.96 19.255 17.96C18.9475 17.96 18.6925 17.705 18.6925 17.3975C18.6925 16.4 19.5025 15.59 20.5 15.59C21.4975 15.59 22.3075 16.4 22.3075 17.3975C22.3075 18.2525 21.6775 18.68 21.445 18.8375Z" fill="#008183"/>
<defs>
<linearGradient id="paint0_linear_141_89598" x1="20.5" y1="0" x2="20.5" y2="40" gradientUnits="userSpaceOnUse">
<stop stop-color="#3C5AF6" stop-opacity="0.11"/>
<stop offset="1" stop-color="#3C5AF6" stop-opacity="0"/>
</linearGradient>
</defs>
</svg>
