<svg width="41" height="40" viewBox="0 0 41 40" fill="none" xmlns="http://www.w3.org/2000/svg">
<rect x="0.5" width="40" height="40" rx="20" fill="url(#paint0_linear_141_89613)"/>
<path d="M24.25 12.5H16.75C14.68 12.5 13 14.1725 13 16.235V20.72V21.47C13 23.5325 14.68 25.205 16.75 25.205H17.875C18.0775 25.205 18.3475 25.34 18.475 25.505L19.6 26.9975C20.095 27.6575 20.905 27.6575 21.4 26.9975L22.525 25.505C22.6675 25.3175 22.8925 25.205 23.125 25.205H24.25C26.32 25.205 28 23.5325 28 21.47V16.235C28 14.1725 26.32 12.5 24.25 12.5ZM21.25 21.3125H16.75C16.4425 21.3125 16.1875 21.0575 16.1875 20.75C16.1875 20.4425 16.4425 20.1875 16.75 20.1875H21.25C21.5575 20.1875 21.8125 20.4425 21.8125 20.75C21.8125 21.0575 21.5575 21.3125 21.25 21.3125ZM24.25 17.5625H16.75C16.4425 17.5625 16.1875 17.3075 16.1875 17C16.1875 16.6925 16.4425 16.4375 16.75 16.4375H24.25C24.5575 16.4375 24.8125 16.6925 24.8125 17C24.8125 17.3075 24.5575 17.5625 24.25 17.5625Z" fill="#008183"/>
<defs>
<linearGradient id="paint0_linear_141_89613" x1="20.5" y1="0" x2="20.5" y2="40" gradientUnits="userSpaceOnUse">
<stop stop-color="#3C5AF6" stop-opacity="0.11"/>
<stop offset="1" stop-color="#3C5AF6" stop-opacity="0"/>
</linearGradient>
</defs>
</svg>
