<svg width="86" height="86" viewBox="0 0 86 86" fill="none" xmlns="http://www.w3.org/2000/svg">
<path d="M11.2828 36.1048H9.0262C6.6323 36.1048 4.33645 37.0558 2.64371 38.7485C0.950972 40.4413 0 42.7371 0 45.131V58.6703C0 61.0642 0.950972 63.3601 2.64371 65.0528C4.33645 66.7455 6.6323 67.6965 9.0262 67.6965H11.2828C11.8812 67.6965 12.4552 67.4588 12.8784 67.0356C13.3016 66.6124 13.5393 66.0384 13.5393 65.44V38.3614C13.5393 37.7629 13.3016 37.1889 12.8784 36.7657C12.4552 36.3426 11.8812 36.1048 11.2828 36.1048ZM4.5131 58.6703V45.131C4.5131 43.9341 4.98859 42.7861 5.83496 41.9398C6.68133 41.0934 7.82925 40.6179 9.0262 40.6179V63.1834C7.82925 63.1834 6.68133 62.7079 5.83496 61.8616C4.98859 61.0152 4.5131 59.8673 4.5131 58.6703Z" fill="#008183"/>
<path d="M9.02628 40.6179V63.1834C7.82934 63.1834 6.68141 62.7079 5.83504 61.8616C4.98867 61.0152 4.51318 59.8673 4.51318 58.6703V45.131C4.51318 43.9341 4.98867 42.7861 5.83504 41.9398C6.68141 41.0934 7.82934 40.6179 9.02628 40.6179Z" fill="white"/>
<path d="M15.7961 31.5917C14.3995 31.5956 13.0382 32.0315 11.8989 32.8394C10.7597 33.6474 9.89823 34.788 9.43267 36.1048C9.1593 36.8255 9.02159 37.5906 9.02649 38.3614V65.44C9.02159 66.2108 9.1593 66.9758 9.43267 67.6965C9.9742 69.1889 11.023 70.4435 12.3958 71.241C13.7686 72.0385 15.378 72.3282 16.9427 72.0593C18.5074 71.7905 19.9278 70.9802 20.9557 69.7703C21.9836 68.5603 22.5535 67.0275 22.5658 65.44V38.3614C22.5658 36.5659 21.8526 34.844 20.583 33.5745C19.3135 32.3049 17.5916 31.5917 15.7961 31.5917ZM18.0527 65.44C18.0527 66.0384 17.815 66.6124 17.3918 67.0356C16.9686 67.4588 16.3946 67.6965 15.7961 67.6965C15.1977 67.6965 14.6237 67.4588 14.2005 67.0356C13.7773 66.6124 13.5396 66.0384 13.5396 65.44V38.3614C13.5396 37.7629 13.7773 37.1889 14.2005 36.7657C14.6237 36.3425 15.1977 36.1048 15.7961 36.1048C16.3946 36.1048 16.9686 36.3425 17.3918 36.7657C17.815 37.1889 18.0527 37.7629 18.0527 38.3614V65.44Z" fill="#008183"/>
<path d="M18.0522 38.3614V65.44C18.0522 66.0384 17.8144 66.6124 17.3912 67.0356C16.968 67.4588 16.3941 67.6965 15.7956 67.6965C15.1971 67.6965 14.6232 67.4588 14.2 67.0356C13.7768 66.6124 13.5391 66.0384 13.5391 65.44V38.3614C13.5391 37.7629 13.7768 37.1889 14.2 36.7657C14.6232 36.3426 15.1971 36.1048 15.7956 36.1048C16.3941 36.1048 16.968 36.3426 17.3912 36.7657C17.8144 37.1889 18.0522 37.7629 18.0522 38.3614Z" fill="white"/>
<path d="M76.7226 36.1048H74.466C73.8675 36.1048 73.2936 36.3426 72.8704 36.7657C72.4472 37.1889 72.2095 37.7629 72.2095 38.3614V65.44C72.2095 66.0384 72.4472 66.6124 72.8704 67.0356C73.2936 67.4588 73.8675 67.6965 74.466 67.6965H76.7226C79.1165 67.6965 81.4123 66.7455 83.1051 65.0528C84.7978 63.3601 85.7488 61.0642 85.7488 58.6703V45.131C85.7488 42.7371 84.7978 40.4413 83.1051 38.7485C81.4123 37.0558 79.1165 36.1048 76.7226 36.1048ZM81.2357 58.6703C81.2357 59.8673 80.7602 61.0152 79.9138 61.8616C79.0675 62.7079 77.9195 63.1834 76.7226 63.1834V40.6179C77.9195 40.6179 79.0675 41.0934 79.9138 41.9398C80.7602 42.7861 81.2357 43.9341 81.2357 45.131V58.6703Z" fill="#008183"/>
<path d="M81.2358 45.131V58.6703C81.2358 59.8673 80.7603 61.0152 79.9139 61.8616C79.0675 62.7079 77.9196 63.1834 76.7227 63.1834V40.6179C77.9196 40.6179 79.0675 41.0934 79.9139 41.9398C80.7603 42.7861 81.2358 43.9341 81.2358 45.131Z" fill="white"/>
<path d="M76.3167 36.1048C75.7752 34.6124 74.7264 33.3577 73.3536 32.5602C71.9808 31.7628 70.3714 31.4731 68.8067 31.742C67.242 32.0108 65.8215 32.821 64.7937 34.031C63.7658 35.241 63.1959 36.7737 63.1836 38.3613V65.4399C63.1959 67.0275 63.7658 68.5602 64.7937 69.7702C65.8215 70.9802 67.242 71.7904 68.8067 72.0593C70.3714 72.3281 71.9808 72.0385 73.3536 71.241C74.7264 70.4435 75.7752 69.1889 76.3167 67.6965C76.5901 66.9758 76.7278 66.2107 76.7229 65.4399V38.3613C76.7278 37.5905 76.5901 36.8255 76.3167 36.1048ZM69.9532 67.6965C69.3548 67.6965 68.7808 67.4587 68.3576 67.0356C67.9344 66.6124 67.6967 66.0384 67.6967 65.4399V38.3613C67.6967 37.7629 67.9344 37.1889 68.3576 36.7657C68.7808 36.3425 69.3548 36.1048 69.9532 36.1048C70.5517 36.1048 71.1257 36.3425 71.5489 36.7657C71.9721 37.1889 72.2098 37.7629 72.2098 38.3613V65.4399C72.2098 66.0384 71.9721 66.6124 71.5489 67.0356C71.1257 67.4587 70.5517 67.6965 69.9532 67.6965Z" fill="#008183"/>
<path d="M72.2094 38.3614V65.44C72.2094 66.0384 71.9716 66.6124 71.5485 67.0356C71.1253 67.4588 70.5513 67.6965 69.9528 67.6965C69.3544 67.6965 68.7804 67.4588 68.3572 67.0356C67.934 66.6124 67.6963 66.0384 67.6963 65.44V38.3614C67.6963 37.7629 67.934 37.1889 68.3572 36.7657C68.7804 36.3426 69.3544 36.1048 69.9528 36.1048C70.5513 36.1048 71.1253 36.3426 71.5485 36.7657C71.9716 37.1889 72.2094 37.7629 72.2094 38.3614Z" fill="white"/>
<path d="M74.4663 60.9269C73.8679 60.9269 73.2939 60.6891 72.8707 60.2659C72.4475 59.8428 72.2098 59.2688 72.2098 58.6703V33.8483C72.2098 26.0681 69.1191 18.6066 63.6177 13.1052C58.1163 7.60376 50.6548 4.5131 42.8746 4.5131C35.0945 4.5131 27.6329 7.60376 22.1315 13.1052C16.6301 18.6066 13.5395 26.0681 13.5395 33.8483V58.6703C13.5395 59.2688 13.3017 59.8428 12.8785 60.2659C12.4554 60.6891 11.8814 60.9269 11.2829 60.9269C10.6844 60.9269 10.1105 60.6891 9.6873 60.2659C9.26411 59.8428 9.02637 59.2688 9.02637 58.6703V33.8483C9.02637 24.8711 12.5925 16.2617 18.9403 9.91393C25.2881 3.56615 33.8975 0 42.8746 0C51.8517 0 60.4612 3.56615 66.809 9.91393C73.1567 16.2617 76.7229 24.8711 76.7229 33.8483V58.6703C76.7229 59.2688 76.4851 59.8428 76.062 60.2659C75.6388 60.6891 75.0648 60.9269 74.4663 60.9269Z" fill="#008183"/>
<path d="M56.4135 85.7489H42.8742C42.2758 85.7489 41.7018 85.5112 41.2786 85.088C40.8554 84.6648 40.6177 84.0908 40.6177 83.4924C40.6177 82.8939 40.8554 82.3199 41.2786 81.8967C41.7018 81.4736 42.2758 81.2358 42.8742 81.2358H56.4135C60.6028 81.2358 64.6206 79.5716 67.5829 76.6093C70.5452 73.647 72.2094 69.6293 72.2094 65.44C72.2094 64.8415 72.4471 64.2675 72.8703 63.8443C73.2935 63.4212 73.8675 63.1834 74.4659 63.1834C75.0644 63.1834 75.6384 63.4212 76.0616 63.8443C76.4847 64.2675 76.7225 64.8415 76.7225 65.44C76.7225 70.8262 74.5828 75.9919 70.7741 79.8006C66.9655 83.6092 61.7998 85.7489 56.4135 85.7489Z" fill="#008183"/>
<path d="M42.8746 72.2096C41.0792 72.2096 39.3573 72.9229 38.0878 74.1924C36.8182 75.462 36.105 77.1839 36.105 78.9793C36.105 80.7747 36.8182 82.4966 38.0878 83.7661C39.3573 85.0357 41.0792 85.7489 42.8746 85.7489H47.3877C47.9862 85.7489 48.5602 85.5112 48.9834 85.088C49.4065 84.6648 49.6443 84.0909 49.6443 83.4924V78.9793C49.6443 77.1839 48.9311 75.462 47.6615 74.1924C46.3919 72.9229 44.6701 72.2096 42.8746 72.2096ZM45.1312 81.2358H42.8746C42.4283 81.2358 41.992 81.1035 41.621 80.8555C41.2499 80.6076 40.9606 80.2552 40.7899 79.8428C40.6191 79.4305 40.5744 78.9768 40.6614 78.539C40.7485 78.1013 40.9634 77.6992 41.279 77.3837C41.5946 77.0681 41.9967 76.8532 42.4344 76.7661C42.8721 76.679 43.3258 76.7237 43.7382 76.8945C44.1505 77.0653 44.5029 77.3545 44.7509 77.7256C44.9988 78.0967 45.1312 78.533 45.1312 78.9793V81.2358Z" fill="#008183"/>
<path d="M45.1308 78.9793V81.2358H42.8742C42.4279 81.2358 41.9916 81.1035 41.6206 80.8555C41.2495 80.6076 40.9602 80.2551 40.7894 79.8428C40.6187 79.4305 40.574 78.9768 40.661 78.539C40.7481 78.1013 40.963 77.6992 41.2786 77.3836C41.5942 77.0681 41.9963 76.8531 42.434 76.7661C42.8717 76.679 43.3254 76.7237 43.7378 76.8945C44.1501 77.0653 44.5025 77.3545 44.7505 77.7256C44.9984 78.0967 45.1308 78.533 45.1308 78.9793Z" fill="white"/>
</svg>
