<svg width="21" height="20" viewBox="0 0 21 20" fill="none" xmlns="http://www.w3.org/2000/svg">
<path d="M19.382 6.37L12.452 0.830002C11.382 -0.0299982 9.65199 -0.0299982 8.59199 0.820002L1.66199 6.37C0.881994 6.99 0.381994 8.3 0.551994 9.28L1.88199 17.24C2.12199 18.66 3.48199 19.81 4.92199 19.81H16.122C17.552 19.81 18.922 18.65 19.162 17.24L20.492 9.28C20.652 8.3 20.152 6.99 19.382 6.37ZM10.522 13.5C9.14199 13.5 8.02199 12.38 8.02199 11C8.02199 9.62 9.14199 8.5 10.522 8.5C11.902 8.5 13.022 9.62 13.022 11C13.022 12.38 11.902 13.5 10.522 13.5Z" fill="currentColor"/>
</svg>
