<svg width="40" height="40" viewBox="0 0 40 40" fill="none" xmlns="http://www.w3.org/2000/svg">
<path d="M20.015 26.3975C18.2675 26.3975 16.52 26.12 14.8625 25.565C14.2325 25.3475 13.7525 24.905 13.5425 24.3275C13.325 23.75 13.4 23.1125 13.745 22.5425L14.6075 21.11C14.7875 20.81 14.9525 20.21 14.9525 19.8575V17.69C14.9525 14.9 17.225 12.6275 20.015 12.6275C22.805 12.6275 25.0775 14.9 25.0775 17.69V19.8575C25.0775 20.2025 25.2425 20.81 25.4225 21.1175L26.2775 22.5425C26.6 23.0825 26.66 23.735 26.4425 24.3275C26.225 24.92 25.7525 25.37 25.16 25.565C23.51 26.12 21.7625 26.3975 20.015 26.3975ZM20.015 13.7525C17.8475 13.7525 16.0775 15.515 16.0775 17.69V19.8575C16.0775 20.405 15.8525 21.215 15.575 21.6875L14.7125 23.12C14.5475 23.3975 14.5025 23.69 14.6 23.9375C14.69 24.1925 14.915 24.3875 15.2225 24.4925C18.3575 25.5425 21.68 25.5425 24.815 24.4925C25.085 24.4025 25.295 24.2 25.3925 23.93C25.49 23.66 25.4675 23.3675 25.3175 23.12L24.455 21.6875C24.17 21.2 23.9525 20.3975 23.9525 19.85V17.69C23.9525 15.515 22.19 13.7525 20.015 13.7525Z" fill="#1B2124"/>
<path d="M21.41 13.955C21.3575 13.955 21.305 13.9475 21.2525 13.9325C21.035 13.8725 20.825 13.8275 20.6225 13.7975C19.985 13.715 19.37 13.76 18.7925 13.9325C18.5825 14 18.3575 13.9325 18.215 13.775C18.0725 13.6175 18.0275 13.3925 18.11 13.19C18.4175 12.4025 19.1675 11.885 20.0225 11.885C20.8775 11.885 21.6275 12.395 21.935 13.19C22.01 13.3925 21.9725 13.6175 21.83 13.775C21.7175 13.895 21.56 13.955 21.41 13.955Z" fill="#1B2124"/>
<path d="M20.015 28.1075C19.2725 28.1075 18.5525 27.8075 18.0275 27.2825C17.5025 26.7575 17.2025 26.0375 17.2025 25.295H18.3275C18.3275 25.7375 18.5075 26.1725 18.8225 26.4875C19.1375 26.8025 19.5725 26.9825 20.015 26.9825C20.945 26.9825 21.7025 26.225 21.7025 25.295H22.8275C22.8275 26.8475 21.5675 28.1075 20.015 28.1075Z" fill="#1B2124"/>
<rect x="0.25" y="0.25" width="39.5" height="39.5" rx="19.75" stroke="#B6B8B9" stroke-width="0.5"/>
</svg>
