<svg width="55" height="55" viewBox="0 0 55 55" fill="none" xmlns="http://www.w3.org/2000/svg">
<circle cx="27.4666" cy="27.4666" r="26.9666" stroke="#008183"/>
<mask id="path-2-inside-1_572_6313" fill="white">
<path d="M37.7259 29.4623C37.3248 29.1162 36.4339 28.9333 35.0778 28.9168C34.1606 28.9085 33.0569 28.9794 31.8949 29.1211C31.375 28.8591 30.8383 28.5723 30.4183 28.2279C29.2863 27.3034 28.3408 26.0196 27.7532 24.6073C27.7909 24.4754 27.8248 24.3601 27.8549 24.2414C27.8549 24.2414 28.4934 21.0723 28.3239 20.0011C28.3013 19.8545 28.2862 19.8116 28.241 19.6979L28.1864 19.5727C28.0131 19.2233 27.6722 18.8525 27.1392 18.8723L26.8172 18.864C26.222 18.864 25.738 19.1293 25.6118 19.5282C25.2257 20.7757 25.625 22.6412 26.3463 25.0572L26.1617 25.451C25.6438 26.5552 24.9959 27.6676 24.4233 28.6481L24.348 28.775C23.7453 29.8067 23.1991 30.6818 22.7038 31.4234L22.1934 31.6607C22.1557 31.6772 21.2799 32.0842 21.0746 32.193C19.3306 33.1043 18.176 34.1376 17.9839 34.9583C17.9237 35.2203 17.9689 35.5549 18.2777 35.7098L18.7731 35.9273C18.9878 36.0213 19.2138 36.0691 19.4455 36.0691C20.6866 36.0691 22.1293 34.7161 24.1163 31.6821C26.4103 31.0295 29.0208 30.4857 31.3091 30.1857C33.0532 31.0443 35.1984 31.6409 36.5507 31.6409C36.7918 31.6409 36.9989 31.6211 37.1666 31.5816C37.4265 31.5206 37.6449 31.3921 37.7787 31.2157C38.0405 30.8696 38.0951 30.3934 38.0235 29.9056C38.0028 29.7605 37.871 29.5826 37.7278 29.459L37.7259 29.4623ZM19.1761 35.2451C19.4021 34.7029 20.2986 33.6317 21.6246 32.6808C21.7074 32.6215 21.9127 32.4534 22.1011 32.2968C20.7149 34.2315 19.7864 35.0028 19.1761 35.2434V35.2451ZM27.0281 19.4243C27.4274 19.4243 27.6553 20.3044 27.6741 21.13C27.693 21.9556 27.4726 22.5357 27.1995 22.9642C26.9735 22.3297 26.8624 21.3294 26.8624 20.6752C26.8624 20.6752 26.8454 19.4243 27.0281 19.4243ZM24.6851 30.6983C24.9639 30.2632 25.252 29.8034 25.5477 29.3156C26.2691 28.1224 26.723 27.1897 27.062 26.4234C27.7363 27.4962 28.5763 28.4092 29.5632 29.1409C29.6856 29.2315 29.8175 29.3238 29.9531 29.4145C27.9453 29.7622 26.2107 30.1841 24.6832 30.6983H24.6851ZM37.3417 30.5994C37.2193 30.6669 36.869 30.7048 36.6448 30.7048C35.9178 30.7048 35.0176 30.4148 33.7576 29.9402C34.2416 29.9089 34.6861 29.8924 35.0854 29.8924C35.8143 29.8924 36.0309 29.8891 36.7428 30.0489C37.4547 30.2088 37.4641 30.5318 37.3417 30.5977V30.5994Z"/>
</mask>
<path d="M37.7259 29.4623C37.3248 29.1162 36.4339 28.9333 35.0778 28.9168C34.1606 28.9085 33.0569 28.9794 31.8949 29.1211C31.375 28.8591 30.8383 28.5723 30.4183 28.2279C29.2863 27.3034 28.3408 26.0196 27.7532 24.6073C27.7909 24.4754 27.8248 24.3601 27.8549 24.2414C27.8549 24.2414 28.4934 21.0723 28.3239 20.0011C28.3013 19.8545 28.2862 19.8116 28.241 19.6979L28.1864 19.5727C28.0131 19.2233 27.6722 18.8525 27.1392 18.8723L26.8172 18.864C26.222 18.864 25.738 19.1293 25.6118 19.5282C25.2257 20.7757 25.625 22.6412 26.3463 25.0572L26.1617 25.451C25.6438 26.5552 24.9959 27.6676 24.4233 28.6481L24.348 28.775C23.7453 29.8067 23.1991 30.6818 22.7038 31.4234L22.1934 31.6607C22.1557 31.6772 21.2799 32.0842 21.0746 32.193C19.3306 33.1043 18.176 34.1376 17.9839 34.9583C17.9237 35.2203 17.9689 35.5549 18.2777 35.7098L18.7731 35.9273C18.9878 36.0213 19.2138 36.0691 19.4455 36.0691C20.6866 36.0691 22.1293 34.7161 24.1163 31.6821C26.4103 31.0295 29.0208 30.4857 31.3091 30.1857C33.0532 31.0443 35.1984 31.6409 36.5507 31.6409C36.7918 31.6409 36.9989 31.6211 37.1666 31.5816C37.4265 31.5206 37.6449 31.3921 37.7787 31.2157C38.0405 30.8696 38.0951 30.3934 38.0235 29.9056C38.0028 29.7605 37.871 29.5826 37.7278 29.459L37.7259 29.4623ZM19.1761 35.2451C19.4021 34.7029 20.2986 33.6317 21.6246 32.6808C21.7074 32.6215 21.9127 32.4534 22.1011 32.2968C20.7149 34.2315 19.7864 35.0028 19.1761 35.2434V35.2451ZM27.0281 19.4243C27.4274 19.4243 27.6553 20.3044 27.6741 21.13C27.693 21.9556 27.4726 22.5357 27.1995 22.9642C26.9735 22.3297 26.8624 21.3294 26.8624 20.6752C26.8624 20.6752 26.8454 19.4243 27.0281 19.4243ZM24.6851 30.6983C24.9639 30.2632 25.252 29.8034 25.5477 29.3156C26.2691 28.1224 26.723 27.1897 27.062 26.4234C27.7363 27.4962 28.5763 28.4092 29.5632 29.1409C29.6856 29.2315 29.8175 29.3238 29.9531 29.4145C27.9453 29.7622 26.2107 30.1841 24.6832 30.6983H24.6851ZM37.3417 30.5994C37.2193 30.6669 36.869 30.7048 36.6448 30.7048C35.9178 30.7048 35.0176 30.4148 33.7576 29.9402C34.2416 29.9089 34.6861 29.8924 35.0854 29.8924C35.8143 29.8924 36.0309 29.8891 36.7428 30.0489C37.4547 30.2088 37.4641 30.5318 37.3417 30.5977V30.5994Z" fill="black"/>
<path d="M37.7259 29.4623L22.9838 46.5511L43.7372 64.4545L57.3259 40.6516L37.7259 29.4623ZM35.0778 28.9168L35.3521 6.34947L35.3163 6.34903L35.2806 6.34871L35.0778 28.9168ZM31.8949 29.1211L21.7361 49.2745L27.8409 52.3518L34.6272 51.5241L31.8949 29.1211ZM30.4183 28.2279L44.7295 10.7766L44.7122 10.7625L44.6949 10.7483L30.4183 28.2279ZM27.7532 24.6073L6.05262 18.4071L3.88523 25.993L6.91591 33.277L27.7532 24.6073ZM27.8549 24.2414L49.7295 29.7969L49.8681 29.251L49.9793 28.6988L27.8549 24.2414ZM28.3239 20.0011L6.01819 23.4383L6.02515 23.4835L6.0323 23.5286L28.3239 20.0011ZM28.241 19.6979L49.2137 11.3609L49.0767 11.0162L48.9284 10.6762L28.241 19.6979ZM28.1864 19.5727L48.8738 10.551L48.6519 10.0422L48.4053 9.54495L28.1864 19.5727ZM27.1392 18.8723L26.562 41.4338L27.2691 41.4519L27.976 41.4257L27.1392 18.8723ZM26.8172 18.864L27.3944 -3.69757L27.1058 -3.70496H26.8172V18.864ZM25.6118 19.5282L4.09424 12.7198L4.07279 12.7876L4.05176 12.8555L25.6118 19.5282ZM26.3463 25.0572L46.7826 34.634L50.4333 26.8438L47.9719 18.6003L26.3463 25.0572ZM26.1617 25.451L46.5944 35.0357L46.598 35.0279L26.1617 25.451ZM24.4233 28.6481L43.8298 40.1697L43.8717 40.0992L43.913 40.0284L24.4233 28.6481ZM24.348 28.775L4.94148 17.2535L4.90091 17.3219L4.86082 17.3905L24.348 28.775ZM22.7038 31.4234L32.2189 51.8885L37.9567 49.2207L41.4713 43.9589L22.7038 31.4234ZM22.1934 31.6607L31.2394 52.3374L31.4752 52.2343L31.7085 52.1258L22.1934 31.6607ZM21.0746 32.193L31.5269 52.1957L31.5839 52.1659L31.6407 52.1358L21.0746 32.193ZM17.9839 34.9583L-3.99104 29.8144L-4.00097 29.8569L-4.01074 29.8993L17.9839 34.9583ZM18.2777 35.7098L8.15999 55.8838L8.67515 56.1422L9.20282 56.3739L18.2777 35.7098ZM18.7731 35.9273L9.69816 56.5914L9.71258 56.5978L9.727 56.6041L18.7731 35.9273ZM24.1163 31.6821L17.9409 9.97445L9.84671 12.2771L5.23612 19.317L24.1163 31.6821ZM31.3091 30.1857L41.2774 9.93749L35.149 6.92043L28.3761 7.80815L31.3091 30.1857ZM37.1666 31.5816L32.0118 9.60916L31.9977 9.61247L31.9836 9.61579L37.1666 31.5816ZM37.7787 31.2157L55.7616 44.8529L55.7697 44.8422L55.7779 44.8314L37.7787 31.2157ZM38.0235 29.9056L15.6814 33.0973L15.6874 33.1395L15.6936 33.1818L38.0235 29.9056ZM37.7278 29.459L52.4779 12.377L31.723 -5.54457L18.1279 18.2697L37.7278 29.459ZM19.1761 35.2451H-3.39285L40.0077 43.9286L19.1761 35.2451ZM21.6246 32.6808L8.48691 14.3298L8.47937 14.3352L8.47184 14.3406L21.6246 32.6808ZM22.1011 32.2968L40.4472 45.4413L7.67412 14.9411L22.1011 32.2968ZM19.1761 35.2434L10.8977 14.2476L-3.39285 19.8822V35.2434H19.1761ZM27.1995 22.9642L5.93911 30.5375L21.4259 74.0135L46.2315 35.0945L27.1995 22.9642ZM26.8624 20.6752H49.4313V20.5222L49.4293 20.3693L26.8624 20.6752ZM24.6851 30.6983V53.2672H37.0292L43.6884 42.8735L24.6851 30.6983ZM25.5477 29.3156L44.8477 41.0148L44.8545 41.0035L44.8614 40.9922L25.5477 29.3156ZM27.062 26.4234L46.1705 14.414L23.5904 -21.5139L6.42256 17.2925L27.062 26.4234ZM29.5632 29.1409L16.1217 47.2705L16.1277 47.275L16.1337 47.2794L29.5632 29.1409ZM29.9531 29.4145L33.8045 51.6524L89.4248 42.0193L42.4946 10.651L29.9531 29.4145ZM24.6832 30.6983L17.483 9.30864L24.6832 53.2672V30.6983ZM37.3417 30.5994L48.2473 50.3586L59.9107 43.9213V30.5994H37.3417ZM33.7576 29.9402L32.3007 7.41828L25.8019 51.0605L33.7576 29.9402ZM37.3417 30.5977L26.6418 10.7264L14.7727 17.1174V30.5977H37.3417ZM52.4681 12.3734C47.9591 8.48362 43.1733 7.34387 41.3099 6.96034C38.9507 6.47475 36.8312 6.36744 35.3521 6.34947L34.8036 51.4841C34.6806 51.4826 33.6845 51.475 32.21 51.1715C31.4409 51.0132 30.2234 50.7105 28.7704 50.1147C27.3552 49.5343 25.2061 48.4682 22.9838 46.5511L52.4681 12.3734ZM35.2806 6.34871C33.158 6.32964 31.0467 6.48836 29.1626 6.71815L34.6272 51.5241C34.8118 51.5016 34.9484 51.4902 35.0242 51.4853C35.0597 51.483 35.0683 51.4831 35.05 51.4836C35.0328 51.4841 34.9736 51.4857 34.8751 51.4848L35.2806 6.34871ZM42.0537 8.96779C41.9132 8.897 42.1565 9.01472 42.5306 9.23397C42.8943 9.44711 43.7261 9.95382 44.7295 10.7766L16.107 45.6792C18.6705 47.7814 21.2689 49.039 21.7361 49.2745L42.0537 8.96779ZM44.6949 10.7483C46.5729 12.2822 47.8165 14.0772 48.5905 15.9375L6.91591 33.277C8.86519 37.962 11.9998 42.3246 16.1416 45.7075L44.6949 10.7483ZM49.4538 30.8074C49.46 30.7859 49.4599 30.7863 49.476 30.7303C49.4874 30.6902 49.5073 30.6208 49.5298 30.5409C49.575 30.3807 49.6481 30.1172 49.7295 29.7969L5.98039 18.686C6.0316 18.4843 6.07273 18.3378 6.08398 18.2979C6.08954 18.2781 6.09199 18.2697 6.08557 18.2921C6.08169 18.3056 6.07987 18.312 6.07316 18.3353C6.06779 18.3541 6.06058 18.3792 6.05262 18.4071L49.4538 30.8074ZM27.8549 24.2414C49.9793 28.6988 49.9796 28.6976 49.9799 28.6963C49.98 28.6958 49.9802 28.6945 49.9804 28.6936C49.9808 28.6918 49.9811 28.69 49.9815 28.6881C49.9823 28.6843 49.9831 28.6803 49.9839 28.6761C49.9856 28.6676 49.9875 28.6583 49.9895 28.6482C49.9935 28.628 49.9982 28.6044 50.0035 28.5777C50.014 28.5243 50.027 28.4578 50.0421 28.3798C50.0721 28.2246 50.1109 28.0195 50.1551 27.7768C50.2412 27.3048 50.3592 26.6273 50.474 25.8592C50.582 25.1369 50.7252 24.0838 50.8184 22.9254C50.8682 22.3066 51.1096 19.5959 50.6155 16.4737L6.0323 23.5286C5.78272 21.9514 5.78125 20.7529 5.78393 20.3434C5.78739 19.8129 5.8149 19.4417 5.82584 19.3058C5.847 19.0428 5.86243 18.9828 5.83196 19.1867C5.80833 19.3448 5.77731 19.5266 5.74894 19.6822C5.73598 19.7533 5.72625 19.8043 5.72197 19.8265C5.71989 19.8372 5.71934 19.8399 5.72062 19.8335C5.72127 19.8302 5.72239 19.8245 5.72402 19.8164C5.72483 19.8123 5.72578 19.8075 5.72686 19.8022C5.7274 19.7995 5.72797 19.7966 5.72858 19.7936C5.72888 19.7921 5.7292 19.7905 5.72952 19.7889C5.72968 19.7881 5.72993 19.7869 5.73001 19.7865C5.73026 19.7852 5.73051 19.784 27.8549 24.2414ZM50.6296 16.564C50.3037 14.4489 49.7675 12.7541 49.2137 11.3609L7.26834 28.0349C7.2666 28.0305 7.2433 27.972 7.21246 27.8924C7.18039 27.8096 7.12728 27.671 7.06377 27.4966C6.9277 27.123 6.75134 26.6065 6.57477 25.9826C6.21816 24.7224 6.06205 23.7229 6.01819 23.4383L50.6296 16.564ZM48.9284 10.6762L48.8738 10.551L7.49902 28.5943L7.55364 28.7196L48.9284 10.6762ZM48.4053 9.54495C46.3819 5.46507 39.6118 -4.17501 26.3024 -3.6812L27.976 41.4257C15.7327 41.88 9.64441 32.9815 7.96751 29.6004L48.4053 9.54495ZM27.7165 -3.68933L27.3944 -3.69757L26.2399 41.4256L26.562 41.4338L27.7165 -3.68933ZM26.8172 -3.70496C21.6108 -3.70496 8.51114 -1.23961 4.09424 12.7198L47.1293 26.3365C45.0484 32.9133 40.5101 36.8439 36.9176 38.8204C33.3122 40.804 29.7304 41.433 26.8172 41.433V-3.70496ZM4.05176 12.8555C2.37514 18.2728 2.91068 23.0263 3.25549 25.2751C3.64108 27.7898 4.28989 30.0712 4.7207 31.5141L47.9719 18.6003C47.6814 17.6272 47.7699 17.7679 47.872 18.4339C47.9326 18.8295 48.0461 19.7038 48.0288 20.9038C48.0116 22.1017 47.8602 23.9764 47.1718 26.2008L4.05176 12.8555ZM5.91001 15.4803L5.72543 15.8742L46.598 35.0279L46.7826 34.634L5.91001 15.4803ZM5.72907 15.8664C5.75614 15.8087 5.72096 15.8884 5.56889 16.1631C5.41257 16.4454 5.23127 16.7582 4.93366 17.2679L43.913 40.0284C44.4076 39.1815 45.5757 37.2074 46.5944 35.0357L5.72907 15.8664ZM5.01682 17.1266L4.94148 17.2535L43.7545 40.2966L43.8298 40.1697L5.01682 17.1266ZM4.86082 17.3905C4.44525 18.1018 4.13865 18.5849 3.93626 18.8879L41.4713 43.9589C42.2596 42.7787 43.0454 41.5116 43.8352 40.1596L4.86082 17.3905ZM13.1886 10.9583L12.6782 11.1956L31.7085 52.1258L32.2189 51.8885L13.1886 10.9583ZM13.1473 10.984C12.895 11.0943 11.4351 11.7592 10.5086 12.2501L31.6407 52.1358C31.4881 52.2166 31.3703 52.2766 31.3135 52.3054C31.2492 52.3379 31.201 52.3618 31.176 52.3742C31.1279 52.398 31.1055 52.4086 31.1213 52.401C31.1513 52.3866 31.2169 52.3553 31.3129 52.3101C31.4029 52.2677 31.4915 52.2263 31.5559 52.1963C31.5885 52.1811 31.6073 52.1724 31.6118 52.1704C31.6154 52.1687 31.6042 52.1739 31.584 52.1831C31.5748 52.1874 31.5505 52.1985 31.518 52.2133C31.5017 52.2207 31.4734 52.2335 31.438 52.2494C31.4116 52.2613 31.3364 52.295 31.2394 52.3374L13.1473 10.984ZM10.6223 12.1903C8.59085 13.2518 6.18799 14.7416 3.89785 16.7908C2.23743 18.2766 -2.30117 22.5952 -3.99104 29.8144L39.9589 40.1022C39.1341 43.6257 37.6137 46.1076 36.6408 47.4637C35.6137 48.8955 34.6236 49.8675 33.9967 50.4285C32.7679 51.528 31.8143 52.0455 31.5269 52.1957L10.6223 12.1903ZM-4.01074 29.8993C-5.1267 34.7511 -5.72655 48.9193 8.15999 55.8838L28.3955 15.5358C34.2765 18.4853 37.9483 23.5625 39.5361 28.6491C40.9483 33.173 40.6246 37.2087 39.9786 40.0173L-4.01074 29.8993ZM9.20282 56.3739L9.69816 56.5914L27.848 15.2632L27.3526 15.0457L9.20282 56.3739ZM9.727 56.6041C12.7461 57.9249 16.0481 58.638 19.4455 58.638V13.5001C22.3795 13.5001 25.2294 14.1176 27.8191 15.2506L9.727 56.6041ZM19.4455 58.638C28.5229 58.638 34.5265 53.7415 36.9492 51.4668C39.6481 48.9328 41.6551 46.0955 42.9966 44.0472L5.23612 19.317C4.59055 20.3027 4.88269 19.6588 6.05322 18.5598C6.94755 17.7201 11.6092 13.5001 19.4455 13.5001V58.638ZM30.2918 53.3898C31.5652 53.0275 33.0923 52.714 34.2421 52.5633L28.3761 7.80815C24.9492 8.25731 21.2555 9.0315 17.9409 9.97445L30.2918 53.3898ZM21.3408 50.434C24.9108 52.1915 30.5566 54.2099 36.5507 54.2099V9.07193C37.7735 9.07193 38.6638 9.19732 39.0955 9.26884C39.5784 9.34885 39.9191 9.43463 40.1169 9.48958C40.4613 9.58525 40.8124 9.70855 41.2774 9.93749L21.3408 50.434ZM36.5507 54.2099C37.8775 54.2099 39.9433 54.1151 42.3495 53.5474L31.9836 9.61579C34.0545 9.12715 35.706 9.07193 36.5507 9.07193V54.2099ZM42.3213 53.554C46.4073 52.5954 51.7348 50.1629 55.7616 44.8529L19.7958 17.5785C23.5551 12.6212 28.4457 10.4458 32.0118 9.60916L42.3213 53.554ZM55.7779 44.8314C61.1876 37.6801 60.8606 30.0864 60.3534 26.6294L15.6936 33.1818C15.3295 30.7003 14.8933 24.0592 19.7795 17.6L55.7779 44.8314ZM60.3657 26.7138C59.6677 21.8282 57.5718 18.4258 56.5453 16.9261C55.3065 15.1163 53.9017 13.6064 52.4779 12.377L22.9777 46.5409C21.6971 45.4351 20.4298 44.076 19.2979 42.4224C18.3782 41.0788 16.3586 37.8379 15.6814 33.0973L60.3657 26.7138ZM18.1279 18.2697L18.126 18.273L57.3259 40.6516L57.3278 40.6483L18.1279 18.2697ZM40.0077 43.9286C39.168 45.9429 38.2313 47.3083 37.8444 47.851C37.3504 48.5439 36.9112 49.0552 36.5964 49.3974C35.9719 50.0762 35.3699 50.5961 34.7773 51.021L8.47184 14.3406C6.55336 15.7164 4.84013 17.2473 3.3794 18.8349C2.36009 19.9428 -0.0260105 22.6526 -1.65543 26.5615L40.0077 43.9286ZM34.7622 51.0318C35.4311 50.553 36.0056 50.0815 36.0259 50.0651C36.2176 49.9098 36.3988 49.76 36.528 49.6525L7.67412 14.9411C7.61504 14.9902 7.59939 15.0027 7.62067 14.9855C7.63031 14.9777 7.68825 14.9307 7.77774 14.8605C7.82386 14.8243 7.90076 14.7644 7.99959 14.6892C8.0877 14.6222 8.26091 14.4916 8.48691 14.3298L34.7622 51.0318ZM3.75498 19.1523C3.5644 19.4182 3.86868 18.9437 4.67728 18.1635C5.35489 17.5097 7.42697 15.616 10.8977 14.2476L27.4546 56.2393C34.6231 53.4128 38.7908 47.7532 40.4472 45.4413L3.75498 19.1523ZM-3.39285 35.2434V35.2451H41.7451V35.2434H-3.39285ZM27.0281 41.9933C17.9033 41.9933 12.1843 36.7561 9.80512 33.839C7.49226 31.0031 6.49253 28.3169 6.11294 27.1938C5.28168 24.7342 5.13637 22.7562 5.11102 21.6447L50.2372 20.6153C50.193 18.6782 49.9244 15.8473 48.8746 12.7413C48.3858 11.295 47.2531 8.33718 44.7846 5.31052C42.2498 2.20254 36.3526 -3.14464 27.0281 -3.14464V41.9933ZM5.11102 21.6447C5.07091 19.8865 5.28244 17.9524 5.85801 15.9529C6.43461 13.9498 7.27411 12.2357 8.16754 10.834L46.2315 35.0945C48.7722 31.1081 50.3637 26.1599 50.2372 20.6153L5.11102 21.6447ZM48.4599 15.3909C48.8113 16.3774 49.0025 17.1655 49.1007 17.6154C49.207 18.1022 49.2699 18.497 49.3085 18.7797C49.3757 19.2732 49.4313 19.8819 49.4313 20.6752H4.29339C4.29339 22.7089 4.51947 26.5521 5.93911 30.5375L48.4599 15.3909ZM26.8624 20.6752C49.4293 20.3693 49.4293 20.3709 49.4293 20.3725C49.4293 20.3731 49.4293 20.3747 49.4293 20.3757C49.4294 20.3779 49.4294 20.38 49.4294 20.3821C49.4295 20.3863 49.4295 20.3905 49.4296 20.3946C49.4297 20.4028 49.4298 20.4109 49.4299 20.4189C49.4301 20.4348 49.4302 20.4502 49.4303 20.4651C49.4306 20.4949 49.4308 20.5234 49.4309 20.551C49.431 20.6047 49.4309 20.6618 49.4302 20.7232C49.4293 20.8114 49.4261 21.0499 49.4059 21.3897C49.3997 21.4938 49.3436 22.6472 49.032 24.1635C48.918 24.7179 48.4661 26.9364 47.1738 29.5332C46.528 30.831 45.0747 33.4614 42.3154 36.0119C39.2872 38.8109 34.0692 41.9933 27.0281 41.9933V-3.14464C12.7474 -3.14464 7.12721 8.69161 6.76325 9.42298C5.43691 12.0882 4.95634 14.4043 4.81827 15.0761C4.45844 16.8268 4.37236 18.2929 4.34757 18.7098C4.30876 19.3623 4.2984 19.9135 4.29491 20.2362C4.29298 20.4149 4.29275 20.5697 4.29313 20.6918C4.29332 20.7536 4.29368 20.809 4.2941 20.8571C4.29431 20.8812 4.29453 20.9036 4.29476 20.9242C4.29488 20.9346 4.295 20.9445 4.29511 20.9539C4.29517 20.9587 4.29523 20.9633 4.29529 20.9678C4.29532 20.97 4.29535 20.9723 4.29538 20.9745C4.29539 20.9756 4.29541 20.9772 4.29542 20.9777C4.29544 20.9794 4.29547 20.981 26.8624 20.6752ZM43.6884 42.8735C44.0524 42.3052 44.4412 41.6854 44.8477 41.0148L6.2478 17.6164C6.06291 17.9214 5.87534 18.2211 5.68191 18.523L43.6884 42.8735ZM44.8614 40.9922C46.152 38.8573 47.0373 37.0554 47.7015 35.5542L6.42256 17.2925C6.40709 17.3275 6.39877 17.3453 6.39477 17.3537C6.39087 17.3619 6.38658 17.3707 6.38015 17.3832C6.37015 17.4027 6.32798 17.4837 6.23412 17.639L44.8614 40.9922ZM7.95354 38.4327C10.0702 41.8006 12.8078 44.8136 16.1217 47.2705L43.0047 11.0113C44.3448 12.0048 45.4023 13.1918 46.1705 14.414L7.95354 38.4327ZM16.1337 47.2794C16.5865 47.6147 17.0187 47.9154 17.4115 48.1779L42.4946 10.651C42.6162 10.7323 42.7848 10.8484 42.9927 11.0023L16.1337 47.2794ZM26.1016 7.17656C23.2488 7.67065 20.3517 8.34299 17.483 9.30864L31.8835 52.0879C32.0697 52.0252 32.6419 51.8537 33.8045 51.6524L26.1016 7.17656ZM24.6832 53.2672H24.6851V8.12928H24.6832V53.2672ZM26.4361 10.8401C27.9141 10.0244 29.1822 9.54486 29.9208 9.28986C30.7218 9.01333 31.3981 8.83191 31.868 8.71738C32.7886 8.49297 33.5318 8.37707 33.9699 8.31708C34.8113 8.20189 35.691 8.13587 36.6448 8.13587V53.2738C37.8228 53.2738 38.9898 53.1888 40.0929 53.0378C40.6619 52.9599 41.5296 52.8219 42.5574 52.5713C43.2235 52.409 45.5771 51.8323 48.2473 50.3586L26.4361 10.8401ZM36.6448 8.13587C39.148 8.13587 40.9457 8.61681 41.4555 8.75876C41.9965 8.90943 42.2336 9.01593 41.7132 8.81989L25.8019 51.0605C26.3335 51.2607 31.1088 53.2738 36.6448 53.2738V8.13587ZM35.2145 52.4621C35.269 52.4585 35.2867 52.4581 35.2712 52.4587C35.2567 52.4592 35.1927 52.4614 35.0854 52.4614V7.32341C34.0884 7.32341 33.1438 7.36374 32.3007 7.41828L35.2145 52.4621ZM35.0854 52.4614C35.3553 52.4614 35.2796 52.4619 35.1829 52.4603C35.0215 52.4577 34.6154 52.4483 34.0808 52.4046C32.8584 52.3046 31.9616 52.1063 31.7983 52.0696L41.6872 8.02825C38.6115 7.33763 36.4912 7.32341 35.0854 7.32341V52.4614ZM31.7983 52.0696C29.9631 51.6576 23.5182 49.9679 18.8469 43.2738C14.1982 36.612 10.6446 19.3403 26.6418 10.7264L48.0417 50.4691C64.1613 41.7892 60.6642 24.3231 55.8633 17.4433C51.04 10.5312 44.2344 8.60018 41.6872 8.02825L31.7983 52.0696ZM14.7727 30.5977V30.5994H59.9107V30.5977H14.7727Z" fill="#008183" mask="url(#path-2-inside-1_572_6313)"/>
<mask id="path-4-inside-2_572_6313" fill="white">
<path d="M39.9583 20.1808C39.3047 19.4013 38.3931 18.4883 37.393 17.6132C36.3929 16.7381 35.3495 15.9405 34.4587 15.3686C32.9406 14.3947 32.2042 14.2826 31.7823 14.2826H17.1858C15.8881 14.2826 14.8315 15.2071 14.8315 16.3426V38.5905C14.8315 39.726 15.8881 40.6505 17.1858 40.6505H38.8452C40.1428 40.6505 41.1994 39.726 41.1994 38.5905V22.5226C41.1994 22.1534 41.0714 21.509 39.9583 20.1808ZM36.0596 18.78C36.9636 19.571 37.6718 20.2829 38.1954 20.8746H33.6639V16.9111C34.34 17.3693 35.1555 17.9889 36.0577 18.78H36.0596ZM39.316 38.5905C39.316 38.8146 39.1013 39.0025 38.8452 39.0025H17.1858C16.9316 39.0025 16.715 38.8146 16.715 38.5905V16.3426C16.715 16.1201 16.9316 15.9306 17.1858 15.9306H31.7823V21.6986C31.7823 22.1534 32.2042 22.5226 32.724 22.5226H39.316V38.5905Z"/>
</mask>
<path d="M39.9583 20.1808C39.3047 19.4013 38.3931 18.4883 37.393 17.6132C36.3929 16.7381 35.3495 15.9405 34.4587 15.3686C32.9406 14.3947 32.2042 14.2826 31.7823 14.2826H17.1858C15.8881 14.2826 14.8315 15.2071 14.8315 16.3426V38.5905C14.8315 39.726 15.8881 40.6505 17.1858 40.6505H38.8452C40.1428 40.6505 41.1994 39.726 41.1994 38.5905V22.5226C41.1994 22.1534 41.0714 21.509 39.9583 20.1808ZM36.0596 18.78C36.9636 19.571 37.6718 20.2829 38.1954 20.8746H33.6639V16.9111C34.34 17.3693 35.1555 17.9889 36.0577 18.78H36.0596ZM39.316 38.5905C39.316 38.8146 39.1013 39.0025 38.8452 39.0025H17.1858C16.9316 39.0025 16.715 38.8146 16.715 38.5905V16.3426C16.715 16.1201 16.9316 15.9306 17.1858 15.9306H31.7823V21.6986C31.7823 22.1534 32.2042 22.5226 32.724 22.5226H39.316V38.5905Z" fill="black"/>
<path d="M34.4587 15.3686L46.6503 -3.62406L46.646 -3.62682L34.4587 15.3686ZM36.0596 18.78L50.9213 1.79508L44.5395 -3.78901H36.0596V18.78ZM38.1954 20.8746V43.4435H88.3069L55.0962 5.91733L38.1954 20.8746ZM33.6639 20.8746H11.0949V43.4435H33.6639V20.8746ZM33.6639 16.9111L46.3236 -1.77277L11.0949 -25.6429V16.9111H33.6639ZM36.0577 18.78L21.1784 35.7495L27.5644 41.3489H36.0577V18.78ZM31.7823 15.9306H54.3513V-6.63839H31.7823V15.9306ZM39.316 22.5226H61.885V-0.0464144H39.316V22.5226ZM57.2529 5.68063C55.672 3.79507 53.8865 2.05606 52.2548 0.628304L22.5313 34.5981C22.5974 34.6559 22.6592 34.712 22.7144 34.7635C22.7699 34.8153 22.8116 34.8561 22.8383 34.8828C22.8658 34.9104 22.8677 34.9133 22.8456 34.8894C22.8338 34.8767 22.813 34.8539 22.7838 34.8208C22.7548 34.788 22.7143 34.7413 22.6636 34.6809L57.2529 5.68063ZM52.2548 0.628304C50.6108 -0.810178 48.6753 -2.32422 46.6503 -3.62406L22.267 34.3613C22.1728 34.3008 22.1234 34.2659 22.1188 34.2627C22.1125 34.2582 22.1319 34.2718 22.1743 34.3043C22.2651 34.3736 22.3925 34.4766 22.5313 34.5981L52.2548 0.628304ZM46.646 -3.62682C42.9973 -5.96783 38.0206 -8.28638 31.7823 -8.28638V36.8516C29.4857 36.8516 27.2453 36.4614 25.2336 35.7552C23.5391 35.1603 22.504 34.5133 22.2713 34.3641L46.646 -3.62682ZM31.7823 -8.28638H17.1858V36.8516H31.7823V-8.28638ZM17.1858 -8.28638C6.34871 -8.28638 -7.73743 0.00605965 -7.73743 16.3426H37.4005C37.4005 30.4082 25.4276 36.8516 17.1858 36.8516V-8.28638ZM-7.73743 16.3426V38.5905H37.4005V16.3426H-7.73743ZM-7.73743 38.5905C-7.73743 54.927 6.34871 63.2195 17.1858 63.2195V18.0815C25.4276 18.0815 37.4005 24.5249 37.4005 38.5905H-7.73743ZM17.1858 63.2195H38.8452V18.0815H17.1858V63.2195ZM38.8452 63.2195C49.6823 63.2195 63.7684 54.927 63.7684 38.5905H18.6305C18.6305 24.5249 30.6034 18.0815 38.8452 18.0815V63.2195ZM63.7684 38.5905V22.5226H18.6305V38.5905H63.7684ZM63.7684 22.5226C63.7684 14.5459 59.9203 8.86371 57.2564 5.68486L22.6601 34.6767C22.4316 34.404 21.4268 33.1806 20.4811 31.1182C19.9769 30.0184 19.4779 28.6565 19.1244 27.0563C18.7571 25.3938 18.6305 23.8529 18.6305 22.5226H63.7684ZM21.1978 35.7648C21.3242 35.8755 21.3959 35.9447 21.4175 35.9661C21.4278 35.9762 21.4227 35.9715 21.4034 35.9512C21.3843 35.9311 21.3474 35.8915 21.2945 35.8318L55.0962 5.91733C53.8629 4.52375 52.4585 3.14012 50.9213 1.79508L21.1978 35.7648ZM38.1954 -1.69441H33.6639V43.4435H38.1954V-1.69441ZM56.2328 20.8746V16.9111H11.0949V20.8746H56.2328ZM21.0041 35.5951C20.9235 35.5404 20.9067 35.5253 20.9467 35.5563C20.9848 35.5858 21.0642 35.6494 21.1784 35.7495L50.937 1.81045C49.374 0.43996 47.8201 -0.758783 46.3236 -1.77277L21.0041 35.5951ZM36.0577 41.3489H36.0596V-3.78901H36.0577V41.3489ZM16.747 38.5905C16.747 23.6136 29.5619 16.4335 38.8452 16.4335V61.5715C48.6407 61.5715 61.885 54.0157 61.885 38.5905H16.747ZM38.8452 16.4335H17.1858V61.5715H38.8452V16.4335ZM17.1858 16.4335C26.4094 16.4335 39.2839 23.5597 39.2839 38.5905H-5.85401C-5.85401 54.0695 7.45373 61.5715 17.1858 61.5715V16.4335ZM39.2839 38.5905V16.3426H-5.85401V38.5905H39.2839ZM39.2839 16.3426C39.2839 31.3212 26.471 38.4996 17.1858 38.4996V-6.63839C7.39213 -6.63839 -5.85401 0.919047 -5.85401 16.3426H39.2839ZM17.1858 38.4996H31.7823V-6.63839H17.1858V38.4996ZM9.21336 15.9306V21.6986H54.3513V15.9306H9.21336ZM9.21336 21.6986C9.21336 37.3545 22.6648 45.0915 32.724 45.0915V-0.0464144C41.7436 -0.0464144 54.3513 6.95235 54.3513 21.6986H9.21336ZM32.724 45.0915H39.316V-0.0464144H32.724V45.0915ZM16.747 22.5226V38.5905H61.885V22.5226H16.747Z" fill="#008183" mask="url(#path-4-inside-2_572_6313)"/>
</svg>
