<svg width="12" height="11" viewBox="0 0 12 11" fill="none" xmlns="http://www.w3.org/2000/svg">
<path d="M1.13479 9.6077C0.871118 9.87137 0.858562 10.3422 1.14107 10.6184C1.4173 10.8947 1.88814 10.8884 2.15181 10.6247L5.99389 6.77637L9.84224 10.6247C10.1122 10.8947 10.5768 10.8947 10.853 10.6184C11.1229 10.3359 11.1292 9.87765 10.853 9.6077L7.01091 5.75935L10.853 1.91727C11.1292 1.64732 11.1292 1.18276 10.853 0.906529C10.5705 0.636579 10.1122 0.630301 9.84224 0.900251L5.99389 4.7486L2.15181 0.900251C1.88814 0.636579 1.41102 0.624023 1.14107 0.906529C0.86484 1.18276 0.871118 1.6536 1.13479 1.91727L4.98314 5.75935L1.13479 9.6077Z" fill="#1A0F91"/>
</svg>
