<svg width="40" height="40" viewBox="0 0 40 40" fill="none" xmlns="http://www.w3.org/2000/svg">
<rect width="40" height="40" rx="20" fill="url(#paint0_linear_144_4985)"/>
<path d="M23.1425 12.5H16.8575C14.1275 12.5 12.5 14.1275 12.5 16.8575V23.135C12.5 25.8725 14.1275 27.5 16.8575 27.5H23.135C25.865 27.5 27.4925 25.8725 27.4925 23.1425V16.8575C27.5 14.1275 25.8725 12.5 23.1425 12.5ZM22.8125 22.8125H17.1875C16.88 22.8125 16.625 22.5575 16.625 22.25C16.625 21.9425 16.88 21.6875 17.1875 21.6875H22.8125C23.12 21.6875 23.375 21.9425 23.375 22.25C23.375 22.5575 23.12 22.8125 22.8125 22.8125ZM22.8125 18.3125H17.1875C16.88 18.3125 16.625 18.0575 16.625 17.75C16.625 17.4425 16.88 17.1875 17.1875 17.1875H22.8125C23.12 17.1875 23.375 17.4425 23.375 17.75C23.375 18.0575 23.12 18.3125 22.8125 18.3125Z" fill="#008183"/>
<defs>
<linearGradient id="paint0_linear_144_4985" x1="20" y1="0" x2="20" y2="40" gradientUnits="userSpaceOnUse">
<stop stop-color="#3C5AF6" stop-opacity="0.11"/>
<stop offset="1" stop-color="#3C5AF6" stop-opacity="0"/>
</linearGradient>
</defs>
</svg>
