<svg width="25" height="24" viewBox="0 0 25 24" fill="none" xmlns="http://www.w3.org/2000/svg">
<path d="M12.6419 12.78C12.5719 12.77 12.4819 12.77 12.4019 12.78C10.6419 12.72 9.24194 11.28 9.24194 9.51001C9.24194 7.70001 10.7019 6.23001 12.5219 6.23001C14.3319 6.23001 15.8019 7.70001 15.8019 9.51001C15.7919 11.28 14.4019 12.72 12.6419 12.78Z" stroke="currentColor" stroke-width="1.5" stroke-linecap="round" stroke-linejoin="round"/>
<path d="M19.262 19.38C17.482 21.01 15.122 22 12.522 22C9.92198 22 7.56198 21.01 5.78198 19.38C5.88198 18.44 6.48198 17.52 7.55198 16.8C10.292 14.98 14.772 14.98 17.492 16.8C18.562 17.52 19.162 18.44 19.262 19.38Z" stroke="currentColor" stroke-width="1.5" stroke-linecap="round" stroke-linejoin="round"/>
<path d="M12.522 22C18.0448 22 22.522 17.5228 22.522 12C22.522 6.47715 18.0448 2 12.522 2C6.99913 2 2.52197 6.47715 2.52197 12C2.52197 17.5228 6.99913 22 12.522 22Z" stroke="currentColor" stroke-width="1.5" stroke-linecap="round" stroke-linejoin="round"/>
</svg>
