<svg width="25" height="24" viewBox="0 0 25 24" fill="none" xmlns="http://www.w3.org/2000/svg">
<path d="M19.3219 7.91998V13.07C19.3219 16.15 17.5619 17.47 14.9219 17.47H6.13193C5.68193 17.47 5.25193 17.43 4.85193 17.34C4.60193 17.3 4.36194 17.23 4.14194 17.15C2.64194 16.59 1.73193 15.29 1.73193 13.07V7.91998C1.73193 4.83998 3.49193 3.52002 6.13193 3.52002H14.9219C17.1619 3.52002 18.7719 4.47001 19.2019 6.64001C19.2719 7.04001 19.3219 7.44998 19.3219 7.91998Z" stroke="currentColor" stroke-width="1.5" stroke-miterlimit="10" stroke-linecap="round" stroke-linejoin="round"/>
<path d="M22.323 10.9201V16.0701C22.323 19.1501 20.563 20.4701 17.923 20.4701H9.13303C8.39303 20.4701 7.72304 20.3701 7.14304 20.1501C5.95304 19.7101 5.14303 18.8001 4.85303 17.3401C5.25303 17.4301 5.68303 17.4701 6.13303 17.4701H14.923C17.563 17.4701 19.323 16.1501 19.323 13.0701V7.9201C19.323 7.4501 19.283 7.03014 19.203 6.64014C21.103 7.04014 22.323 8.38011 22.323 10.9201Z" stroke="currentColor" stroke-width="1.5" stroke-miterlimit="10" stroke-linecap="round" stroke-linejoin="round"/>
<path d="M10.5204 13.1399C11.9784 13.1399 13.1604 11.9579 13.1604 10.4999C13.1604 9.04185 11.9784 7.85986 10.5204 7.85986C9.06235 7.85986 7.88037 9.04185 7.88037 10.4999C7.88037 11.9579 9.06235 13.1399 10.5204 13.1399Z" stroke="currentColor" stroke-width="1.5" stroke-miterlimit="10" stroke-linecap="round" stroke-linejoin="round"/>
<path d="M4.802 8.29999V12.7" stroke="currentColor" stroke-width="1.5" stroke-miterlimit="10" stroke-linecap="round" stroke-linejoin="round"/>
<path d="M16.2437 8.30029V12.7003" stroke="currentColor" stroke-width="1.5" stroke-miterlimit="10" stroke-linecap="round" stroke-linejoin="round"/>
</svg>
