<svg width="41" height="40" viewBox="0 0 41 40" fill="none" xmlns="http://www.w3.org/2000/svg">
<rect x="0.5" width="40" height="40" rx="20" fill="url(#paint0_linear_141_89352)"/>
<path d="M25 12.5H16C14.755 12.5 13.75 13.4975 13.75 14.7275V22.91C13.75 24.14 14.755 25.1375 16 25.1375H16.57C17.17 25.1375 17.74 25.37 18.16 25.79L19.4425 27.0575C20.0275 27.635 20.98 27.635 21.565 27.0575L22.8475 25.79C23.2675 25.37 23.845 25.1375 24.4375 25.1375H25C26.245 25.1375 27.25 24.14 27.25 22.91V14.7275C27.25 13.4975 26.245 12.5 25 12.5ZM19.285 20.7575C19.5925 20.7575 19.8475 21.0125 19.8475 21.32C19.8475 21.6275 19.5925 21.8825 19.285 21.8825H17.275C16.945 21.8825 16.6375 21.725 16.4425 21.455C16.255 21.2 16.21 20.885 16.3 20.585C16.5625 19.7825 17.2075 19.3475 17.7775 18.9575C18.3775 18.5525 18.715 18.2975 18.715 17.8625C18.715 17.4725 18.4 17.1575 18.01 17.1575C17.62 17.1575 17.3125 17.48 17.3125 17.87C17.3125 18.1775 17.0575 18.4325 16.75 18.4325C16.4425 18.4325 16.1875 18.1775 16.1875 17.87C16.1875 16.865 17.005 16.04 18.0175 16.04C19.03 16.04 19.8475 16.8575 19.8475 17.87C19.8475 18.9275 19.0525 19.4675 18.415 19.9025C18.0175 20.1725 17.6425 20.4275 17.455 20.765H19.285V20.7575ZM24.25 20.81H24.0925V21.3275C24.0925 21.635 23.8375 21.89 23.53 21.89C23.2225 21.89 22.9675 21.635 22.9675 21.3275V20.81H21.4975C21.4975 20.81 21.4975 20.81 21.49 20.81C21.1225 20.81 20.785 20.615 20.5975 20.3C20.41 19.9775 20.41 19.58 20.5975 19.265C21.1075 18.3875 21.7 17.39 22.24 16.52C22.48 16.1375 22.9375 15.965 23.365 16.085C23.7925 16.2125 24.0925 16.6025 24.085 17.0525V19.6925H24.25C24.5575 19.6925 24.8125 19.9475 24.8125 20.255C24.8125 20.5625 24.5575 20.81 24.25 20.81Z" fill="#008183"/>
<path d="M22.9673 19.685V17.48C22.5248 18.2 22.0673 18.9725 21.6548 19.6775H22.9673V19.685Z" fill="#008183"/>
<defs>
<linearGradient id="paint0_linear_141_89352" x1="20.5" y1="0" x2="20.5" y2="40" gradientUnits="userSpaceOnUse">
<stop stop-color="#3C5AF6" stop-opacity="0.11"/>
<stop offset="1" stop-color="#3C5AF6" stop-opacity="0"/>
</linearGradient>
</defs>
</svg>
