<svg width="40" height="41" viewBox="0 0 40 41" fill="none" xmlns="http://www.w3.org/2000/svg">
<circle cx="20" cy="20.6353" r="19.5" stroke="#008183"/>
<path d="M26.3999 21.0353C26.3999 19.9313 27.2959 19.0353 28.3999 19.0353V18.2353C28.3999 15.0353 27.5999 14.2353 24.3999 14.2353H16.3999C13.1999 14.2353 12.3999 15.0353 12.3999 18.2353V18.6353C13.5039 18.6353 14.3999 19.5313 14.3999 20.6353C14.3999 21.7393 13.5039 22.6353 12.3999 22.6353V23.0353C12.3999 26.2353 13.1999 27.0353 16.3999 27.0353H24.3999C27.5999 27.0353 28.3999 26.2353 28.3999 23.0353C27.2959 23.0353 26.3999 22.1393 26.3999 21.0353Z" stroke="#008183" stroke-width="1.5" stroke-linecap="round" stroke-linejoin="round"/>
<path d="M18 22.8353L22.8 18.0353" stroke="#008183" stroke-width="1.5" stroke-linecap="round" stroke-linejoin="round"/>
<path d="M22.7955 22.8353H22.8027" stroke="#008183" stroke-width="2" stroke-linecap="round" stroke-linejoin="round"/>
<path d="M17.9952 18.4353H18.0024" stroke="#008183" stroke-width="2" stroke-linecap="round" stroke-linejoin="round"/>
</svg>
