<svg width="32" height="32" viewBox="0 0 32 32" fill="none" xmlns="http://www.w3.org/2000/svg">
<rect width="32" height="32" rx="16" fill="#DCF9FA"/>
<path fill-rule="evenodd" clip-rule="evenodd" d="M15.5902 15.4189C15.8179 15.1912 16.1873 15.1912 16.415 15.4189L18.7482 17.7521C18.976 17.9799 18.976 18.3492 18.7482 18.577C18.5204 18.8048 18.1511 18.8048 17.9233 18.577L16.0026 16.6563L14.0819 18.577C13.8541 18.8048 13.4848 18.8048 13.257 18.577C13.0292 18.3492 13.0292 17.9799 13.257 17.7521L15.5902 15.4189Z" fill="#008183"/>
<path fill-rule="evenodd" clip-rule="evenodd" d="M16.0027 15.2481C16.3249 15.2481 16.586 15.5093 16.586 15.8314V21.0809C16.586 21.4031 16.3249 21.6642 16.0027 21.6642C15.6806 21.6642 15.4194 21.4031 15.4194 21.0809V15.8314C15.4194 15.5093 15.6806 15.2481 16.0027 15.2481Z" fill="#008183"/>
<path fill-rule="evenodd" clip-rule="evenodd" d="M14.0563 10.0036C14.8492 9.97434 15.6385 10.1253 16.3648 10.445C17.091 10.7647 17.7353 11.2449 18.2492 11.8495C18.6642 12.3377 18.9855 12.8967 19.1984 13.4983H19.5026C20.2801 13.4988 21.0354 13.7582 21.6491 14.2356C22.2628 14.713 22.7001 15.3812 22.8919 16.1347C23.0837 16.8882 23.019 17.6842 22.7082 18.3969C22.3974 19.1096 21.8581 19.6985 21.1755 20.0707C20.8926 20.2249 20.5383 20.1206 20.3841 19.8378C20.23 19.5549 20.3342 19.2007 20.6171 19.0465C21.0722 18.7983 21.4317 18.4057 21.6389 17.9306C21.8461 17.4554 21.8892 16.9248 21.7613 16.4225C21.6335 15.9201 21.342 15.4747 20.9328 15.1564C20.5237 14.8381 20.0202 14.6652 19.5018 14.6648H18.7673C18.5014 14.6648 18.2691 14.485 18.2026 14.2276C18.0481 13.63 17.7602 13.0753 17.3604 12.6051C16.9607 12.1348 16.4596 11.7614 15.8947 11.5127C15.3299 11.264 14.716 11.1466 14.0992 11.1693C13.4825 11.1921 12.8789 11.3543 12.3339 11.6439C11.7888 11.9334 11.3166 12.3428 10.9525 12.8412C10.5885 13.3395 10.3421 13.9139 10.2321 14.5212C10.122 15.1285 10.151 15.7528 10.3169 16.3473C10.4828 16.9417 10.7814 17.4908 11.19 17.9533C11.4034 18.1947 11.3806 18.5633 11.1392 18.7766C10.8978 18.9899 10.5292 18.9672 10.3159 18.7258C9.79043 18.1312 9.40661 17.4252 9.19328 16.6609C8.97994 15.8966 8.94265 15.0939 9.0842 14.3131C9.22574 13.5323 9.54245 12.7938 10.0105 12.1531C10.4786 11.5123 11.0858 10.986 11.7865 10.6137C12.4873 10.2414 13.2633 10.0328 14.0563 10.0036Z" fill="#008183"/>
</svg>
