<svg width="40" height="40" viewBox="0 0 40 40" fill="none" xmlns="http://www.w3.org/2000/svg">
<rect width="40" height="40" rx="20" fill="url(#paint0_linear_777_5824)"/>
<path d="M20 20C22.0711 20 23.75 18.3211 23.75 16.25C23.75 14.1789 22.0711 12.5 20 12.5C17.9289 12.5 16.25 14.1789 16.25 16.25C16.25 18.3211 17.9289 20 20 20Z" fill="#008183"/>
<path d="M20.0001 21.875C16.2426 21.875 13.1826 24.395 13.1826 27.5C13.1826 27.71 13.3476 27.875 13.5576 27.875H26.4426C26.6526 27.875 26.8176 27.71 26.8176 27.5C26.8176 24.395 23.7576 21.875 20.0001 21.875Z" fill="#008183"/>
<defs>
<linearGradient id="paint0_linear_777_5824" x1="20" y1="0" x2="20" y2="40" gradientUnits="userSpaceOnUse">
<stop stop-color="#3C5AF6" stop-opacity="0.11"/>
<stop offset="1" stop-color="#3C5AF6" stop-opacity="0"/>
</linearGradient>
</defs>
</svg>
