<svg width="40" height="40" viewBox="0 0 40 40" fill="none" xmlns="http://www.w3.org/2000/svg">
<rect width="40" height="40" rx="20" fill="#DCF9FA"/>
<path d="M14.1586 21.6899L13.0502 20.5815C12.5982 20.1294 12.5982 19.3857 13.0502 18.9336L14.1586 17.8252C14.3482 17.6357 14.5013 17.2638 14.5013 17.0013V15.4336C14.5013 14.7919 15.0263 14.2669 15.6679 14.2669H17.2357C17.4982 14.2669 17.87 14.1138 18.0596 13.9242L19.1679 12.8159C19.62 12.3638 20.3638 12.3638 20.8159 12.8159L21.9242 13.9242C22.1138 14.1138 22.4857 14.2669 22.7482 14.2669H24.3159C24.9575 14.2669 25.4825 14.7919 25.4825 15.4336V17.0013C25.4825 17.2638 25.6357 17.6357 25.8252 17.8252L26.9336 18.9336C27.3857 19.3857 27.3857 20.1294 26.9336 20.5815L25.8252 21.6899C25.6357 21.8794 25.4825 22.2513 25.4825 22.5138V24.0815C25.4825 24.7231 24.9575 25.2482 24.3159 25.2482H22.7482C22.4857 25.2482 22.1138 25.4013 21.9242 25.5909L20.8159 26.6992C20.3638 27.1513 19.62 27.1513 19.1679 26.6992L18.0596 25.5909C17.87 25.4013 17.4982 25.2482 17.2357 25.2482H15.6679C15.0263 25.2482 14.5013 24.7231 14.5013 24.0815V22.5138C14.5013 22.244 14.3482 21.8722 14.1586 21.6899Z" stroke="#A70057" stroke-width="1.5" stroke-linecap="round" stroke-linejoin="round"/>
<path d="M17.8125 21.9375L22.1875 17.5625" stroke="#A70057" stroke-width="1.5" stroke-linecap="round" stroke-linejoin="round"/>
<path d="M21.819 21.573H21.8255" stroke="#A70057" stroke-width="2" stroke-linecap="round" stroke-linejoin="round"/>
<path d="M18.1731 17.9271H18.1796" stroke="#A70057" stroke-width="2" stroke-linecap="round" stroke-linejoin="round"/>
</svg>
