<svg width="55" height="56" viewBox="0 0 55 56" fill="none" xmlns="http://www.w3.org/2000/svg">
<circle cx="27.5334" cy="28" r="26.9666" stroke="#008183"/>
<path d="M29.1813 24.704H22.5894" stroke="#008183" stroke-width="1.5" stroke-linecap="round" stroke-linejoin="round"/>
<path d="M39.0693 26.8683V29.1317C39.0693 29.7359 38.5858 30.2303 37.9706 30.2522H35.8172C34.6306 30.2522 33.543 29.3843 33.4441 28.1978C33.3782 27.5056 33.6418 26.8574 34.1033 26.4069C34.5098 25.9894 35.0701 25.7478 35.6854 25.7478H37.9706C38.5858 25.7697 39.0693 26.2641 39.0693 26.8683Z" stroke="#008183" stroke-width="1.5" stroke-linecap="round" stroke-linejoin="round"/>
<path d="M34.1032 26.4069C33.6418 26.8574 33.3781 27.5056 33.444 28.1978C33.5429 29.3843 34.6306 30.2522 35.8171 30.2522H37.9705V31.8453C37.9705 35.1413 35.7732 37.3386 32.4772 37.3386H22.5893C19.2933 37.3386 17.0959 35.1413 17.0959 31.8453V24.1547C17.0959 21.1663 18.8978 19.0789 21.6993 18.7273C21.985 18.6833 22.2816 18.6614 22.5893 18.6614H32.4772C32.7629 18.6614 33.0375 18.6724 33.3012 18.7163C36.1358 19.0459 37.9705 21.1444 37.9705 24.1547V25.7478H35.6853C35.07 25.7478 34.5097 25.9894 34.1032 26.4069Z" stroke="#008183" stroke-width="1.5" stroke-linecap="round" stroke-linejoin="round"/>
</svg>
