<svg width="14" height="15" viewBox="0 0 14 15" fill="none" xmlns="http://www.w3.org/2000/svg">
<path d="M6.27728 13.9193C6.27728 14.2922 6.60134 14.634 6.99642 14.6296C7.38707 14.6296 7.71557 14.2922 7.71557 13.9193L7.71113 8.48139H13.1535C13.5353 8.48139 13.8638 8.15289 13.8638 7.76225C13.8549 7.3716 13.5353 7.0431 13.1491 7.04754L7.71113 7.0431L7.71113 1.60959C7.71557 1.22338 7.38707 0.894886 6.99642 0.894885C6.60578 0.903764 6.27728 1.22338 6.27728 1.60515L6.27728 7.04754L0.839327 7.0431C0.466439 7.0431 0.120186 7.3716 0.129064 7.76225C0.129064 8.15289 0.466439 8.48139 0.839327 8.48139L6.27728 8.47695L6.27728 13.9193Z" fill="#1A0F91"/>
</svg>
