<svg width="35" height="34" viewBox="0 0 35 34" fill="none" xmlns="http://www.w3.org/2000/svg">
<path d="M31.9438 27.6249H30.3501V13.1568C28.3494 13.6286 26.4911 12.6776 25.4552 11.001C24.5435 12.4683 23.0167 13.2801 21.5122 13.2801C19.8845 13.2801 18.4469 12.3568 17.6012 10.9553C16.7554 12.3557 15.3178 13.2801 13.6901 13.2801C12.1909 13.2801 10.662 12.4747 9.74716 11.001C8.70697 12.6808 6.84866 13.6286 4.8501 13.1568V27.6249H3.25635C2.9631 27.6249 2.7251 27.8629 2.7251 28.1561V29.2186C2.7251 29.5119 2.9631 29.7499 3.25635 29.7499H31.9438C32.2371 29.7499 32.4751 29.5119 32.4751 29.2186V28.1561C32.4751 27.8629 32.2371 27.6249 31.9438 27.6249ZM27.1626 23.9061C27.1626 24.1994 26.9246 24.4374 26.6313 24.4374H8.56885C8.2756 24.4374 8.0376 24.1994 8.0376 23.9061V15.4061C8.0376 15.1129 8.2756 14.8749 8.56885 14.8749H26.6313C26.9246 14.8749 27.1626 15.1129 27.1626 15.4061V23.9061Z" fill="#306CB5"/>
<path d="M16.8032 4.25V8.04419C16.8032 10.0534 15.406 11.6875 13.689 11.6875C11.9827 11.6875 10.4569 10.0725 10.5727 8.09094C10.6184 7.29831 10.8458 5.47719 11.0062 4.25H16.8032ZM24.194 4.25C24.3544 5.47719 24.5807 7.29831 24.6275 8.09094C24.7433 10.0725 23.2175 11.6875 21.5112 11.6875C19.7942 11.6875 18.397 10.0534 18.397 8.04419V4.25H24.194ZM29.3343 11.6875C27.866 11.6875 26.3689 10.5028 26.218 7.99744C26.1723 7.19631 25.962 5.48781 25.8015 4.25H30.6816C31.4689 5.66313 32.3763 7.46194 32.4549 8.13556C32.6791 10.0778 31.0343 11.6875 29.3343 11.6875ZM2.74635 8.13556C2.82391 7.46194 3.73129 5.66313 4.5186 4.25H9.39866C9.23822 5.48781 9.02785 7.19631 8.98216 7.99744C8.83129 10.5028 7.33422 11.6875 5.86585 11.6875C4.16585 11.6875 2.5211 10.0778 2.74635 8.13556Z" fill="#306CB5"/>
</svg>
