<svg width="35" height="34" viewBox="0 0 35 34" fill="none" xmlns="http://www.w3.org/2000/svg">
<path d="M17.0009 34C26.3897 34 34.0009 26.3888 34.0009 17C34.0009 7.61116 26.3897 0 17.0009 0C7.61201 0 0.000854492 7.61116 0.000854492 17C0.000854492 26.3888 7.61201 34 17.0009 34Z" fill="#306CB5"/>
<path d="M12.0009 20.8009C12.0009 22.6284 13.4034 24.1018 15.1459 24.1018H18.7017C20.2175 24.1018 21.45 22.8126 21.45 21.2259C21.45 19.4976 20.6992 18.8884 19.58 18.4918L13.8709 16.5084C12.7517 16.1118 12.0009 15.5026 12.0009 13.7743C12.0009 12.1876 13.2334 10.8984 14.7492 10.8984H18.305C20.0475 10.8984 21.45 12.3718 21.45 14.1993" stroke="white" stroke-width="1.5" stroke-linecap="round" stroke-linejoin="round"/>
<path d="M16.7157 9V26" stroke="white" stroke-width="1.5" stroke-linecap="round" stroke-linejoin="round"/>
</svg>
