<svg width="35" height="34" viewBox="0 0 35 34" fill="none" xmlns="http://www.w3.org/2000/svg">
<path d="M24.8828 2.83331H10.7161C6.80615 2.83331 3.63281 5.99248 3.63281 9.88831V18.36V19.7766C3.63281 23.6725 6.80615 26.8316 10.7161 26.8316H12.8411C13.2236 26.8316 13.7336 27.0866 13.9745 27.3983L16.0995 30.2175C17.0345 31.4641 18.5645 31.4641 19.4995 30.2175L21.6245 27.3983C21.8936 27.0441 22.3186 26.8316 22.7578 26.8316H24.8828C28.7928 26.8316 31.9661 23.6725 31.9661 19.7766V9.88831C31.9661 5.99248 28.7928 2.83331 24.8828 2.83331ZM19.2161 19.4791H10.7161C10.1353 19.4791 9.65365 18.9975 9.65365 18.4166C9.65365 17.8358 10.1353 17.3541 10.7161 17.3541H19.2161C19.797 17.3541 20.2786 17.8358 20.2786 18.4166C20.2786 18.9975 19.797 19.4791 19.2161 19.4791ZM24.8828 12.3958H10.7161C10.1353 12.3958 9.65365 11.9141 9.65365 11.3333C9.65365 10.7525 10.1353 10.2708 10.7161 10.2708H24.8828C25.4636 10.2708 25.9453 10.7525 25.9453 11.3333C25.9453 11.9141 25.4636 12.3958 24.8828 12.3958Z" fill="#306CB5"/>
</svg>
