<svg width="19" height="19" viewBox="0 0 19 19" fill="none" xmlns="http://www.w3.org/2000/svg">
<path d="M12.06 8.375V5C12.06 4.25408 11.7637 3.53871 11.2362 3.01126C10.7088 2.48382 9.99341 2.1875 9.24749 2.1875C8.50156 2.1875 7.78619 2.48382 7.25875 3.01126C6.7313 3.53871 6.43499 4.25408 6.43499 5V8.375M14.952 6.88025L15.8992 15.8802C15.9517 16.379 15.5617 16.8125 15.06 16.8125H3.43499C3.31664 16.8126 3.19959 16.7879 3.09145 16.7398C2.9833 16.6917 2.88647 16.6215 2.80725 16.5336C2.72803 16.4456 2.6682 16.342 2.63163 16.2295C2.59506 16.1169 2.58257 15.9979 2.59499 15.8802L3.54299 6.88025C3.56485 6.67292 3.66271 6.48103 3.81767 6.34157C3.97264 6.20211 4.17376 6.12496 4.38224 6.125H14.1127C14.5447 6.125 14.907 6.45125 14.952 6.88025ZM6.71624 8.375C6.71624 8.44959 6.6866 8.52113 6.63386 8.57387C6.58112 8.62662 6.50958 8.65625 6.43499 8.65625C6.36039 8.65625 6.28886 8.62662 6.23611 8.57387C6.18337 8.52113 6.15374 8.44959 6.15374 8.375C6.15374 8.30041 6.18337 8.22887 6.23611 8.17613C6.28886 8.12338 6.36039 8.09375 6.43499 8.09375C6.50958 8.09375 6.58112 8.12338 6.63386 8.17613C6.6866 8.22887 6.71624 8.30041 6.71624 8.375ZM12.3412 8.375C12.3412 8.44959 12.3116 8.52113 12.2589 8.57387C12.2061 8.62662 12.1346 8.65625 12.06 8.65625C11.9854 8.65625 11.9139 8.62662 11.8611 8.57387C11.8084 8.52113 11.7787 8.44959 11.7787 8.375C11.7787 8.30041 11.8084 8.22887 11.8611 8.17613C11.9139 8.12338 11.9854 8.09375 12.06 8.09375C12.1346 8.09375 12.2061 8.12338 12.2589 8.17613C12.3116 8.22887 12.3412 8.30041 12.3412 8.375Z" stroke="#306CB5" stroke-width="1.5" stroke-linecap="round" stroke-linejoin="round"/>
</svg>
