<svg width="13" height="14" viewBox="0 0 13 14" fill="none" xmlns="http://www.w3.org/2000/svg">
<path d="M8.81956 6.31291V3.52983C8.81956 2.91473 8.57522 2.32483 8.14028 1.88989C7.70534 1.45495 7.11543 1.2106 6.50033 1.2106C5.88523 1.2106 5.29533 1.45495 4.86039 1.88989C4.42545 2.32483 4.1811 2.91473 4.1811 3.52983V6.31291M11.2044 5.08032L11.9855 12.5019C12.0288 12.9131 11.7072 13.2706 11.2934 13.2706H1.70726C1.60967 13.2707 1.51315 13.2503 1.42397 13.2107C1.33479 13.171 1.25494 13.1131 1.18962 13.0406C1.12429 12.9681 1.07495 12.8826 1.04479 12.7898C1.01464 12.697 1.00434 12.5989 1.01458 12.5019L1.79632 5.08032C1.81435 4.90935 1.89504 4.75111 2.02283 4.63611C2.15062 4.52111 2.31646 4.45749 2.48837 4.45752H10.5123C10.8685 4.45752 11.1672 4.72656 11.2044 5.08032ZM4.41303 6.31291C4.41303 6.37442 4.38859 6.43341 4.3451 6.4769C4.3016 6.5204 4.24261 6.54483 4.1811 6.54483C4.11959 6.54483 4.0606 6.5204 4.01711 6.4769C3.97361 6.43341 3.94918 6.37442 3.94918 6.31291C3.94918 6.2514 3.97361 6.19241 4.01711 6.14892C4.0606 6.10542 4.11959 6.08099 4.1811 6.08099C4.24261 6.08099 4.3016 6.10542 4.3451 6.14892C4.38859 6.19241 4.41303 6.2514 4.41303 6.31291ZM9.05149 6.31291C9.05149 6.37442 9.02705 6.43341 8.98356 6.4769C8.94006 6.5204 8.88107 6.54483 8.81956 6.54483C8.75805 6.54483 8.69906 6.5204 8.65557 6.4769C8.61207 6.43341 8.58764 6.37442 8.58764 6.31291C8.58764 6.2514 8.61207 6.19241 8.65557 6.14892C8.69906 6.10542 8.75805 6.08099 8.81956 6.08099C8.88107 6.08099 8.94006 6.10542 8.98356 6.14892C9.02705 6.19241 9.05149 6.2514 9.05149 6.31291Z" stroke="#306CB5" stroke-linecap="round" stroke-linejoin="round"/>
</svg>
