<svg width="24" height="26" viewBox="0 0 24 26" fill="none" xmlns="http://www.w3.org/2000/svg">
<path d="M16.6875 11.125V5.5C16.6875 4.2568 16.1937 3.06451 15.3146 2.18544C14.4355 1.30636 13.2432 0.8125 12 0.8125C10.7568 0.8125 9.56456 1.30636 8.68548 2.18544C7.8064 3.06451 7.31254 4.2568 7.31254 5.5V11.125M21.5075 8.63375L23.0863 23.6337C23.1738 24.465 22.5238 25.1875 21.6875 25.1875H2.31254C2.1153 25.1877 1.92022 25.1464 1.73998 25.0663C1.55973 24.9862 1.39835 24.8691 1.26632 24.7226C1.13429 24.5761 1.03456 24.4034 0.97361 24.2158C0.91266 24.0282 0.891854 23.8299 0.912542 23.6337L2.49254 8.63375C2.52899 8.2882 2.69207 7.96838 2.95036 7.73595C3.20864 7.50352 3.54383 7.37494 3.89129 7.375H20.1088C20.8288 7.375 21.4325 7.91875 21.5075 8.63375ZM7.78129 11.125C7.78129 11.2493 7.73191 11.3685 7.644 11.4565C7.55609 11.5444 7.43686 11.5938 7.31254 11.5938C7.18822 11.5938 7.06899 11.5444 6.98109 11.4565C6.89318 11.3685 6.84379 11.2493 6.84379 11.125C6.84379 11.0007 6.89318 10.8815 6.98109 10.7935C7.06899 10.7056 7.18822 10.6562 7.31254 10.6562C7.43686 10.6562 7.55609 10.7056 7.644 10.7935C7.73191 10.8815 7.78129 11.0007 7.78129 11.125ZM17.1563 11.125C17.1563 11.2493 17.1069 11.3685 17.019 11.4565C16.9311 11.5444 16.8119 11.5938 16.6875 11.5938C16.5632 11.5938 16.444 11.5444 16.3561 11.4565C16.2682 11.3685 16.2188 11.2493 16.2188 11.125C16.2188 11.0007 16.2682 10.8815 16.3561 10.7935C16.444 10.7056 16.5632 10.6562 16.6875 10.6562C16.8119 10.6562 16.9311 10.7056 17.019 10.7935C17.1069 10.8815 17.1563 11.0007 17.1563 11.125Z" stroke="#306CB5" stroke-width="1.5" stroke-linecap="round" stroke-linejoin="round"/>
</svg>
