<svg width="30" height="30" viewBox="0 0 30 30" fill="none" xmlns="http://www.w3.org/2000/svg">
<g clip-path="url(#clip0_2852_25049)">
<path d="M15 9.32833C11.1585 9.32833 8.04878 12.5867 8.04878 16.6117C8.04878 20.6367 11.1585 23.895 15 23.895C18.8415 23.895 21.9512 20.6367 21.9512 16.6117C21.9512 12.625 18.8415 9.32833 15 9.32833ZM15 22.3617C11.9634 22.3617 9.5122 19.7933 9.5122 16.6117C9.5122 13.43 11.9634 10.8617 15 10.8617C18.0366 10.8617 20.4878 13.43 20.4878 16.6117C20.4878 19.7933 18.0366 22.3617 15 22.3617ZM27.0732 7.795L21.5854 7.83333L19.2805 4.30667C19.1341 4.115 18.9146 4 18.6951 4H11.3049C11.0854 4 10.8659 4.115 10.7195 4.30667L8.41463 7.83333H2.92683C1.31707 7.83333 0 9.175 0 10.8617V23.9333C0 25.62 1.31707 27 2.92683 27H27.0732C28.6829 27 30 25.62 30 23.9333V10.5167C30 8.83 28.6829 7.795 27.0732 7.795ZM28.5366 23.9333C28.5366 24.7767 27.878 25.4667 27.0732 25.4667H2.92683C2.12195 25.4667 1.46341 24.7767 1.46341 23.9333V10.8617C1.46341 10.0183 2.12195 9.36667 2.92683 9.36667H8.78049C9 9.36667 9.21951 9.25167 9.36585 9.06L11.6707 5.53333H18.3293L20.6341 9.06C20.7805 9.25167 21 9.36667 21.2195 9.36667L27.0732 9.32833C27.878 9.32833 28.5366 9.67333 28.5366 10.5167V23.9333Z" fill="#306CB5"/>
<path d="M409.2 -195V310.2H-126V-195H409.2ZM411.6 -197.4H-128.4V312.6H411.6V-197.4Z" fill="#306CB5"/>
</g>
<defs>
<clipPath id="clip0_2852_25049">
<rect width="30" height="30" fill="white"/>
</clipPath>
</defs>
</svg>
