<svg width="40" height="40" viewBox="0 0 40 40" fill="none" xmlns="http://www.w3.org/2000/svg">
<g clip-path="url(#clip0_3546_19231)">
<path d="M20 12.4378C14.878 12.4378 10.7317 16.7822 10.7317 22.1489C10.7317 27.5155 14.878 31.86 20 31.86C25.122 31.86 29.2683 27.5155 29.2683 22.1489C29.2683 16.8333 25.122 12.4378 20 12.4378ZM20 29.8155C15.9512 29.8155 12.6829 26.3911 12.6829 22.1489C12.6829 17.9066 15.9512 14.4822 20 14.4822C24.0488 14.4822 27.3171 17.9066 27.3171 22.1489C27.3171 26.3911 24.0488 29.8155 20 29.8155ZM36.0976 10.3933L28.7805 10.4444L25.7073 5.7422C25.5122 5.48665 25.2195 5.33331 24.9268 5.33331H15.0732C14.7805 5.33331 14.4878 5.48665 14.2927 5.7422L11.2195 10.4444H3.90244C1.7561 10.4444 0 12.2333 0 14.4822V31.9111C0 34.16 1.7561 36 3.90244 36H36.0976C38.2439 36 40 34.16 40 31.9111V14.0222C40 11.7733 38.2439 10.3933 36.0976 10.3933ZM38.0488 31.9111C38.0488 33.0355 37.1707 33.9555 36.0976 33.9555H3.90244C2.82927 33.9555 1.95122 33.0355 1.95122 31.9111V14.4822C1.95122 13.3578 2.82927 12.4889 3.90244 12.4889H11.7073C12 12.4889 12.2927 12.3355 12.4878 12.08L15.561 7.37776H24.439L27.5122 12.08C27.7073 12.3355 28 12.4889 28.2927 12.4889L36.0976 12.4378C37.1707 12.4378 38.0488 12.8978 38.0488 14.0222V31.9111Z" fill="#306CB5"/>
<path d="M545.6 -260V413.6H-168V-260H545.6ZM548.8 -263.2H-171.2V416.8H548.8V-263.2Z" fill="#306CB5"/>
</g>
<defs>
<clipPath id="clip0_3546_19231">
<rect width="40" height="40" fill="white"/>
</clipPath>
</defs>
</svg>
