<svg width="60" height="40" viewBox="0 0 40 31" fill="none" xmlns="http://www.w3.org/2000/svg">
<path d="M20 7.43776C14.878 7.43776 10.7317 11.7822 10.7317 17.1489C10.7317 22.5155 14.878 26.86 20 26.86C25.122 26.86 29.2683 22.5155 29.2683 17.1489C29.2683 11.8333 25.122 7.43776 20 7.43776ZM20 24.8155C15.9512 24.8155 12.6829 21.3911 12.6829 17.1489C12.6829 12.9066 15.9512 9.4822 20 9.4822C24.0488 9.4822 27.3171 12.9066 27.3171 17.1489C27.3171 21.3911 24.0488 24.8155 20 24.8155ZM36.0976 5.39331L28.7805 5.44442L25.7073 0.742201C25.5122 0.486646 25.2195 0.333313 24.9268 0.333313H15.0732C14.7805 0.333313 14.4878 0.486646 14.2927 0.742201L11.2195 5.44442H3.90244C1.7561 5.44442 0 7.23331 0 9.4822V26.9111C0 29.16 1.7561 31 3.90244 31H36.0976C38.2439 31 40 29.16 40 26.9111V9.0222C40 6.77331 38.2439 5.39331 36.0976 5.39331ZM38.0488 26.9111C38.0488 28.0355 37.1707 28.9555 36.0976 28.9555H3.90244C2.82927 28.9555 1.95122 28.0355 1.95122 26.9111V9.4822C1.95122 8.35776 2.82927 7.48887 3.90244 7.48887H11.7073C12 7.48887 12.2927 7.33554 12.4878 7.07998L15.561 2.37776H24.439L27.5122 7.07998C27.7073 7.33554 28 7.48887 28.2927 7.48887L36.0976 7.43776C37.1707 7.43776 38.0488 7.89776 38.0488 9.0222V26.9111Z" fill="#306CB5"/>
</svg>
