<svg width="32" height="32" viewBox="0 0 32 32" fill="none" xmlns="http://www.w3.org/2000/svg">
<rect width="32" height="32" rx="16" fill="#F2F2F2"/>
<path d="M19.7128 20.773L11.2275 12.2877C10.9376 11.9978 10.9376 11.517 11.2275 11.227C11.5174 10.9371 11.9982 10.9371 12.2881 11.227L20.7734 19.7123C21.0633 20.0022 21.0633 20.4831 20.7734 20.773C20.4835 21.0629 20.0027 21.0629 19.7128 20.773Z" fill="#101010"/>
<path d="M11.2266 20.773C10.9367 20.4831 10.9367 20.0022 11.2266 19.7123L19.7119 11.227C20.0018 10.9371 20.4826 10.9371 20.7725 11.227C21.0624 11.517 21.0624 11.9978 20.7725 12.2877L12.2872 20.773C11.9973 21.0629 11.5165 21.0629 11.2266 20.773Z" fill="#101010"/>
</svg>
