<svg width="48" height="48" viewBox="0 0 48 48" fill="none" xmlns="http://www.w3.org/2000/svg">
<rect width="48" height="48" rx="24" fill="white"/>
<rect x="4" y="4" width="40" height="40" rx="20" fill="url(#paint0_linear_2759_38662)"/>
<path d="M27.75 30.5625H20.25C16.9425 30.5625 15.9375 29.5575 15.9375 26.25V25.875C15.9375 25.5675 16.1925 25.3125 16.5 25.3125C17.22 25.3125 17.8125 24.72 17.8125 24C17.8125 23.28 17.22 22.6875 16.5 22.6875C16.1925 22.6875 15.9375 22.4325 15.9375 22.125V21.75C15.9375 18.4425 16.9425 17.4375 20.25 17.4375H27.75C31.0575 17.4375 32.0625 18.4425 32.0625 21.75V22.5C32.0625 22.8075 31.8075 23.0625 31.5 23.0625C30.78 23.0625 30.1875 23.655 30.1875 24.375C30.1875 25.095 30.78 25.6875 31.5 25.6875C31.8075 25.6875 32.0625 25.9425 32.0625 26.25C32.0625 29.5575 31.0575 30.5625 27.75 30.5625ZM17.0625 26.37C17.0775 28.95 17.61 29.4375 20.25 29.4375H27.75C30.255 29.4375 30.8625 28.995 30.93 26.745C29.8575 26.49 29.0625 25.5225 29.0625 24.375C29.0625 23.2275 29.865 22.26 30.9375 22.005V21.75C30.9375 19.0725 30.4275 18.5625 27.75 18.5625H20.25C17.61 18.5625 17.0775 19.05 17.0625 21.63C18.135 21.885 18.9375 22.8525 18.9375 24C18.9375 25.1475 18.135 26.115 17.0625 26.37Z" fill="#306CB5"/>
<path d="M26.2501 26.9102C25.8301 26.9102 25.4926 26.5727 25.4926 26.1602C25.4926 25.7477 25.8301 25.4102 26.2426 25.4102C26.6551 25.4102 26.9926 25.7477 26.9926 26.1602C26.9926 26.5727 26.6701 26.9102 26.2501 26.9102Z" fill="#306CB5"/>
<path d="M21.7501 23.1602C21.3301 23.1602 20.9926 22.8227 20.9926 22.4102C20.9926 21.9977 21.3301 21.6602 21.7426 21.6602C22.1551 21.6602 22.4926 21.9977 22.4926 22.4102C22.4926 22.8227 22.1701 23.1602 21.7501 23.1602Z" fill="#306CB5"/>
<path d="M21.4725 27.3225C21.33 27.3225 21.1875 27.27 21.075 27.1575C20.8575 26.94 20.8575 26.58 21.075 26.3625L26.1225 21.315C26.34 21.0975 26.7 21.0975 26.9175 21.315C27.135 21.5325 27.135 21.8925 26.9175 22.11L21.87 27.1575C21.765 27.27 21.615 27.3225 21.4725 27.3225Z" fill="#306CB5"/>
<defs>
<linearGradient id="paint0_linear_2759_38662" x1="24" y1="4" x2="24" y2="44" gradientUnits="userSpaceOnUse">
<stop stop-color="#3C5AF6" stop-opacity="0.11"/>
<stop offset="1" stop-color="#3C5AF6" stop-opacity="0"/>
</linearGradient>
</defs>
</svg>
