<svg width="25" height="24" viewBox="0 0 25 24" fill="none" xmlns="http://www.w3.org/2000/svg">
<path d="M21.5 5.98013C18.17 5.65013 14.82 5.48013 11.48 5.48013C9.5 5.48013 7.52 5.58013 5.54 5.78013L3.5 5.98013" fill="#E54B4D"/>
<path d="M21.5 5.98013C18.17 5.65013 14.82 5.48013 11.48 5.48013C9.5 5.48013 7.52 5.58013 5.54 5.78013L3.5 5.98013" stroke="#E54B4D" stroke-width="1.5" stroke-linecap="round" stroke-linejoin="round"/>
<path d="M9 4.97012L9.22 3.66012C9.38 2.71012 9.5 2.00012 11.19 2.00012H13.81C15.5 2.00012 15.63 2.75012 15.78 3.67012L16 4.97012" fill="#E54B4D"/>
<path d="M9 4.97012L9.22 3.66012C9.38 2.71012 9.5 2.00012 11.19 2.00012H13.81C15.5 2.00012 15.63 2.75012 15.78 3.67012L16 4.97012" stroke="#E54B4D" stroke-width="1.5" stroke-linecap="round" stroke-linejoin="round"/>
<path d="M19.3504 9.14012L18.7004 19.2101C18.5904 20.7801 18.5004 22.0001 15.7104 22.0001H9.29039C6.50039 22.0001 6.41039 20.7801 6.30039 19.2101L5.65039 9.14012" fill="#E54B4D"/>
<path d="M19.3504 9.14012L18.7004 19.2101C18.5904 20.7801 18.5004 22.0001 15.7104 22.0001H9.29039C6.50039 22.0001 6.41039 20.7801 6.30039 19.2101L5.65039 9.14012" stroke="#E54B4D" stroke-width="1.5" stroke-linecap="round" stroke-linejoin="round"/>
<path d="M10.8301 16.5001H14.1601" stroke="white" stroke-width="1.5" stroke-linecap="round" stroke-linejoin="round"/>
<path d="M10 12.5001H15" stroke="white" stroke-width="1.5" stroke-linecap="round" stroke-linejoin="round"/>
</svg>
