<svg width="62" height="62" viewBox="0 0 62 62" fill="none" xmlns="http://www.w3.org/2000/svg">
<g filter="url(#filter0_d_7439_53276)">
<rect x="16" y="12" width="30" height="30" rx="5" fill="#F94144" shape-rendering="crispEdges"/>
<path d="M37.75 22.4849C35.2525 22.2374 32.74 22.1099 30.235 22.1099C28.75 22.1099 27.265 22.1849 25.78 22.3349L24.25 22.4849" stroke="white" stroke-linecap="round" stroke-linejoin="round"/>
<path d="M28.375 21.7275L28.54 20.745C28.66 20.0325 28.75 19.5 30.0175 19.5H31.9825C33.25 19.5 33.3475 20.0625 33.46 20.7525L33.625 21.7275" stroke="white" stroke-width="1.5" stroke-linecap="round" stroke-linejoin="round"/>
<path d="M36.1375 24.855L35.65 32.4075C35.5675 33.585 35.5 34.5 33.4075 34.5H28.5925C26.5 34.5 26.4325 33.585 26.35 32.4075L25.8625 24.855" stroke="white" stroke-width="1.5" stroke-linecap="round" stroke-linejoin="round"/>
<path d="M29.7476 30.375H32.2451" stroke="white" stroke-width="1.5" stroke-linecap="round" stroke-linejoin="round"/>
<path d="M29.125 27.375H32.875" stroke="white" stroke-width="1.5" stroke-linecap="round" stroke-linejoin="round"/>
</g>
<defs>
<filter id="filter0_d_7439_53276" x="0" y="0" width="62" height="62" filterUnits="userSpaceOnUse" color-interpolation-filters="sRGB">
<feFlood flood-opacity="0" result="BackgroundImageFix"/>
<feColorMatrix in="SourceAlpha" type="matrix" values="0 0 0 0 0 0 0 0 0 0 0 0 0 0 0 0 0 0 127 0" result="hardAlpha"/>
<feOffset dy="4"/>
<feGaussianBlur stdDeviation="8"/>
<feComposite in2="hardAlpha" operator="out"/>
<feColorMatrix type="matrix" values="0 0 0 0 0.745833 0 0 0 0 0.745833 0 0 0 0 0.745833 0 0 0 0.64 0"/>
<feBlend mode="normal" in2="BackgroundImageFix" result="effect1_dropShadow_7439_53276"/>
<feBlend mode="normal" in="SourceGraphic" in2="effect1_dropShadow_7439_53276" result="shape"/>
</filter>
</defs>
</svg>
