<svg width="253" height="40" viewBox="0 0 253 40" fill="none" xmlns="http://www.w3.org/2000/svg">
<path d="M10.1276 16.629C10.0185 16.3864 9.84593 16.1864 9.63168 16.0361C9.40817 15.8844 9.14433 15.7782 8.84279 15.7152C8.53597 15.6536 8.18153 15.6258 7.77089 15.6214L5.87505 15.6228C5.67799 15.6258 5.4849 15.7958 5.43861 16.0068L4.16304 22.1639C4.11675 22.3721 4.2404 22.5465 4.43746 22.5465H5.34537C5.54243 22.5465 5.7375 22.3772 5.78115 22.1639L6.0926 20.669C6.13426 20.4609 6.32867 20.2872 6.52771 20.2872H6.78759C7.89785 20.2857 8.75749 20.0344 9.37511 19.5309C9.99604 19.0268 10.3022 18.3606 10.3022 17.5355C10.3015 17.1742 10.248 16.8708 10.1276 16.629ZM8.16963 18.6406C7.8952 18.8633 7.51366 18.9747 7.02168 18.9747H6.79949C6.60177 18.9747 6.48076 18.8018 6.52374 18.5907L6.79685 17.2834C6.8352 17.0738 7.03424 16.9001 7.22931 16.9016L7.52688 16.8994C7.87404 16.8994 8.13921 16.9661 8.31643 17.0951C8.49166 17.2226 8.57961 17.4256 8.57829 17.6945C8.58358 18.1034 8.44273 18.4178 8.16963 18.6406Z" fill="#306CB5"/>
<path d="M36.0093 16.1036L35.9524 16.1227L35.8764 16.1344L35.7831 16.1183L35.7355 16.067L35.7137 15.9864L35.7124 15.8655V15.4177H36.0159V15.2792H35.7124V15H35.5623V15.2792H35.4604V15.4177H35.5623V15.9387L35.6324 16.1967L35.8387 16.2788L35.9253 16.2707L36.0172 16.2509V16.1036H36.0093Z" fill="#306CB5"/>
<path d="M37.4173 15.3503L37.2004 15.2514L37.0404 15.2873L36.8777 15.409L36.7832 15.2924L36.6298 15.2521L36.4823 15.288L36.3428 15.3877V15.2792H36.1953V16.2576H36.3421V15.5269L36.4658 15.4419L36.5888 15.4082L36.6893 15.428L36.7389 15.4844L36.7607 15.5782L36.768 15.6992V16.2583H36.9154V15.6325L36.9128 15.5804L36.9101 15.5328L37.0358 15.4441L37.1601 15.4097L37.2573 15.4295L37.3102 15.4859L37.3287 15.5804L37.3386 15.6999V16.259H37.4868V15.6237L37.4173 15.3503Z" fill="#306CB5"/>
<path d="M14.5059 17.5093C14.1633 17.2953 13.6224 17.1884 12.8831 17.1884C12.5175 17.1884 12.1531 17.2199 11.7848 17.2829C11.513 17.3291 11.4865 17.3378 11.3192 17.3782C10.9741 17.4617 10.9198 17.8435 10.9198 17.8435L10.8087 18.3499C10.7459 18.673 10.9139 18.6606 10.984 18.6335C11.1348 18.5836 11.2187 18.5323 11.5269 18.4561C11.8211 18.3821 12.1313 18.3264 12.3773 18.3301C12.7403 18.3301 13.018 18.3726 13.2032 18.4591C13.3857 18.547 13.4769 18.698 13.4769 18.9163L13.4611 19.0585L13.3301 19.1479C12.815 19.1838 12.4427 19.2366 11.9911 19.3091C11.5494 19.3773 11.1619 19.4967 10.8398 19.6601C10.494 19.8287 10.2374 20.0551 10.0582 20.3431C9.88497 20.6326 9.79834 20.9836 9.79834 21.3954C9.79834 21.7831 9.92398 22.1033 10.168 22.351C10.4133 22.5943 10.7373 22.713 11.1248 22.713C11.3702 22.7116 11.5599 22.6903 11.6948 22.6544L12.1346 22.4866L12.5069 22.258L12.8494 22.0073L12.854 22.0147L12.8197 22.1759L12.8177 22.1825V22.184C12.7806 22.3803 12.8878 22.5416 13.0604 22.5606L13.0637 22.565H13.0795H13.7758H13.9068L13.9187 22.5592C14.0999 22.5357 14.2698 22.3745 14.3095 22.1825L14.9714 19.0072L15.0058 18.7485L15.0217 18.506C15.0243 18.056 14.8491 17.7226 14.5059 17.5093ZM13.0418 21.0796L12.9003 21.2863L12.5432 21.4907C12.3753 21.5662 12.2159 21.6043 12.0685 21.6043C11.8449 21.6043 11.6697 21.5684 11.5513 21.4951L11.3761 21.1177C11.3761 20.9133 11.4184 20.7513 11.509 20.6267L11.8939 20.3365C12.0585 20.275 12.2596 20.2229 12.4923 20.187C12.7 20.1585 13.1099 20.1064 13.1635 20.105L13.2263 20.2273C13.2138 20.297 13.0974 20.8363 13.0418 21.0796Z" fill="#306CB5"/>
<path d="M30.9966 17.5136C30.6521 17.2996 30.1118 17.1919 29.3745 17.1919C29.0088 17.1919 28.6438 17.2234 28.2768 17.2886C28.0044 17.3326 27.9773 17.3421 27.8093 17.3817C27.4648 17.4645 27.4112 17.8477 27.4112 17.8477L27.3001 18.3534C27.238 18.6765 27.402 18.6619 27.4787 18.637C27.6301 18.5871 27.7114 18.538 28.0169 18.4589C28.3099 18.3856 28.6227 18.3314 28.8693 18.3329C29.231 18.3329 29.5088 18.3761 29.6932 18.4626C29.8771 18.5505 29.967 18.7029 29.967 18.9191L29.9531 19.0605L29.8235 19.1521C29.3031 19.1866 28.9301 19.2393 28.4831 19.3119C28.0427 19.38 27.6539 19.4988 27.3312 19.6629C26.9867 19.8322 26.7268 20.0586 26.5496 20.3474C26.3744 20.6368 26.2891 20.9871 26.2891 21.3953C26.2891 21.7859 26.4134 22.1061 26.6607 22.3523C26.9073 22.5949 27.2281 22.7166 27.6156 22.7166C27.8596 22.7136 28.0493 22.696 28.1849 22.6572L28.6233 22.4916L28.9989 22.2629L29.3388 22.0094L29.3448 22.0174L29.3137 22.1801L29.3104 22.1831L29.3117 22.186C29.2707 22.3824 29.3785 22.5451 29.5531 22.5627L29.5544 22.5663H29.5702C29.6846 22.5663 30.0801 22.5663 30.2685 22.5663H30.3968L30.4107 22.5612C30.5899 22.537 30.7592 22.3758 30.7969 22.1816L31.4608 19.0107L31.4958 18.7506L31.515 18.5073C31.5157 18.0588 31.3424 17.7268 30.9966 17.5136ZM29.5359 21.0838L29.3884 21.2927L29.0346 21.4957C28.8667 21.5704 28.7066 21.6093 28.5618 21.6093C28.331 21.6093 28.1604 21.5726 28.0454 21.4993L27.8682 21.1234C27.8682 20.9182 27.9111 20.7577 27.9978 20.631C28.0857 20.5115 28.22 20.4133 28.3866 20.3415C28.5493 20.2799 28.7503 20.2301 28.9844 20.1927C29.1907 20.1642 29.5993 20.1107 29.6522 20.1099L29.7164 20.2323C29.7071 20.3019 29.5901 20.8391 29.5359 21.0838Z" fill="#306CB5"/>
<path d="M26.6154 16.6518C26.5017 16.4078 26.3311 16.2107 26.1155 16.0568C25.8946 15.9043 25.6328 15.7974 25.3266 15.7358C25.0257 15.6764 24.6667 15.6442 24.2587 15.6435L22.3602 15.6449C22.1625 15.6486 21.9727 15.8186 21.9271 16.0275L20.6502 22.1875C20.6039 22.3963 20.7308 22.5693 20.9239 22.5693L21.8332 22.5678C22.0263 22.5693 22.224 22.3978 22.2696 22.1868L22.5771 20.6911C22.6221 20.483 22.8171 20.3078 23.0135 20.3093H23.2734C24.385 20.3093 25.2466 20.0557 25.8669 19.5538C26.4799 19.0459 26.79 18.3813 26.79 17.5554C26.7867 17.1956 26.7305 16.8914 26.6154 16.6518ZM24.6574 18.6663C24.3837 18.8847 24.0015 18.9961 23.5121 18.9961H23.286C23.0909 18.9983 22.9646 18.8224 23.0082 18.6128L23.2833 17.3077C23.3237 17.0988 23.5207 16.9237 23.7171 16.9259L24.0114 16.9237C24.3605 16.9259 24.6224 16.9896 24.8009 17.1186C24.9788 17.2476 25.0628 17.4499 25.0648 17.7181C25.0667 18.127 24.9299 18.4421 24.6574 18.6663Z" fill="#306CB5"/>
<path d="M34.4007 16.0764C34.4424 15.8661 34.3234 15.6954 34.1283 15.6983H33.3149C33.1483 15.6983 32.9982 15.8353 32.9248 16.0039L32.8798 16.0816L32.8388 16.2809L31.7021 22.0071L31.6651 22.183L31.6664 22.1874C31.6287 22.3757 31.7332 22.5179 31.8945 22.545L31.9084 22.5662H32.7529C32.9182 22.5662 33.0736 22.427 33.1443 22.2555L33.188 22.1823L34.4034 16.0772L34.4007 16.0764Z" fill="#306CB5"/>
<path d="M20.6756 17.2651C20.4607 17.268 19.5871 17.2651 19.5871 17.2651C19.3914 17.2651 19.1401 17.4402 19.0158 17.6491C19.0158 17.6491 17.7158 20.1216 17.5895 20.37L17.4387 20.3678L17.034 17.6659C16.989 17.4534 16.7887 17.2717 16.5394 17.2717L15.726 17.2732C15.5303 17.2732 15.4099 17.4461 15.4543 17.6572C15.4543 17.6572 16.0719 21.5521 16.1955 22.4688C16.2531 22.9745 16.1883 23.0646 16.1883 23.0646L15.3842 24.6167C15.2651 24.8277 15.3293 25 15.5243 25L16.4647 24.9985C16.6604 24.9985 16.9176 24.8277 17.034 24.616L20.6511 17.836C20.6511 17.8367 20.9989 17.257 20.6756 17.2651Z" fill="#306CB5"/>
<path d="M65.5002 15.1707L63.8062 25.112H66.5155L68.211 15.1707H65.5002Z" fill="#306CB5"/>
<path d="M61.5345 15.1819L58.8809 21.9616L58.598 20.9379C58.0746 19.7045 56.589 17.9331 54.8447 16.8167L57.2712 25.1072L60.138 25.1023L64.4049 15.1798L61.5345 15.1819Z" fill="#306CB5"/>
<path d="M57.5693 15.8933C57.4118 15.2878 56.9553 15.1073 56.3888 15.0857H52.1882L52.1533 15.2836C55.4223 16.0766 57.5853 17.9874 58.4828 20.2849L57.5693 15.8933Z" fill="#306CB5"/>
<path d="M73.7021 17.0766C74.5885 17.0627 75.231 17.2564 75.73 17.4571L75.9746 17.5721L76.3411 15.4174C75.8046 15.216 74.9635 15 73.914 15C71.2367 15 69.3496 16.3484 69.335 18.2808C69.3175 19.7086 70.6792 20.5058 71.7078 20.9818C72.7635 21.4696 73.1175 21.7797 73.1126 22.2152C73.1042 22.8807 72.2708 23.1859 71.4924 23.1859C70.4074 23.1859 69.8311 23.0361 68.9412 22.6654L68.5921 22.5065L68.2109 24.7316C68.8451 25.0096 70.0151 25.2486 71.2297 25.2612C74.0778 25.2612 75.9286 23.9288 75.9481 21.864C75.96 20.7344 75.2373 19.8724 73.6715 19.1651C72.7238 18.7038 72.144 18.3972 72.1496 17.9317C72.1496 17.5184 72.6415 17.0766 73.7021 17.0766Z" fill="#306CB5"/>
<path d="M83.2946 15.1818H81.2012C80.5511 15.1818 80.0674 15.3588 79.7817 16.0069L75.7588 25.1176H78.604C78.604 25.1176 79.0681 23.8925 79.1734 23.6242C79.4849 23.6242 82.2493 23.6284 82.643 23.6284C82.7238 23.9754 82.9733 25.1176 82.9733 25.1176H85.4869L83.2946 15.1818ZM79.9532 21.5894C80.1761 21.0187 81.0326 18.811 81.0326 18.811C81.0179 18.8382 81.2535 18.2361 81.3936 17.8619L81.5761 18.7191C81.5761 18.7191 82.0953 21.0925 82.204 21.5894H79.9532Z" fill="#306CB5"/>
<path d="M124.198 16.2512L123.585 17.7397H124.817L124.198 16.2512Z" fill="#306CB5"/>
<path d="M103.01 16.2512L102.404 17.7397H103.621L103.01 16.2512Z" fill="#306CB5"/>
<path d="M117.077 16.4621C116.971 16.4022 116.808 16.3946 116.654 16.3946H115.554V17.2233H116.639C116.811 17.2233 116.956 17.2206 117.08 17.1468C117.195 17.0863 117.264 16.9547 117.264 16.7919C117.264 16.6319 117.192 16.5163 117.077 16.4621Z" fill="#306CB5"/>
<path d="M120.901 22.8849C120.793 22.8202 120.633 22.8174 120.475 22.8174H119.376V23.656H120.461C120.635 23.656 120.783 23.6504 120.903 23.5801C121.019 23.5091 121.088 23.3818 121.088 23.221C121.086 23.0603 121.017 22.9448 120.901 22.8849Z" fill="#306CB5"/>
<path d="M116.556 22.816H115.392V23.7672H116.544C116.888 23.7672 117.101 23.5974 117.101 23.2753C117.1 22.9468 116.878 22.816 116.556 22.816Z" fill="#306CB5"/>
<path d="M133.041 23.3769C133.035 23.3706 133.028 23.3637 133.022 23.3588C133.191 23.2488 133.304 23.0582 133.304 22.8411V22.0457C133.304 21.704 133.027 21.4285 132.686 21.4285H130.898C130.341 21.4285 129.92 21.5927 129.614 21.8404C129.529 21.601 129.309 21.4285 129.039 21.4285H127.251C126.759 21.4285 126.371 21.5502 126.076 21.7506C125.969 21.5593 125.776 21.4285 125.545 21.4285H122.567C122.327 21.4285 122.125 21.5683 122.022 21.768C121.98 21.7381 121.948 21.7033 121.904 21.6769C121.472 21.4459 121.013 21.4285 120.539 21.4285H118.477C118.237 21.4285 118.034 21.5697 117.933 21.7708C117.619 21.5669 117.18 21.4285 116.556 21.4285H113.704C113.532 21.4285 113.368 21.498 113.251 21.6247L112.575 22.3533L111.927 21.633C111.81 21.5001 111.644 21.4278 111.468 21.4278H107.879C107.538 21.4278 107.262 21.704 107.262 22.045V25.7797C107.262 26.1214 107.538 26.3969 107.879 26.3969H111.414C111.586 26.3969 111.75 26.3253 111.867 26.1986L112.548 25.4617L113.194 26.1889C113.311 26.3211 113.48 26.3956 113.656 26.3956H115.391C115.732 26.3956 116.008 26.1193 116.008 25.7797V25.1423H116.504C117.107 25.1423 117.544 25.0184 117.861 24.8299V25.7797C117.861 26.12 118.137 26.3956 118.478 26.3956H119.375C119.717 26.3956 119.992 26.1193 119.992 25.7797V25.031H120.328C120.411 25.031 120.468 25.0337 120.51 25.0365C120.513 25.1033 120.513 25.1834 120.512 25.2362V25.7797C120.512 26.12 120.789 26.3956 121.129 26.3956H122.024C122.125 26.3956 122.215 26.3684 122.297 26.326C122.381 26.367 122.47 26.3956 122.569 26.3956H125.548C125.645 26.3956 125.735 26.3684 125.816 26.3287C125.898 26.3684 125.985 26.3956 126.084 26.3956H127.822C128.375 26.3956 128.826 26.2599 129.164 26.0205C129.256 26.2404 129.475 26.3956 129.73 26.3956H131.469C132.733 26.3956 133.487 25.724 133.487 24.6002C133.487 24.0797 133.346 23.6921 133.041 23.3769ZM116.505 24.5251H115.391V25.7783H113.657L112.557 24.5425L111.414 25.7783H107.879V22.0429H111.468L112.567 23.2676L113.703 22.0429H116.555C117.263 22.0429 118.059 22.2412 118.059 23.2753C118.059 24.3114 117.285 24.5272 116.505 24.5251ZM121.44 24.0442C121.638 24.1166 121.8 24.2481 121.875 24.3581C122.003 24.5404 122.019 24.7102 122.024 25.0393V25.7797H121.128V25.3121C121.128 25.088 121.15 24.7547 120.983 24.5807C120.855 24.4478 120.656 24.4165 120.329 24.4165H119.376V25.7797H118.479V22.045H120.541C120.992 22.045 121.32 22.0638 121.614 22.2204C121.896 22.3901 122.073 22.624 122.073 23.0491C122.073 23.6462 121.674 23.9503 121.44 24.0442ZM125.547 22.8167H123.456V23.4966H125.495V24.2592H123.456V25.001L125.547 25.0052V25.7797H122.568V22.045H125.547V22.8167ZM127.823 25.7755H126.085V24.9732H127.815C127.984 24.9732 128.104 24.9523 128.179 24.8807C128.24 24.8236 128.284 24.738 128.284 24.6364C128.284 24.5278 128.238 24.4423 128.175 24.3901C128.105 24.333 128.014 24.3073 127.857 24.3073C127.023 24.2801 125.978 24.333 125.978 23.1521C125.978 22.6086 126.317 22.0401 127.254 22.0401H129.042V22.8348H127.405C127.241 22.8348 127.136 22.8418 127.047 22.903C126.949 22.9642 126.912 23.054 126.912 23.1723C126.912 23.3136 126.995 23.4075 127.107 23.4506C127.202 23.4834 127.302 23.4931 127.455 23.4931L127.934 23.507C128.418 23.5202 128.751 23.6037 128.952 23.8076C129.128 23.9879 129.22 24.2161 129.22 24.5995C129.22 25.4046 128.72 25.7797 127.823 25.7755ZM131.47 25.7755H129.732V24.9732H131.463C131.631 24.9732 131.752 24.9523 131.826 24.8807C131.888 24.8236 131.931 24.738 131.931 24.6364C131.931 24.5278 131.885 24.4423 131.822 24.3901C131.753 24.333 131.661 24.3073 131.504 24.3073C130.67 24.2801 129.625 24.333 129.625 23.1521C129.625 22.6086 129.964 22.0401 130.901 22.0401H132.689V22.8348H131.052C130.888 22.8348 130.782 22.8418 130.694 22.903C130.596 22.9642 130.56 23.054 130.56 23.1723C130.56 23.3136 130.643 23.4075 130.754 23.4506C130.85 23.4834 130.949 23.4931 131.102 23.4931L131.581 23.507C132.066 23.5202 132.4 23.6037 132.601 23.8076C132.775 23.9879 132.869 24.2161 132.869 24.5995C132.869 25.4046 132.367 25.7797 131.47 25.7755Z" fill="#306CB5"/>
<path d="M130.24 15H129.326C128.984 15 128.709 15.2763 128.709 15.6165V16.002L128.285 15.2985C128.172 15.1141 127.973 15.0007 127.758 15.0007H126.397C126.056 15.0007 125.781 15.277 125.781 15.6172V16.1412L125.453 15.3744C125.356 15.1482 125.133 15.0007 124.887 15.0007H123.55C123.414 15.0007 123.285 15.0452 123.182 15.1232C123.079 15.0459 122.951 15.0007 122.812 15.0007H121.95C121.216 15.0007 120.674 15.1781 120.274 15.5247C120.228 15.2303 119.984 15.0007 119.676 15.0007H118.765C118.521 15.0007 118.317 15.1447 118.216 15.3479C118.178 15.3201 118.148 15.2867 118.105 15.2616C117.686 15.0195 117.246 15.0007 116.715 15.0007H114.662C114.547 15.0007 114.446 15.0411 114.352 15.096C114.261 15.0411 114.159 15.0007 114.043 15.0007H111.062C110.936 15.0007 110.827 15.0473 110.73 15.1113C110.632 15.0473 110.522 15.0007 110.397 15.0007H108.909C108.663 15.0007 108.44 15.1489 108.343 15.3772L107.813 16.6269L107.229 15.3591C107.127 15.1406 106.908 15.0007 106.669 15.0007H105.212C104.871 15.0007 104.595 15.277 104.595 15.6172V16.1537L104.26 15.373C104.163 15.1468 103.94 15 103.693 15H102.368C102.121 15 101.898 15.1475 101.801 15.3737L100.203 19.1084C100.121 19.2998 100.141 19.5169 100.255 19.6908C100.369 19.8634 100.562 19.9678 100.77 19.9678H101.74C101.988 19.9678 102.212 19.8175 102.308 19.5878L102.496 19.1341H103.53L103.716 19.5851C103.811 19.8161 104.036 19.9671 104.287 19.9671H106.102C106.443 19.9671 106.719 19.6908 106.719 19.3506V19.3359L106.836 19.6011C106.934 19.8237 107.156 19.9678 107.399 19.9678L108.184 19.9692C108.428 19.9692 108.648 19.8251 108.747 19.6018L108.866 19.3373V19.3526C108.866 19.6929 109.141 19.9685 109.482 19.9685H110.397C110.522 19.9685 110.632 19.9212 110.73 19.8578C110.827 19.9212 110.936 19.9685 111.062 19.9685H114.043C114.159 19.9685 114.261 19.9281 114.352 19.8732C114.445 19.9281 114.547 19.9685 114.662 19.9685H115.556C115.897 19.9685 116.172 19.6922 116.172 19.3519V18.6102H116.513C116.59 18.6102 116.645 18.6122 116.686 18.615C116.691 18.6783 116.689 18.7535 116.689 18.8036L116.688 18.8857L116.691 19.3568C116.694 19.695 116.97 19.9685 117.308 19.9685H118.209C118.31 19.9685 118.401 19.9372 118.485 19.894C118.571 19.9379 118.663 19.9685 118.764 19.9685H119.676C119.975 19.9685 120.212 19.7528 120.269 19.4716C120.775 19.8968 121.488 19.9685 121.884 19.9685H122.93C123.179 19.9685 123.405 19.8154 123.499 19.5823L123.68 19.1348H124.709L124.898 19.5885C124.993 19.8175 125.217 19.9678 125.467 19.9678H127.283C127.624 19.9678 127.9 19.6915 127.9 19.3513V18.7619L128.447 19.67C128.559 19.8544 128.759 19.9678 128.976 19.9678H130.24C130.581 19.9678 130.856 19.6915 130.856 19.3513V15.6165C130.856 15.2763 130.579 15 130.24 15ZM110.396 19.3506H109.481L109.478 16.4258L108.184 19.3506H107.399L106.103 16.423V19.3506H104.286L103.943 18.5176H102.085L101.738 19.3506H100.768L102.367 15.6158H103.692L105.211 19.1522V15.6158H106.668L107.836 18.1495L108.909 15.6158H110.396V19.3506ZM114.043 16.3938H111.954V17.0667H113.993V17.8322H111.954V18.5781H114.043V19.3506H111.062V15.6158H114.043V16.3938ZM117.617 17.6178C117.813 17.693 117.98 17.8238 118.059 17.9324C118.186 18.1182 118.208 18.2838 118.208 18.6171V19.3499H117.307L117.303 18.8788C117.303 18.6547 117.324 18.3318 117.162 18.1516C117.032 18.0208 116.833 17.9922 116.512 17.9922H115.555V19.3506H114.661H114.661V15.6165H116.713C117.17 15.6165 117.506 15.6284 117.794 15.7954C118.077 15.9624 118.246 16.2059 118.246 16.6228C118.246 17.2177 117.848 17.526 117.617 17.6178ZM119.676 19.3506H118.765V15.6158H119.676V19.3506ZM130.24 19.3506H128.975L127.282 16.5476V19.3506H125.466L125.118 18.5176H123.263L122.928 19.3506H121.882C121.449 19.3506 120.901 19.2545 120.591 18.9379C120.275 18.6206 120.112 18.1905 120.112 17.5121C120.112 16.9582 120.21 16.4516 120.59 16.0508C120.878 15.7529 121.329 15.6158 121.946 15.6158H122.808V16.4161H121.962C121.637 16.4161 121.453 16.4641 121.276 16.6374C121.124 16.7946 121.02 17.0918 121.02 17.4835C121.02 17.883 121.1 18.1711 121.267 18.3596C121.405 18.5079 121.656 18.5524 121.889 18.5524H122.289L123.55 15.6158H124.887L126.397 19.1481V15.6158H127.758L129.326 18.217V15.6158H130.24V19.3506ZM122.273 17.0333L121.886 17.9373C121.8 17.9373 121.743 17.9275 121.71 17.9192C121.681 17.8635 121.64 17.7403 121.64 17.4842C121.64 17.2254 121.702 17.0911 121.71 17.0792C121.736 17.0542 121.758 17.0326 121.967 17.0326L122.273 17.0333Z" fill="#306CB5"/>
<path d="M113.132 23.9182L114.503 25.4408V22.4465L113.132 23.9182Z" fill="#306CB5"/>
<path d="M111.007 22.8174H108.77V23.4959H110.729V24.2586H108.77V25.0018H110.963L111.983 23.9044L111.007 22.8174Z" fill="#306CB5"/>
<path d="M171.51 10C168.935 10.0007 166.588 10.9787 164.819 12.5851C163.048 10.9808 160.703 10.0021 158.13 10.0021C158.109 10.0021 158.087 10.0021 158.066 10.0021C152.589 10.0379 148.153 14.5032 148.153 19.9997C148.153 25.5182 152.623 29.9965 158.13 29.9965C160.702 29.9965 163.048 29.0192 164.817 27.4135C164.448 27.079 164.113 26.7086 163.797 26.321H165.857C165.547 26.7024 165.208 27.0597 164.844 27.3921H164.843C164.834 27.4011 164.825 27.4066 164.817 27.4142C166.588 29.0213 168.937 30.0007 171.513 30C177.023 29.9979 181.488 25.5202 181.487 19.9997C181.487 19.9976 181.487 19.9962 181.487 19.9948C181.487 14.4743 177.02 9.99862 171.51 10ZM163.911 13.6176H165.808C166.087 13.957 166.347 14.3142 166.582 14.6881H163.199C163.417 14.3308 163.657 13.9632 163.911 13.6176ZM162.61 15.7378H167.157C167.319 16.0841 167.462 16.442 167.588 16.809H162.071C162.126 16.7055 162.319 16.2889 162.61 15.7378ZM152.226 22.5461L152.831 18.7237L151.466 22.5461H150.734L150.639 18.7237L149.993 22.5461H148.968L149.818 17.4766H151.368L151.422 20.5873L152.469 17.4766H154.151L153.313 22.5461H152.226ZM155.85 22.5378L155.885 22.133C155.869 22.135 155.545 22.622 154.795 22.622C154.403 22.622 153.77 22.4075 153.77 21.475C153.77 20.2893 154.735 19.8962 155.654 19.8962C155.798 19.8962 156.11 19.9224 156.11 19.9224C156.11 19.9224 156.145 19.85 156.145 19.6541C156.145 19.332 155.856 19.2879 155.46 19.2879C154.763 19.2879 154.303 19.4748 154.303 19.4748L154.457 18.5574C154.457 18.5574 155.016 18.3229 155.743 18.3229C156.12 18.3229 157.202 18.3629 157.202 19.6065L156.785 22.5378H155.85ZM159.803 21.2467C159.803 22.6613 158.435 22.6006 158.196 22.6006C157.305 22.6006 157.03 22.4772 157.004 22.4703L157.146 21.5391C157.147 21.5308 157.593 21.7012 158.09 21.7012C158.376 21.7012 158.748 21.6729 158.748 21.3301C158.748 20.817 157.418 20.9398 157.418 19.721C157.418 18.6457 158.215 18.3312 159.001 18.3312C159.608 18.3312 159.981 18.4147 159.981 18.4147L159.847 19.3541C159.847 19.3541 159.271 19.3065 159.121 19.3065C158.744 19.3065 158.538 19.3892 158.538 19.6541C158.537 20.1866 159.803 19.9259 159.803 21.2467ZM161.445 21.6178C161.54 21.6178 161.646 21.5853 161.719 21.5853L161.586 22.4896C161.48 22.5192 161.177 22.6268 160.79 22.6296C160.295 22.6337 159.943 22.3564 159.943 21.7274C159.943 21.3053 160.547 17.827 160.57 17.8043H161.632L161.524 18.4264H162.054L161.919 19.4286H161.356L161.058 21.275C161.035 21.4219 161.076 21.6178 161.445 21.6178ZM163.781 18.3091C164.947 18.3091 165.296 19.1644 165.296 19.8658C165.296 20.1466 165.156 20.8363 165.156 20.8363H162.997C162.997 20.8363 162.798 21.6881 163.938 21.6881C164.473 21.6881 165.066 21.426 165.066 21.426L164.879 22.4516C164.879 22.4516 164.536 22.6268 163.757 22.6268C162.913 22.6268 161.922 22.2689 161.922 20.7652C161.923 19.4624 162.713 18.3091 163.781 18.3091ZM166.594 25.2912H163.055C162.84 24.9464 162.639 24.5925 162.466 24.2208H167.176C167.003 24.5905 166.809 24.9478 166.594 25.2912ZM166.357 22.5537H165.267L165.93 18.4278H166.919L166.824 19.0258C166.824 19.0258 167.176 18.3753 167.652 18.3753C167.79 18.3753 167.857 18.3891 167.857 18.3891C167.716 18.6774 167.591 18.9416 167.462 19.6238C166.724 19.3617 166.667 20.7915 166.357 22.5537ZM170.511 22.4896C170.511 22.4896 169.94 22.6358 169.582 22.6358C168.314 22.6358 167.67 21.7591 167.67 20.4314C167.67 18.4291 168.863 17.3628 170.089 17.3628C170.643 17.3628 171.285 17.6235 171.285 17.6235L171.112 18.7512C171.112 18.7512 170.677 18.4471 170.137 18.4471C169.414 18.4471 168.766 19.1382 168.766 20.3942C168.766 21.0129 169.068 21.5895 169.823 21.5895C170.181 21.5895 170.701 21.3281 170.701 21.3281L170.511 22.4896ZM173.068 22.5399L173.104 22.1323C173.087 22.1344 172.763 22.6213 172.014 22.6213C171.622 22.6213 170.989 22.4068 170.989 21.4743C170.989 20.2886 171.954 19.8955 172.872 19.8955C173.016 19.8955 173.329 19.9217 173.329 19.9217C173.329 19.9217 173.365 19.85 173.365 19.6541C173.365 19.332 173.076 19.2879 172.679 19.2879C171.982 19.2879 171.522 19.4748 171.522 19.4748L171.676 18.5574C171.676 18.5574 172.235 18.3229 172.963 18.3229C173.339 18.3229 174.423 18.3629 174.422 19.6065L174.005 22.5378C174.004 22.5399 173.068 22.5399 173.068 22.5399ZM175.275 22.5537H174.185L174.848 18.4278H175.838L175.743 19.0258C175.743 19.0258 176.096 18.3753 176.571 18.3753C176.71 18.3753 176.776 18.3891 176.776 18.3891C176.635 18.6774 176.51 18.9416 176.381 19.6238C175.642 19.3617 175.586 20.7915 175.275 22.5537ZM178.53 22.5427L178.576 22.1626C178.576 22.1626 178.224 22.6082 177.587 22.6082C176.704 22.6082 176.271 21.7536 176.271 20.8804C176.271 19.5299 177.081 18.3526 178.055 18.3526C178.681 18.354 179.081 18.9078 179.081 18.9078L179.311 17.4835L180.376 17.4815L179.564 22.5427H178.53ZM180.631 22.3999C180.603 22.4509 180.563 22.4903 180.512 22.5206C180.462 22.5489 180.408 22.5634 180.352 22.5634C180.297 22.5634 180.244 22.5489 180.193 22.5206C180.142 22.4903 180.102 22.4509 180.074 22.3999C180.045 22.3482 180.031 22.2958 180.031 22.2399C180.031 22.1833 180.045 22.1295 180.074 22.0785C180.102 22.0274 180.144 21.9861 180.194 21.9585C180.246 21.9302 180.298 21.9157 180.352 21.9157C180.407 21.9157 180.459 21.9302 180.51 21.9585C180.562 21.9868 180.602 22.0261 180.631 22.0785C180.661 22.1302 180.674 22.184 180.674 22.2399C180.674 22.2958 180.66 22.3489 180.631 22.3999Z" fill="#306CB5"/>
<path d="M180.546 25.4505C180.539 25.4457 180.533 25.4381 180.522 25.434C180.511 25.4298 180.493 25.4278 180.467 25.4278H180.402V25.531H180.471C180.503 25.531 180.524 25.5283 180.537 25.5166C180.548 25.5069 180.554 25.4952 180.554 25.4787C180.554 25.4677 180.551 25.4601 180.546 25.4505Z" fill="#306CB5"/>
<path d="M180.768 25.3882C180.738 25.3345 180.698 25.2966 180.646 25.2684C180.595 25.2402 180.542 25.2257 180.489 25.2257C180.434 25.2257 180.381 25.2402 180.33 25.2684C180.279 25.2966 180.237 25.3359 180.209 25.3882C180.18 25.4391 180.167 25.4928 180.167 25.5479C180.167 25.6029 180.181 25.6573 180.209 25.7076C180.239 25.7585 180.279 25.7998 180.329 25.828C180.38 25.8562 180.434 25.8707 180.49 25.8707C180.545 25.8707 180.599 25.8562 180.649 25.828C180.699 25.7998 180.74 25.7585 180.768 25.7076C180.797 25.6573 180.811 25.6036 180.811 25.5479C180.811 25.4921 180.796 25.4384 180.768 25.3882ZM180.57 25.7268L180.54 25.6724C180.515 25.6298 180.496 25.6016 180.48 25.5905C180.471 25.5837 180.456 25.5782 180.436 25.5782H180.404V25.7261H180.348V25.3785H180.467C180.509 25.3785 180.538 25.382 180.555 25.3889C180.573 25.3957 180.589 25.4054 180.599 25.4226C180.61 25.4384 180.615 25.4556 180.615 25.4735C180.615 25.499 180.605 25.5203 180.588 25.5403C180.57 25.5582 180.545 25.5699 180.515 25.572C180.528 25.5761 180.538 25.583 180.545 25.5905C180.56 25.6043 180.576 25.627 180.597 25.6587L180.639 25.7268H180.57Z" fill="#306CB5"/>
<path d="M155.74 20.6873C154.961 20.6873 154.804 21.0377 154.804 21.3294C154.804 21.4798 154.89 21.7308 155.219 21.7308C155.859 21.7308 155.992 20.8908 155.971 20.7121C155.941 20.7059 155.922 20.688 155.74 20.6873Z" fill="#306CB5"/>
<path d="M163.786 19.2616C163.207 19.2616 163.095 19.9203 163.095 19.9899H164.274C164.274 19.9369 164.385 19.2616 163.786 19.2616Z" fill="#306CB5"/>
<path d="M178.239 19.3768C177.771 19.3768 177.402 19.9203 177.402 20.7459C177.402 21.2494 177.581 21.5722 177.964 21.5722C178.539 21.5722 178.817 20.8197 178.817 20.259C178.817 19.6403 178.621 19.3768 178.239 19.3768Z" fill="#306CB5"/>
<path d="M180.583 22.1058C180.559 22.0632 180.525 22.0301 180.482 22.006C180.44 21.9819 180.396 21.9702 180.351 21.9702C180.307 21.9702 180.262 21.9826 180.219 22.006C180.177 22.0281 180.143 22.0625 180.119 22.1058C180.095 22.1492 180.083 22.1953 180.083 22.2401C180.083 22.2862 180.095 22.3316 180.118 22.3736C180.143 22.4163 180.175 22.4486 180.218 22.4741C180.261 22.4975 180.305 22.5113 180.351 22.5113C180.397 22.5113 180.443 22.4975 180.484 22.4741C180.526 22.45 180.56 22.417 180.584 22.3736C180.608 22.3309 180.619 22.2862 180.619 22.2401C180.619 22.1946 180.607 22.1492 180.583 22.1058ZM180.434 22.417L180.403 22.3633C180.378 22.3199 180.359 22.2924 180.345 22.2821C180.333 22.2731 180.319 22.269 180.299 22.269H180.268V22.4163H180.21V22.0694H180.33C180.371 22.0694 180.401 22.0728 180.418 22.0804C180.436 22.0866 180.451 22.0983 180.462 22.1134C180.474 22.1286 180.478 22.1458 180.478 22.1643C180.478 22.1898 180.469 22.2112 180.451 22.2304C180.433 22.2504 180.408 22.2586 180.379 22.2621C180.393 22.2676 180.402 22.2738 180.409 22.28C180.423 22.2944 180.44 22.3151 180.46 22.3481L180.502 22.417H180.434Z" fill="#306CB5"/>
<path d="M172.959 20.6873C172.181 20.6873 172.023 21.0377 172.023 21.3294C172.023 21.4798 172.108 21.7308 172.439 21.7308C173.078 21.7308 173.21 20.8908 173.19 20.7121C173.159 20.7059 173.14 20.688 172.959 20.6873Z" fill="#306CB5"/>
<path d="M180.41 22.1405C180.405 22.1336 180.397 22.1281 180.387 22.1233C180.375 22.1198 180.358 22.1164 180.33 22.1164V22.1171H180.268V22.2217H180.336C180.368 22.2217 180.389 22.2176 180.402 22.2073C180.413 22.1969 180.419 22.1838 180.419 22.1687C180.419 22.157 180.416 22.1501 180.41 22.1405Z" fill="#306CB5"/>
<path d="M207.329 15.6121C207.641 16.1268 207.781 16.6569 207.781 17.3265C207.781 19.4623 205.958 22.2368 204.478 24.1851H201.098L199.743 16.0797L202.702 15.7988L203.419 21.5663C204.088 20.4753 204.915 18.7609 204.915 17.5921C204.915 16.9523 204.805 16.5165 204.634 16.1577L207.329 15.6121ZM211.164 19.1813C211.709 19.1813 213.08 18.9321 213.08 18.1529C213.08 17.7787 212.815 17.5921 212.504 17.5921C211.958 17.5921 211.242 18.2462 211.164 19.1813ZM211.102 20.7245C211.102 21.676 211.631 22.0493 212.332 22.0493C213.096 22.0493 213.828 21.8627 214.778 21.3796L214.42 23.8108C213.75 24.138 212.707 24.3563 211.694 24.3563C209.124 24.3563 208.204 22.7978 208.204 20.8495C208.204 18.3243 209.7 15.6429 212.785 15.6429C214.483 15.6429 215.432 16.5943 215.432 17.9191C215.432 20.0548 212.691 20.7091 211.102 20.7245ZM223.973 17.5141C223.973 17.8258 223.925 18.2779 223.878 18.5734L222.99 24.185H220.109L220.919 19.0409C220.934 18.9014 220.981 18.6205 220.981 18.4647C220.981 18.0905 220.748 17.9971 220.466 17.9971C220.093 17.9971 219.719 18.1684 219.47 18.2935L218.551 24.1851H215.653L216.977 15.7835H219.485L219.517 16.4541C220.109 16.0645 220.888 15.6431 221.993 15.6431C223.458 15.6429 223.973 16.3914 223.973 17.5141ZM232.528 16.5626C233.353 15.9709 234.132 15.6429 235.207 15.6429C236.686 15.6429 237.201 16.3914 237.201 17.5141C237.201 17.8258 237.154 18.2779 237.107 18.5734L236.22 24.185H233.337L234.163 18.9322C234.178 18.7918 234.21 18.6205 234.21 18.5119C234.21 18.0906 233.976 17.9971 233.695 17.9971C233.337 17.9971 232.979 18.153 232.714 18.2935L231.795 24.1851H228.914L229.739 18.9323C229.754 18.7919 229.785 18.6206 229.785 18.5119C229.785 18.0906 229.551 17.9972 229.271 17.9972C228.897 17.9972 228.524 18.1685 228.275 18.2935L227.355 24.1852H224.458L225.782 15.7836H228.259L228.337 16.485C228.914 16.0646 229.692 15.6432 230.736 15.6432C231.639 15.6429 232.231 16.0326 232.528 16.5626ZM242.936 19.0101C242.936 18.3243 242.765 17.8566 242.251 17.8566C241.114 17.8566 240.88 19.8672 240.88 20.8957C240.88 21.676 241.098 22.1589 241.612 22.1589C242.687 22.1589 242.936 20.0386 242.936 19.0101ZM237.952 20.7716C237.952 18.1221 239.353 15.6429 242.578 15.6429C245.008 15.6429 245.897 17.0773 245.897 19.0572C245.897 21.6759 244.51 24.3879 241.207 24.3879C238.762 24.3879 237.952 22.7822 237.952 20.7716Z" fill="#306CB5"/>
</svg>
