<svg width="35" height="34" viewBox="0 0 35 34" fill="none" xmlns="http://www.w3.org/2000/svg">
<path d="M12 20.8009C12 22.6284 13.4025 24.1018 15.145 24.1018H18.7008C20.2167 24.1018 21.4492 22.8126 21.4492 21.2259C21.4492 19.4976 20.6983 18.8884 19.5792 18.4918L13.87 16.5084C12.7508 16.1118 12 15.5026 12 13.7743C12 12.1876 13.2325 10.8984 14.7483 10.8984H18.3042C20.0467 10.8984 21.4492 12.3718 21.4492 14.1993" stroke="#101010" stroke-width="1.5" stroke-linecap="round" stroke-linejoin="round"/>
<path d="M16.7148 9V26" stroke="#101010" stroke-width="1.5" stroke-linecap="round" stroke-linejoin="round"/>
<path d="M33.25 17C33.25 25.9746 25.9746 33.25 17 33.25C8.02537 33.25 0.75 25.9746 0.75 17C0.75 8.02537 8.02537 0.75 17 0.75C25.9746 0.75 33.25 8.02537 33.25 17Z" stroke="#101010" stroke-width="1.5" stroke-linecap="round" stroke-linejoin="round"/>
</svg>
