<svg width="12" height="8" viewBox="0 0 12 8" fill="none" xmlns="http://www.w3.org/2000/svg">
<path d="M5.57757 0.69006L0.27531 5.99242C0.152576 6.11505 0.084961 6.27876 0.0849609 6.45332C0.0849609 6.62788 0.152576 6.79159 0.27531 6.91423L0.665695 7.30471C0.920075 7.5588 1.33351 7.5588 1.58751 7.30471L6.04003 2.85219L10.4975 7.30965C10.6202 7.43229 10.7838 7.5 10.9583 7.5C11.133 7.5 11.2966 7.43229 11.4194 7.30965L11.8097 6.91917C11.9324 6.79644 12 6.63282 12 6.45826C12 6.2837 11.9324 6.11999 11.8097 5.99736L6.50258 0.69006C6.37946 0.567132 6.21507 0.499614 6.04032 0.500002C5.86489 0.499614 5.7006 0.567132 5.57757 0.69006Z" fill="#140342"/>
</svg>
