<svg width="48" height="48" viewBox="0 0 48 48" fill="none" xmlns="http://www.w3.org/2000/svg">
<rect width="48" height="48" rx="24" fill="white"/>
<rect x="4" y="4" width="40" height="40" rx="20" fill="url(#paint0_linear_2759_37930)"/>
<path d="M27.75 30.9375H20.25C17.5125 30.9375 15.9375 29.3625 15.9375 26.625V21.375C15.9375 18.6375 17.5125 17.0625 20.25 17.0625H27.75C30.4875 17.0625 32.0625 18.6375 32.0625 21.375V26.625C32.0625 29.3625 30.4875 30.9375 27.75 30.9375ZM20.25 18.1875C18.105 18.1875 17.0625 19.23 17.0625 21.375V26.625C17.0625 28.77 18.105 29.8125 20.25 29.8125H27.75C29.895 29.8125 30.9375 28.77 30.9375 26.625V21.375C30.9375 19.23 29.895 18.1875 27.75 18.1875H20.25Z" fill="#306CB5"/>
<path d="M24 26.8125C22.4475 26.8125 21.1875 25.5525 21.1875 24C21.1875 22.4475 22.4475 21.1875 24 21.1875C25.5525 21.1875 26.8125 22.4475 26.8125 24C26.8125 25.5525 25.5525 26.8125 24 26.8125ZM24 22.3125C23.07 22.3125 22.3125 23.07 22.3125 24C22.3125 24.93 23.07 25.6875 24 25.6875C24.93 25.6875 25.6875 24.93 25.6875 24C25.6875 23.07 24.93 22.3125 24 22.3125Z" fill="#306CB5"/>
<path d="M19.125 26.4375C18.8175 26.4375 18.5625 26.1825 18.5625 25.875V22.125C18.5625 21.8175 18.8175 21.5625 19.125 21.5625C19.4325 21.5625 19.6875 21.8175 19.6875 22.125V25.875C19.6875 26.1825 19.4325 26.4375 19.125 26.4375Z" fill="#306CB5"/>
<path d="M28.875 26.4375C28.5675 26.4375 28.3125 26.1825 28.3125 25.875V22.125C28.3125 21.8175 28.5675 21.5625 28.875 21.5625C29.1825 21.5625 29.4375 21.8175 29.4375 22.125V25.875C29.4375 26.1825 29.1825 26.4375 28.875 26.4375Z" fill="#306CB5"/>
<defs>
<linearGradient id="paint0_linear_2759_37930" x1="24" y1="4" x2="24" y2="44" gradientUnits="userSpaceOnUse">
<stop stop-color="#3C5AF6" stop-opacity="0.11"/>
<stop offset="1" stop-color="#3C5AF6" stop-opacity="0"/>
</linearGradient>
</defs>
</svg>
