<svg width="20" height="20" viewBox="0 0 20 20" fill="none" xmlns="http://www.w3.org/2000/svg">
<path d="M15.0165 10.275L13.9998 9.25834C13.7582 9.05 13.6165 8.74167 13.6082 8.40001C13.5915 8.02501 13.7415 7.65001 14.0165 7.37501L15.0165 6.37501C15.8832 5.50834 16.2082 4.67501 15.9332 4.01667C15.6665 3.36667 14.8415 3.00834 13.6248 3.00834H4.9165V2.29167C4.9165 1.95001 4.63317 1.66667 4.2915 1.66667C3.94984 1.66667 3.6665 1.95001 3.6665 2.29167V17.7083C3.6665 18.05 3.94984 18.3333 4.2915 18.3333C4.63317 18.3333 4.9165 18.05 4.9165 17.7083V13.6417H13.6248C14.8248 13.6417 15.6332 13.275 15.9082 12.6167C16.1832 11.9583 15.8665 11.1333 15.0165 10.275Z" fill="#306CB5"/>
</svg>
