<svg width="50" height="50" viewBox="0 0 50 50" fill="none" xmlns="http://www.w3.org/2000/svg">
<rect width="50" height="50" rx="25" fill="#F2F2F2"/>
<path d="M23.9399 35.65C23.4599 35.65 22.9899 35.53 22.5499 35.29C21.6699 34.8 21.1399 33.91 21.1399 32.91V27.61C21.1399 27.11 20.8099 26.36 20.4999 25.98L16.7599 22.02C16.1299 21.39 15.6499 20.31 15.6499 19.5V17.2C15.6499 15.6 16.8599 14.35 18.3999 14.35H31.5999C33.1199 14.35 34.3499 15.58 34.3499 17.1V19.3C34.3499 20.35 33.7199 21.54 33.1299 22.13L28.7999 25.96C28.3799 26.31 28.0499 27.08 28.0499 27.7V32C28.0499 32.89 27.4899 33.92 26.7899 34.34L25.4099 35.23C24.9599 35.51 24.4499 35.65 23.9399 35.65ZM18.3999 15.85C17.6999 15.85 17.1499 16.44 17.1499 17.2V19.5C17.1499 19.87 17.4499 20.59 17.8299 20.97L21.6399 24.98C22.1499 25.61 22.6499 26.66 22.6499 27.6V32.9C22.6499 33.55 23.0999 33.87 23.2899 33.97C23.7099 34.2 24.2199 34.2 24.6099 33.96L25.9999 33.07C26.2799 32.9 26.5599 32.36 26.5599 32V27.7C26.5599 26.63 27.0799 25.45 27.8299 24.82L32.1099 21.03C32.4499 20.69 32.8599 19.88 32.8599 19.29V17.1C32.8599 16.41 32.2999 15.85 31.6099 15.85H18.3999Z" fill="#101010"/>
<path d="M19.0002 23.75C18.8602 23.75 18.7302 23.71 18.6002 23.64C18.2502 23.42 18.1402 22.95 18.3602 22.6L23.2902 14.7C23.5102 14.35 23.9702 14.24 24.3202 14.46C24.6702 14.68 24.7802 15.14 24.5602 15.49L19.6302 23.39C19.4902 23.62 19.2502 23.75 19.0002 23.75Z" fill="#101010"/>
</svg>
