<svg width="316" height="235" viewBox="0 0 316 235" fill="none" xmlns="http://www.w3.org/2000/svg">
<g clip-path="url(#clip0_1982_30888)">
<path opacity="0.5" d="M259.795 56.9023C255.718 63.6359 251.567 72.4932 247.406 83.8527C220.43 157.555 78.9242 149.56 32.083 163.921C31.9201 160.278 34.1164 156.819 41.7823 155.258C61.4067 151.284 128.918 145.88 168.062 124.88C207.206 103.88 227.119 88.6099 235.809 69.6337C241.883 56.3924 253.395 52.3974 259.795 56.9023Z" fill="#9A7FCD"/>
<g opacity="0.5">
<path d="M130.489 119.361C130.489 119.361 132.26 77.834 95.9954 57.859C95.9954 57.8695 99.978 105.625 130.489 119.361Z" fill="#739AF0"/>
<path d="M130.505 132.87C130.505 132.87 125.844 95.4855 79.1924 93.651C86.0439 130.578 130.505 132.87 130.505 132.87Z" fill="#D9E5FF"/>
<path d="M128.761 139.346C128.761 139.346 109.704 123.929 91.792 140.671C105.505 155.121 128.761 139.346 128.761 139.346Z" fill="#FAC1E3"/>
</g>
<path opacity="0.5" d="M280.517 209.211C251.619 205.621 207.484 203.329 157.995 203.329C114.952 203.329 75.9397 205.064 47.5092 207.876C27.9478 199.014 8.10268 185.799 18.6111 171.453C20.9072 168.299 25.5834 165.902 32.0829 163.905C78.9241 149.555 220.43 157.539 247.405 83.8369C251.567 72.4775 255.717 63.6202 259.795 56.8865C285.845 13.8563 308.953 57.4858 312.515 88.4259C315.5 114.304 321.421 194.241 280.517 209.211Z" fill="#D9E5FF"/>
<path opacity="0.8" d="M158 235C244.985 235 315.5 227.914 315.5 219.172C315.5 210.431 244.985 203.345 158 203.345C71.0152 203.345 0.5 210.431 0.5 219.172C0.5 227.914 71.0152 235 158 235Z" fill="#739AF0"/>
<path d="M208.566 0H141.113C131.377 0 123.485 7.89581 123.485 17.6358V194.293C123.485 204.033 131.377 211.929 141.113 211.929H208.566C218.302 211.929 226.194 204.033 226.194 194.293V17.6358C226.194 7.89581 218.302 0 208.566 0Z" fill="#03397A"/>
<path d="M127.42 185.841V189.925C127.42 192.094 127.848 194.242 128.678 196.245C129.509 198.249 130.726 200.069 132.26 201.602C133.795 203.134 135.616 204.349 137.62 205.177C139.624 206.004 141.772 206.429 143.94 206.425H205.766C210.14 206.424 214.334 204.685 217.427 201.591C220.519 198.497 222.257 194.301 222.259 189.925V185.841H127.42Z" fill="#306CB5"/>
<path d="M222.259 25.5469H127.42V181.104H222.259V25.5469Z" fill="#F0F0FF"/>
<path d="M222.259 22.004C222.257 17.6283 220.519 13.4322 217.427 10.338C214.334 7.24393 210.14 5.50506 205.766 5.50366H143.94C139.566 5.50366 135.37 7.24209 132.277 10.3365C129.184 13.4309 127.447 17.6279 127.447 22.004V25.5469H222.285L222.259 22.004Z" fill="#306CB5"/>
<path d="M222.259 181.099H127.42V185.841H222.259V181.099Z" fill="#FFC5C4"/>
<path d="M176.789 201.169C179.447 201.169 181.602 199.013 181.602 196.354C181.602 193.694 179.447 191.539 176.789 191.539C174.131 191.539 171.976 193.694 171.976 196.354C171.976 199.013 174.131 201.169 176.789 201.169Z" fill="#FFF1F6"/>
<path d="M200.633 202.472V190.235L208.619 196.554L200.633 202.472Z" fill="#FFF1F6"/>
<path d="M152.373 198.872H144.423V200.664H152.373V198.872Z" fill="#FFF1F6"/>
<path d="M152.373 195.46H144.423V197.253H152.373V195.46Z" fill="#FFF1F6"/>
<path d="M152.373 192.043H144.423V193.836H152.373V192.043Z" fill="#FFF1F6"/>
<path d="M133.085 63.1629H116.376L127.421 21.7885H140.971L133.085 63.1629Z" fill="#739AF0"/>
<path d="M149.782 63.1629H133.084L140.971 21.7885H154.516L149.782 63.1629Z" fill="#FFF1F6"/>
<path d="M166.486 63.1629H149.782L154.517 21.7885H168.067L166.486 63.1629Z" fill="#739AF0"/>
<path d="M183.189 63.1629H166.486L168.067 21.7885H181.612L183.189 63.1629Z" fill="#FFF1F6"/>
<path d="M199.892 63.1629H183.189L181.612 21.7885H195.163L199.892 63.1629Z" fill="#739AF0"/>
<path d="M216.595 63.1629H199.892L195.163 21.7885H208.708L216.595 63.1629Z" fill="#FFF1F6"/>
<path d="M233.298 63.1629H216.595L208.708 21.7885H222.259L233.298 63.1629Z" fill="#739AF0"/>
<path d="M116.376 63.1628H133.079V70.0805C133.074 71.9896 132.312 73.8186 130.961 75.1665C129.609 76.5145 127.779 77.2715 125.871 77.2715H123.59C121.678 77.2715 119.845 76.5116 118.493 75.1591C117.141 73.8066 116.381 71.9722 116.381 70.0595V63.1628H116.376Z" fill="#739AF0"/>
<path d="M133.079 63.1628H149.782V70.0805C149.777 71.9896 149.015 73.8186 147.664 75.1665C146.312 76.5145 144.482 77.2715 142.574 77.2715H140.293C138.381 77.2715 136.548 76.5116 135.196 75.1591C133.844 73.8066 133.085 71.9722 133.085 70.0595V63.1628H133.079Z" fill="#DBD4FA"/>
<path d="M149.782 63.1628H166.486V70.0805C166.48 71.9896 165.718 73.8186 164.367 75.1665C163.015 76.5145 161.185 77.2715 159.277 77.2715H156.996C156.05 77.2715 155.112 77.0849 154.238 76.7225C153.363 76.36 152.569 75.8288 151.899 75.1591C151.23 74.4894 150.699 73.6944 150.336 72.8194C149.974 71.9444 149.788 71.0065 149.788 70.0595V63.1628H149.782Z" fill="#739AF0"/>
<path d="M166.486 63.1628H183.189V70.0805C183.183 71.9878 182.423 73.8152 181.074 75.1628C179.725 76.5105 177.897 77.2687 175.99 77.2715H173.71C171.798 77.2715 169.965 76.5116 168.613 75.1591C167.261 73.8066 166.501 71.9722 166.501 70.0595V63.1628H166.486Z" fill="#DBD4FA"/>
<path d="M183.189 63.1628H199.892V70.0805C199.886 71.9896 199.124 73.8186 197.773 75.1665C196.422 76.5145 194.591 77.2715 192.683 77.2715H190.403C188.491 77.2715 186.657 76.5116 185.305 75.1591C183.953 73.8066 183.194 71.9722 183.194 70.0595V63.1628H183.189Z" fill="#739AF0"/>
<path d="M199.892 63.1628H216.595V70.0805C216.589 71.9896 215.827 73.8186 214.476 75.1665C213.125 76.5145 211.294 77.2715 209.386 77.2715H207.106C205.194 77.2715 203.36 76.5116 202.009 75.1591C200.657 73.8066 199.897 71.9722 199.897 70.0595V63.1628H199.892Z" fill="#DBD4FA"/>
<path d="M216.595 63.1628H233.298V70.0805C233.293 71.9896 232.531 73.8186 231.179 75.1665C229.828 76.5145 227.998 77.2715 226.089 77.2715H223.804C222.857 77.2715 221.92 77.0849 221.045 76.7225C220.17 76.36 219.376 75.8288 218.706 75.1591C218.037 74.4894 217.506 73.6944 217.144 72.8194C216.781 71.9444 216.595 71.0065 216.595 70.0595V63.1628Z" fill="#739AF0"/>
<path d="M53.9197 217.569C55.0166 217.569 55.9058 216.68 55.9058 215.582C55.9058 214.485 55.0166 213.595 53.9197 213.595C52.8228 213.595 51.9336 214.485 51.9336 215.582C51.9336 216.68 52.8228 217.569 53.9197 217.569Z" fill="#306CB5"/>
<path d="M79.0608 217.569C80.1577 217.569 81.0469 216.68 81.0469 215.582C81.0469 214.485 80.1577 213.595 79.0608 213.595C77.9639 213.595 77.0747 214.485 77.0747 215.582C77.0747 216.68 77.9639 217.569 79.0608 217.569Z" fill="#306CB5"/>
<path d="M109.004 165.408L103.96 164.951C103.645 164.925 103.34 164.909 103.041 164.909C101.26 164.871 99.5176 165.426 98.0862 166.486C97.4698 166.931 96.9363 167.481 96.51 168.11V168.136L95.002 172.941L45.292 177.987V198.514C45.2904 199.169 45.5454 199.798 46.0021 200.267C46.4589 200.735 47.0811 201.006 47.7352 201.022L85.7809 201.994L84.2046 206.893L88.1978 210.983C88.38 211.164 88.5245 211.379 88.6228 211.616C88.7211 211.854 88.7713 212.108 88.7705 212.365C88.7758 212.877 88.5882 213.373 88.2451 213.753C88.0611 213.95 87.838 214.106 87.5901 214.212C87.3422 214.318 87.075 214.371 86.8055 214.368H46.8945V214.894H86.8265C87.1681 214.897 87.5066 214.829 87.8205 214.694C88.1345 214.559 88.4168 214.36 88.6497 214.11C89.0737 213.629 89.304 213.007 89.296 212.365C89.295 211.713 89.0363 211.087 88.5761 210.625L84.8036 206.762L89.8687 190.803L95.601 172.862H95.5747L96.9986 168.378C97.4122 167.789 97.9219 167.274 98.5066 166.854C99.8263 165.901 101.419 165.401 103.046 165.429C103.325 165.429 103.619 165.429 103.918 165.471L108.962 165.929L109.01 165.403L109.004 165.408ZM82.4655 201.368L83.1118 198.362L86.8633 198.483L85.9175 201.458L82.4655 201.368ZM45.8174 182.886L50.4306 182.497L50.6145 187.849L45.8174 188.027V182.886ZM85.1294 186.534L79.5862 186.745L80.2167 179.98L86.6531 179.454L85.1294 186.534ZM87.1995 179.386L93.1105 178.886L90.7514 186.319L85.6706 186.513L87.1995 179.386ZM82.7019 197.82L78.5774 197.684L78.9819 193.305H83.674L82.7019 197.82ZM84.2099 193.305H88.5288L87.0472 197.962L83.2379 197.836L84.2099 193.305ZM51.1557 188.353L58.1228 188.085L58.3067 192.779H51.3081L51.1557 188.353ZM50.7826 192.779H45.8174V188.574L50.6355 188.39L50.7826 192.779ZM58.6639 188.048L65.0688 187.801L65.2054 192.758H58.8216L58.6639 188.048ZM72.5561 187.523L79.024 187.276L78.4986 192.763H72.3301L72.5561 187.523ZM71.8205 192.779H65.7151L65.5785 187.801L72.0149 187.559L71.8205 192.779ZM72.5771 186.997L72.8345 180.589L79.6965 180.006L79.0765 186.75L72.5771 186.997ZM72.0517 186.997L65.5785 187.239L65.4103 181.194L72.3091 180.61L72.0517 186.997ZM65.0531 187.26L58.6429 187.507L58.4223 181.788L64.8849 181.262L65.0531 187.26ZM65.2212 193.268L65.3315 197.216L59.0265 197.006L58.8794 193.268H65.2212ZM65.7466 193.268H71.7995L71.6366 197.421L65.857 197.232L65.7466 193.268ZM72.3249 193.268H78.467L78.0625 197.631L72.162 197.437L72.3249 193.268ZM79.045 192.742L79.5704 187.234L85.0453 187.029L83.8158 192.742H79.045ZM80.2797 179.412L80.7001 174.87L87.7985 174.15L86.7844 178.881L80.2797 179.412ZM79.7543 179.454L72.8608 180.037L73.0342 175.648L80.1747 174.923L79.7543 179.454ZM72.3354 180.085L65.3998 180.668L65.279 176.463L72.5088 175.727L72.3354 180.085ZM64.8744 180.71L58.4065 181.236L58.2436 177.125L64.7536 176.463L64.8744 180.71ZM57.8601 181.351L50.9403 181.924L50.8037 177.94L57.6972 177.241L57.8601 181.351ZM57.8601 181.877L58.0807 187.57L51.1189 187.838L50.9403 182.45L57.8601 181.877ZM45.7754 193.315H50.7616L50.8772 196.79L45.8174 196.596L45.7754 193.315ZM51.287 193.315H58.2856L58.4328 197.037L51.4657 196.795L51.287 193.315ZM58.4538 197.563L58.5799 200.769L51.534 200.59L51.4237 197.331L58.4538 197.563ZM58.9792 197.563L65.2842 197.773L65.3736 200.927L59.1 200.769L58.9792 197.563ZM65.8097 197.789L71.5525 197.978L71.4264 201.085L65.899 200.943L65.8097 197.789ZM72.0779 197.994L77.9521 198.188L77.6684 201.242L71.9518 201.095L72.0779 197.994ZM78.4776 198.204L82.5443 198.335L81.9401 201.358L78.2621 201.263L78.4776 198.204ZM88.6497 192.774H84.2782L85.5077 187.039L90.5359 186.845L89.3537 190.571L88.6497 192.774ZM93.2314 178.339L87.2678 178.865L88.2819 174.134L94.8286 173.467L93.2314 178.339ZM50.231 177.993L50.3676 181.966L45.7701 182.355V178.445L50.231 177.993ZM45.7701 198.493V197.121L50.893 197.289L51.0033 200.548L47.7037 200.464C47.1976 200.44 46.72 200.223 46.3692 199.857C46.0183 199.492 45.8209 199.005 45.8174 198.498L45.7701 198.493Z" fill="#306CB5"/>
<path d="M113.61 163.957L103.666 162.919C102.751 162.823 101.932 163.488 101.836 164.403L101.785 164.889C101.69 165.804 102.354 166.624 103.269 166.72L113.214 167.758C114.129 167.854 114.948 167.189 115.043 166.274L115.094 165.788C115.189 164.872 114.525 164.053 113.61 163.957Z" fill="#EA4846"/>
<path d="M185.39 10.6866H164.295C163.662 10.6866 163.149 11.1997 163.149 11.8326C163.149 12.4655 163.662 12.9785 164.295 12.9785H185.39C186.023 12.9785 186.536 12.4655 186.536 11.8326C186.536 11.1997 186.023 10.6866 185.39 10.6866Z" fill="#FFF1F6"/>
<path d="M59.7676 35.9128L49.4536 42.8147L50.3573 55.4305L68.0798 81.9236L88.8234 68.0357L71.1009 41.5426L59.7676 35.9128ZM61.3859 49.5011C60.8143 49.8847 60.1417 50.09 59.4533 50.0911C58.765 50.0921 58.0918 49.8887 57.519 49.5068C56.9462 49.1248 56.4996 48.5814 56.2357 47.9454C55.9718 47.3094 55.9024 46.6093 56.0364 45.9338C56.1705 45.2583 56.5018 44.6378 56.9885 44.1508C57.4752 43.6638 58.0954 43.3322 58.7706 43.1981C59.4457 43.0639 60.1455 43.1332 60.7813 43.3971C61.4171 43.6611 61.9603 44.1078 62.3422 44.6808C62.8516 45.4477 63.037 46.3851 62.8578 47.2882C62.6786 48.1914 62.1495 48.9869 61.3859 49.5011Z" fill="#739AF0"/>
<g opacity="0.6">
<path d="M56.284 45.0803L58.538 47.3827L58.5958 47.4142C58.7372 47.4846 58.8829 47.546 59.0319 47.5982C59.3224 47.7103 59.6297 47.7725 59.9409 47.7822C60.191 47.7936 60.437 47.7153 60.6345 47.5614C60.7457 47.4694 60.8309 47.3498 60.8814 47.2145C60.9372 47.0741 60.964 46.9239 60.9602 46.7729C60.9111 46.1654 60.732 45.5756 60.4348 45.0435C59.3157 42.7937 56.2682 38.5569 49.1383 30.4723C47.091 28.2484 45.271 25.8253 43.7054 23.2393C42.6073 21.3259 42.1765 19.8804 42.1817 18.8448C42.1625 18.3175 42.2996 17.7963 42.5758 17.3467C43.0209 16.738 43.6666 16.3061 44.399 16.1272C45.3066 15.8724 46.2465 15.752 47.189 15.7697C48.4916 15.7862 49.7905 15.9128 51.0718 16.1482C51.5972 16.2428 52.0544 16.3374 52.3644 16.4058L52.7269 16.4899L52.853 16.5214L52.9528 16.1429L52.7899 16.5004C53.5403 16.8858 54.2107 17.4102 54.7655 18.0458C55.9783 19.4099 56.6297 21.1829 56.5887 23.008C56.5887 25.4628 55.5957 28.7902 52.501 33.1427L52.8267 33.374L52.5167 33.1479C52.5167 33.1479 51.9072 33.9101 51.2978 34.8668C50.9805 35.3555 50.6961 35.8647 50.4466 36.3912C50.2104 36.8594 50.0728 37.3711 50.042 37.8946C50.0403 38.057 50.0651 38.2186 50.1156 38.373C50.4139 39.0885 50.8617 39.7319 51.4291 40.2601C51.7121 40.5431 52.0141 40.8065 52.3328 41.0485L52.7952 40.4125C52.4856 40.1713 52.1925 39.9096 51.9177 39.6293C51.4661 39.2032 51.1082 38.6876 50.8669 38.1154C50.8429 38.048 50.8322 37.9766 50.8354 37.9051C50.8683 37.4942 50.9826 37.0939 51.1717 36.7276C51.5229 36.0052 51.9324 35.3126 52.3959 34.6566C52.606 34.3569 52.7899 34.1309 52.9213 33.9259C52.9896 33.8365 53.0421 33.7682 53.0842 33.7209L53.1367 33.6473C56.2892 29.195 57.3664 25.7257 57.3664 23.0553C57.4149 20.9877 56.6617 18.9815 55.2647 17.4571C54.6538 16.7881 53.9276 16.2344 53.121 15.8223H53.0894L53.0421 15.7697C51.1231 15.2904 49.1561 15.0294 47.1785 14.9917C45.8374 14.9343 44.5013 15.1879 43.2746 15.7329C42.7215 16.0045 42.2488 16.4158 41.9032 16.9262C41.5454 17.4991 41.3627 18.1641 41.3778 18.8396C41.3778 20.0906 41.8717 21.6413 43.0014 23.6283C44.5992 26.2669 46.4542 28.7408 48.5393 31.0138C53.2681 36.386 56.2052 40.0551 57.9391 42.5361C58.5977 43.4536 59.1911 44.4162 59.715 45.4167C59.9614 45.839 60.1171 46.3081 60.1721 46.794C60.1813 46.8444 60.1813 46.896 60.1721 46.9464L60.1353 46.9885C60.0809 47.0129 60.0214 47.0237 59.9619 47.02C59.7423 47.0053 59.5262 46.9575 59.3209 46.8781C59.2331 46.8482 59.1471 46.8131 59.0635 46.7729L58.9952 46.7414L58.8165 47.0936L59.095 46.8203L56.8882 44.5599L56.326 45.1119L56.284 45.0803Z" fill="#306CB5"/>
</g>
<path opacity="0.5" d="M84.3727 120.244H53.8983C51.6566 120.245 49.5071 121.137 47.922 122.723C46.3369 124.309 45.4457 126.459 45.4443 128.702V137.039C45.4457 139.281 46.337 141.431 47.9223 143.016C49.5076 144.601 51.6571 145.491 53.8983 145.491H84.3727C85.4827 145.492 86.5819 145.274 87.6075 144.849C88.6332 144.425 89.5652 143.802 90.3503 143.017C91.1354 142.232 91.7582 141.3 92.1831 140.274C92.608 139.249 92.8267 138.149 92.8267 137.039V128.702C92.8267 126.459 91.9361 124.307 90.3506 122.721C88.7652 121.135 86.6149 120.244 84.3727 120.244ZM84.0049 128.907C83.3752 128.907 82.7596 128.72 82.236 128.37C81.7124 128.02 81.3042 127.522 81.0633 126.94C80.8223 126.358 80.7592 125.718 80.8821 125.1C81.0049 124.482 81.3082 123.914 81.7535 123.469C82.1988 123.023 82.7661 122.72 83.3838 122.597C84.0014 122.474 84.6416 122.537 85.2234 122.778C85.8052 123.019 86.3025 123.428 86.6524 123.951C87.0022 124.475 87.189 125.091 87.189 125.721C87.189 126.566 86.8535 127.376 86.2564 127.974C85.6593 128.571 84.8494 128.907 84.0049 128.907Z" fill="#739AF0"/>
<path d="M256.695 138.053C256.695 138.053 255.056 143.531 257.536 145.454C260.016 147.378 261.702 146.296 261.424 144.514C261.145 142.732 259.69 138.658 259.69 138.658L256.695 138.053Z" fill="#FFC7BB"/>
<path d="M236.971 93.2515C236.971 93.2515 224.418 94.3028 223.336 92.6838C222.254 91.0648 226.32 87.0645 226.662 79.8367C227.003 72.609 227.382 69.1238 228.569 66.1697C229.757 63.2155 232.347 59.5674 236.671 59.4518C240.995 59.3361 245.346 62.6635 246.491 69.0818C247.637 75.5001 250.395 75.3897 254.063 74.0125C257.73 72.6352 262.08 81.0615 257.042 83.0432C252.003 85.025 256.579 87.9634 258.875 88.4417C261.172 88.9201 261.166 96.2635 258.072 97.8667C254.977 99.47 238.568 94.7391 236.971 93.2515Z" fill="#306CB5"/>
<path d="M200.979 91.9899C200.979 91.9899 204.699 85.619 208.467 89.5299C209.711 90.9589 210.602 92.6605 211.067 94.4973L207.39 94.9178L206.428 93.1832C206.428 93.1832 203.67 93.5616 203.433 91.8533C203.197 90.1449 203.27 90.6548 203.27 90.6548L201.773 92.7574C201.773 92.7574 200.065 93.7929 200.979 91.9899Z" fill="#FFC7BB"/>
<path d="M229.137 90.6284C228.238 91.0227 219.989 111.46 219.989 111.46L211.314 93.1516L206.817 94.5708C206.817 94.5708 215.413 119.277 219.91 118.562C224.408 117.847 234.501 96.3896 234.501 96.3896L229.137 90.6284Z" fill="#FF6683"/>
<path d="M237.811 215.934C237.733 216.46 236.592 221.144 235.841 222.29C235.09 223.436 236.314 225.88 238.053 225.969C239.792 226.059 240.812 222.337 240.812 222.337C240.812 222.337 240.927 216.697 240.575 216.145C240.223 215.593 237.811 215.934 237.811 215.934Z" fill="#306CB5"/>
<path d="M249.407 215.824C249.407 215.824 248.304 219.961 247.831 221.107C247.358 222.253 246.134 225.128 248.619 225.249C251.105 225.37 252.05 222.8 252.092 222.621C252.134 222.442 252.486 222.347 252.486 222.347L252.633 215.314L249.407 215.824Z" fill="#306CB5"/>
<path d="M226.615 130.662C226.615 130.662 222.616 141.076 227.981 158.123C233.345 175.17 237.338 216.933 237.338 216.933H241.757L240.496 187.581C240.496 187.581 237.549 166.854 237.233 165.503C236.918 164.152 239.335 133.307 239.335 133.307L226.615 130.662Z" fill="#306CB5"/>
<path d="M250.695 134.132C250.695 134.132 251.435 145.076 238.61 169.167C246.076 181.162 246.491 185.162 250.29 203.781C254.089 222.4 252.702 215.566 252.702 215.566L249.859 216.302C249.859 216.302 230.492 171.89 231.075 165.697C231.659 159.505 236.288 131.293 236.288 131.293L250.695 134.132Z" fill="#163560"/>
<path d="M229.662 88.1526C229.662 88.1526 223.457 95.7273 224.298 97.6145C225.138 99.5016 231.559 104.033 230.503 111.807C229.447 119.582 225.879 130.641 225.879 130.641C225.879 130.641 233.555 142.947 254.063 135.793C254.063 131.903 249.434 122.851 246.181 118.446C242.929 114.041 248.808 99.0863 248.808 99.0863C248.808 99.0863 253.012 87.9319 247.758 86.9962C242.503 86.0605 233.555 84.7884 229.662 88.1526Z" fill="#FE3E64"/>
<path d="M244.994 94.0189C244.994 94.0189 250.668 114.93 251.299 117.3C251.929 119.671 256.506 139.63 256.506 139.63L260.137 138.842L255.245 115.187C255.245 115.187 253.348 90.045 251.22 88.8307C249.092 87.6164 244.994 89.1251 244.994 94.0189Z" fill="#FF6683"/>
<path d="M233.188 87.2065C233.188 87.2065 226.357 92.8888 230.45 93.5722C234.543 94.2555 242.125 90.5759 242.23 87.8898C242.335 85.2037 239.141 86.3128 239.141 86.3128L238.027 79.2638H233.298L233.188 87.2065Z" fill="#FFC7BB"/>
<path d="M231.065 63.6676C231.065 63.6676 226.662 80.9827 233.655 82.8172C240.649 84.6518 243.171 73.1872 243.638 67.794C244.106 62.4007 233.629 60.3402 231.065 63.6676Z" fill="#FFC7BB"/>
<path d="M236.293 65.1815C236.293 65.1815 242.072 73.8968 244.027 72.8613C245.982 71.8258 247.153 66.443 243.643 63.8042C240.134 61.1654 236.062 59.5937 236.293 65.1815Z" fill="#306CB5"/>
<path d="M235.032 60.9761C235.032 60.9761 239.388 60.9183 236.293 65.1814C233.198 69.4444 229.699 69.0765 229.699 69.0765C229.699 69.0765 229.284 65.9225 230.103 64.088C230.923 62.2535 235.032 60.9761 235.032 60.9761Z" fill="#306CB5"/>
<path d="M169.759 106.813H133.079V109.52H169.759V106.813Z" fill="#163560"/>
<path d="M215.628 137.123H147.597V139.83H215.628V137.123Z" fill="#163560"/>
<path d="M173.158 167.6H136.479V170.307H173.158V167.6Z" fill="#163560"/>
<path d="M144.076 170.307H140.183V179.323H144.076V170.307Z" fill="#163560"/>
<path d="M169.696 170.307H165.802V179.323H169.696V170.307Z" fill="#163560"/>
<path d="M168.072 139.63H164.179V148.645H168.072V139.63Z" fill="#163560"/>
<path d="M152.725 109.515H148.831V118.53H152.725V109.515Z" fill="#163560"/>
<path d="M202.456 139.63H198.562V148.645H202.456V139.63Z" fill="#163560"/>
<path d="M147.297 87.937C147.297 87.937 146.041 80.6619 149.719 80.7355C153.397 80.8091 153.471 88.4101 153.471 88.4101" stroke="black" stroke-miterlimit="10"/>
<path d="M159.109 106.566H143.541L145.422 87.3115H157.233L159.109 106.566Z" fill="#03397A"/>
<path d="M149.604 88.263C149.604 88.263 148.353 80.9879 152.026 81.0668C155.699 81.1456 155.778 88.7361 155.778 88.7361" stroke="black" stroke-miterlimit="10"/>
<path d="M157.233 87.3115H158.384L161.904 106.293L159.109 106.566L157.233 87.3115Z" fill="#306CB5"/>
<path d="M166.533 118.346C166.533 118.346 165.277 111.066 168.955 111.145C172.633 111.224 172.722 118.798 172.722 118.798" stroke="black" stroke-miterlimit="10"/>
<path d="M178.36 136.976H162.792L164.668 117.721H176.484L178.36 136.976Z" fill="#739AF0"/>
<path d="M168.855 118.672C168.855 118.672 167.584 111.397 171.262 111.476C174.94 111.555 175.013 119.145 175.013 119.145" stroke="black" stroke-miterlimit="10"/>
<path d="M176.484 117.721H177.635L181.155 136.702L178.36 136.976L176.484 117.721Z" fill="#306CB5"/>
<path d="M190.702 118.346C190.702 118.346 189.446 111.066 193.124 111.145C196.802 111.224 196.871 118.798 196.871 118.798" stroke="black" stroke-miterlimit="10"/>
<path d="M202.508 136.976H186.94L188.816 117.721H200.627L202.508 136.976Z" fill="#739AF0"/>
<path d="M193.003 118.672C193.003 118.672 191.753 111.397 195.431 111.476C199.109 111.555 199.182 119.145 199.182 119.145" stroke="black" stroke-miterlimit="10"/>
<path d="M200.627 117.721H201.783L205.304 136.702L202.508 136.976L200.627 117.721Z" fill="#306CB5"/>
<path d="M149.388 149.244C149.388 149.244 148.143 141.964 151.821 142.043C155.499 142.122 155.567 149.712 155.567 149.712" stroke="black" stroke-miterlimit="10"/>
<path d="M161.205 167.868H145.637L147.513 148.619H159.324L161.205 167.868Z" fill="#03397A"/>
<path d="M151.695 149.57C151.695 149.57 150.444 142.29 154.122 142.369C157.8 142.448 157.869 150.038 157.869 150.038" stroke="black" stroke-miterlimit="10"/>
<path d="M159.324 148.619H160.48L164 167.595L161.205 167.868L159.324 148.619Z" fill="#306CB5"/>
</g>
<defs>
<clipPath id="clip0_1982_30888">
<rect width="315" height="235" fill="white" transform="translate(0.5)"/>
</clipPath>
</defs>
</svg>
