<svg width="48" height="48" viewBox="0 0 48 48" fill="none" xmlns="http://www.w3.org/2000/svg">
<rect width="48" height="48" rx="24" fill="white"/>
<rect x="4" y="4" width="40" height="40" rx="20" fill="url(#paint0_linear_2759_37937)"/>
<path d="M31.5 21.9375H16.5C16.1925 21.9375 15.9375 21.6825 15.9375 21.375C15.9375 21.0675 16.1925 20.8125 16.5 20.8125H31.5C31.8075 20.8125 32.0625 21.0675 32.0625 21.375C32.0625 21.6825 31.8075 21.9375 31.5 21.9375Z" fill="#306CB5"/>
<path d="M21 27.9375H19.5C19.1925 27.9375 18.9375 27.6825 18.9375 27.375C18.9375 27.0675 19.1925 26.8125 19.5 26.8125H21C21.3075 26.8125 21.5625 27.0675 21.5625 27.375C21.5625 27.6825 21.3075 27.9375 21 27.9375Z" fill="#306CB5"/>
<path d="M25.875 27.9375H22.875C22.5675 27.9375 22.3125 27.6825 22.3125 27.375C22.3125 27.0675 22.5675 26.8125 22.875 26.8125H25.875C26.1825 26.8125 26.4375 27.0675 26.4375 27.375C26.4375 27.6825 26.1825 27.9375 25.875 27.9375Z" fill="#306CB5"/>
<path d="M28.17 30.9375H19.83C16.845 30.9375 15.9375 30.0375 15.9375 27.0825V20.9175C15.9375 17.9625 16.845 17.0625 19.83 17.0625H28.1625C31.1475 17.0625 32.055 17.9625 32.055 20.9175V27.075C32.0625 30.0375 31.155 30.9375 28.17 30.9375ZM19.83 18.1875C17.475 18.1875 17.0625 18.5925 17.0625 20.9175V27.075C17.0625 29.4 17.475 29.805 19.83 29.805H28.1625C30.5175 29.805 30.93 29.4 30.93 27.075V20.9175C30.93 18.5925 30.5175 18.1875 28.1625 18.1875H19.83Z" fill="#306CB5"/>
<defs>
<linearGradient id="paint0_linear_2759_37937" x1="24" y1="4" x2="24" y2="44" gradientUnits="userSpaceOnUse">
<stop stop-color="#3C5AF6" stop-opacity="0.11"/>
<stop offset="1" stop-color="#3C5AF6" stop-opacity="0"/>
</linearGradient>
</defs>
</svg>
