<svg width="36" height="36" viewBox="0 0 36 36" fill="none" xmlns="http://www.w3.org/2000/svg">
<rect width="36" height="36" rx="5" fill="#306CB5"/>
<path d="M28 14.52V9.98C28 8.57 27.36 8 25.77 8H21.73C20.14 8 19.5 8.57 19.5 9.98V14.51C19.5 15.93 20.14 16.49 21.73 16.49H25.77C27.36 16.5 28 15.93 28 14.52Z" stroke="#DFEDFF" stroke-width="1.5" stroke-linecap="round" stroke-linejoin="round"/>
<path d="M28 25.77V21.73C28 20.14 27.36 19.5 25.77 19.5H21.73C20.14 19.5 19.5 20.14 19.5 21.73V25.77C19.5 27.36 20.14 28 21.73 28H25.77C27.36 28 28 27.36 28 25.77Z" stroke="#DFEDFF" stroke-width="1.5" stroke-linecap="round" stroke-linejoin="round"/>
<path d="M16.5 14.52V9.98C16.5 8.57 15.86 8 14.27 8H10.23C8.64 8 8 8.57 8 9.98V14.51C8 15.93 8.64 16.49 10.23 16.49H14.27C15.86 16.5 16.5 15.93 16.5 14.52Z" stroke="#DFEDFF" stroke-width="1.5" stroke-linecap="round" stroke-linejoin="round"/>
<path d="M16.5 25.77V21.73C16.5 20.14 15.86 19.5 14.27 19.5H10.23C8.64 19.5 8 20.14 8 21.73V25.77C8 27.36 8.64 28 10.23 28H14.27C15.86 28 16.5 27.36 16.5 25.77Z" stroke="#DFEDFF" stroke-width="1.5" stroke-linecap="round" stroke-linejoin="round"/>
</svg>
