<svg width="48" height="48" viewBox="0 0 48 48" fill="none" xmlns="http://www.w3.org/2000/svg">
<rect width="48" height="48" rx="24" fill="white"/>
<rect x="4" y="4" width="40" height="40" rx="20" fill="url(#paint0_linear_2059_38645)"/>
<path d="M24 32.0625C19.5525 32.0625 15.9375 28.4475 15.9375 24C15.9375 19.5525 19.5525 15.9375 24 15.9375C28.4475 15.9375 32.0625 19.5525 32.0625 24C32.0625 28.4475 28.4475 32.0625 24 32.0625ZM24 17.0625C20.175 17.0625 17.0625 20.175 17.0625 24C17.0625 27.825 20.175 30.9375 24 30.9375C27.825 30.9375 30.9375 27.825 30.9375 24C30.9375 20.175 27.825 17.0625 24 17.0625Z" fill="#306CB5"/>
<path d="M24 25.3125C23.6925 25.3125 23.4375 25.0575 23.4375 24.75V21C23.4375 20.6925 23.6925 20.4375 24 20.4375C24.3075 20.4375 24.5625 20.6925 24.5625 21V24.75C24.5625 25.0575 24.3075 25.3125 24 25.3125Z" fill="#3D5BF6"/>
<path d="M24 27.75C23.9025 27.75 23.805 27.7275 23.715 27.69C23.625 27.6525 23.5425 27.6 23.4675 27.5325C23.4 27.4575 23.3475 27.3825 23.31 27.285C23.2725 27.195 23.25 27.0975 23.25 27C23.25 26.9025 23.2725 26.805 23.31 26.715C23.3475 26.625 23.4 26.5425 23.4675 26.4675C23.5425 26.4 23.625 26.3475 23.715 26.31C23.895 26.235 24.105 26.235 24.285 26.31C24.375 26.3475 24.4575 26.4 24.5325 26.4675C24.6 26.5425 24.6525 26.625 24.69 26.715C24.7275 26.805 24.75 26.9025 24.75 27C24.75 27.0975 24.7275 27.195 24.69 27.285C24.6525 27.3825 24.6 27.4575 24.5325 27.5325C24.4575 27.6 24.375 27.6525 24.285 27.69C24.195 27.7275 24.0975 27.75 24 27.75Z" fill="#306CB5"/>
<defs>
<linearGradient id="paint0_linear_2059_38645" x1="24" y1="4" x2="24" y2="44" gradientUnits="userSpaceOnUse">
<stop stop-color="#3C5AF6" stop-opacity="0.11"/>
<stop offset="1" stop-color="#3C5AF6" stop-opacity="0"/>
</linearGradient>
</defs>
</svg>
