<svg width="16" height="15" viewBox="0 0 16 15" fill="none" xmlns="http://www.w3.org/2000/svg">
<path d="M15.5112 5.77179C14.9096 4.78663 14.1507 3.90665 13.2647 3.16675L15.1307 1.30078C15.2521 1.17509 15.3193 1.00675 15.3177 0.832016C15.3162 0.657283 15.2461 0.490136 15.1226 0.366577C14.999 0.243017 14.8319 0.17293 14.6571 0.171412C14.4824 0.169894 14.3141 0.237065 14.1884 0.358459L12.1591 2.39037C10.9012 1.6432 9.46307 1.25377 8 1.26412C3.8742 1.26412 1.52307 4.08841 0.488783 5.77179C0.169253 6.2886 0 6.8842 0 7.49182C0 8.09943 0.169253 8.69503 0.488783 9.21184C1.0904 10.197 1.84927 11.077 2.73528 11.8169L0.869308 13.6829C0.805659 13.7443 0.754889 13.8179 0.719963 13.8992C0.685037 13.9805 0.666653 14.0679 0.665884 14.1564C0.665115 14.2449 0.681976 14.3327 0.715484 14.4146C0.748993 14.4965 0.798476 14.5709 0.861048 14.6334C0.92362 14.696 0.998027 14.7455 1.07993 14.779C1.16183 14.8125 1.24958 14.8294 1.33807 14.8286C1.42656 14.8278 1.514 14.8094 1.59531 14.7745C1.67661 14.7396 1.75015 14.6888 1.81163 14.6252L3.84554 12.5913C5.10192 13.3383 6.53832 13.7284 8 13.7195C12.1258 13.7195 14.4769 10.8952 15.5112 9.21184C15.8307 8.69503 16 8.09943 16 7.49182C16 6.8842 15.8307 6.2886 15.5112 5.77179ZM1.62436 8.5141C1.43452 8.20691 1.33397 7.85293 1.33397 7.49182C1.33397 7.1307 1.43452 6.77672 1.62436 6.46953C2.51337 5.02606 4.52262 2.59696 8 2.59696C9.10644 2.59076 10.1973 2.85742 11.1762 3.37334L9.83465 4.71484C9.19485 4.29007 8.42778 4.09974 7.66361 4.17614C6.89945 4.25255 6.18525 4.59098 5.64221 5.13402C5.09917 5.67707 4.76073 6.39126 4.68433 7.15543C4.60792 7.91959 4.79825 8.68666 5.22303 9.32647L3.6836 10.8659C2.8673 10.206 2.17072 9.41041 1.62436 8.5141ZM9.99926 7.49182C9.99926 8.02205 9.78862 8.53057 9.41369 8.90551C9.03876 9.28044 8.53024 9.49107 8 9.49107C7.70312 9.48993 7.41035 9.42157 7.14365 9.29115L9.79933 6.63547C9.92976 6.90217 9.99811 7.19493 9.99926 7.49182ZM6.00074 7.49182C6.00074 6.96158 6.21138 6.45306 6.58631 6.07812C6.96124 5.70319 7.46976 5.49256 8 5.49256C8.29688 5.49371 8.58965 5.56206 8.85635 5.69248L6.20067 8.34816C6.07024 8.08146 6.00189 7.7887 6.00074 7.49182ZM14.3756 8.5141C13.4866 9.95757 11.4774 12.3867 8 12.3867C6.89356 12.3929 5.80266 12.1262 4.82384 11.6103L6.16535 10.2688C6.80515 10.6936 7.57222 10.8839 8.33639 10.8075C9.10055 10.7311 9.81475 10.3926 10.3578 9.84961C10.9008 9.30657 11.2393 8.59237 11.3157 7.8282C11.3921 7.06404 11.2017 6.29697 10.777 5.65716L12.3164 4.11773C13.1327 4.77767 13.8293 5.57323 14.3756 6.46953C14.5655 6.77672 14.666 7.1307 14.666 7.49182C14.666 7.85293 14.5655 8.20691 14.3756 8.5141Z" fill="#4B5563"/>
</svg>
