<svg width="35" height="34" viewBox="0 0 35 34" fill="none" xmlns="http://www.w3.org/2000/svg">
<path fill-rule="evenodd" clip-rule="evenodd" d="M11.2051 4.25H5.91188C5.55806 4.25 5.22745 4.42613 5.03007 4.71978L5.91188 5.3125C5.03007 4.71978 5.03003 4.71984 5.02997 4.71992L5.02313 4.73013C5.01894 4.73639 5.01291 4.74541 5.00517 4.75705C4.98967 4.78032 4.96728 4.81405 4.93894 4.85704C4.88229 4.94298 4.80174 5.06614 4.70487 5.21684C4.51157 5.51759 4.25126 5.93125 3.9855 6.37976C3.72129 6.82566 3.44371 7.31939 3.22037 7.77745C3.01604 8.19651 2.79176 8.71316 2.73338 9.15889C2.55817 10.4974 3.11572 11.683 3.97126 12.5007C4.2343 12.7522 4.52989 12.9738 4.84938 13.16V27.625H3.78688C3.20008 27.625 2.72438 28.1007 2.72438 28.6875C2.72438 29.2743 3.20008 29.75 3.78688 29.75H31.4119C31.9987 29.75 32.4744 29.2743 32.4744 28.6875C32.4744 28.1007 31.9987 27.625 31.4119 27.625H30.3494V13.16C30.6689 12.9738 30.9645 12.7522 31.2275 12.5007C32.083 11.683 32.6406 10.4975 32.4654 9.15897C32.407 8.71324 32.1827 8.19651 31.9784 7.77745C31.755 7.31939 31.4775 6.82566 31.2133 6.37976C30.9475 5.93125 30.6872 5.51759 30.4939 5.21684C30.397 5.06614 30.3165 4.94298 30.2598 4.85704C30.2315 4.81405 30.2091 4.78032 30.1936 4.75705C30.1858 4.74541 30.1798 4.73639 30.1756 4.73013L30.1689 4.72013L30.1688 4.71992C30.1687 4.71984 30.1687 4.71978 29.2869 5.3125L30.1687 4.71978C29.9713 4.42613 29.6407 4.25 29.2869 4.25H23.9936C23.9817 4.2498 23.9697 4.2498 23.9577 4.25H11.241C11.229 4.2498 11.2171 4.2498 11.2051 4.25ZM16.5369 6.375H12.1382C12.1064 6.58939 12.0714 6.829 12.0357 7.07889C11.9125 7.94086 11.7892 8.87121 11.7555 9.33622C11.7549 9.40185 11.7529 9.46715 11.7496 9.53209C11.7741 10.6664 12.8217 11.6875 14.1463 11.6875C15.4666 11.6875 16.5369 10.6173 16.5369 9.29688C16.5369 9.29638 16.5369 9.29589 16.5369 9.29539V6.375ZM18.6619 9.29688L18.6619 6.375H23.0606C23.0923 6.58939 23.1274 6.829 23.1631 7.07889C23.2863 7.94085 23.4095 8.8712 23.4433 9.33622C23.4439 9.40185 23.4458 9.46714 23.4491 9.53208C23.4247 10.6664 22.377 11.6875 21.0525 11.6875C19.7329 11.6875 18.6631 10.6185 18.6619 9.2991C18.6619 9.29836 18.6619 9.29762 18.6619 9.29688ZM17.5994 12.2069C16.7711 13.1888 15.5315 13.8125 14.1463 13.8125C12.81 13.8125 11.524 13.2123 10.6672 12.2373C9.83905 13.2017 8.61089 13.8125 7.24 13.8125C7.15118 13.8125 7.0626 13.8099 6.97438 13.8048V27.625H28.2244V13.8048C28.1362 13.8099 28.0476 13.8125 27.9588 13.8125C26.5879 13.8125 25.3597 13.2017 24.5316 12.2373C23.6748 13.2123 22.3887 13.8125 21.0525 13.8125C19.6672 13.8125 18.4277 13.1888 17.5994 12.2069ZM25.5751 9.48033C25.6687 10.715 26.7001 11.6875 27.9588 11.6875C28.6312 11.6875 29.2955 11.4078 29.7592 10.9646C30.2153 10.5286 30.4307 9.98758 30.3584 9.43486C30.3584 9.43542 30.3557 9.41584 30.3433 9.37189C30.3313 9.32945 30.3133 9.27447 30.2876 9.20625C30.2359 9.06866 30.1622 8.90116 30.0683 8.70877C29.8807 8.32393 29.6354 7.88544 29.3851 7.46302C29.139 7.04768 28.8957 6.66075 28.7122 6.375H25.2084C25.2274 6.5046 25.2469 6.63983 25.2667 6.77823C25.3896 7.63784 25.5291 8.67662 25.5658 9.22612L25.5658 9.22643C25.5715 9.31176 25.5745 9.3964 25.5751 9.48033ZM9.6237 9.48032C9.53002 10.715 8.49867 11.6875 7.24 11.6875C6.56754 11.6875 5.90328 11.4078 5.43957 10.9646C4.98346 10.5286 4.76806 9.98758 4.84038 9.43486C4.84059 9.43354 4.84368 9.41373 4.85547 9.37189C4.86743 9.32945 4.88545 9.27447 4.91111 9.20625C4.96286 9.06866 5.0366 8.90116 5.13041 8.70877C5.31806 8.32393 5.56336 7.88544 5.81367 7.46302C6.05977 7.04768 6.30301 6.66075 6.48656 6.375H9.99032C9.97139 6.5046 9.95183 6.63983 9.93204 6.77823C9.80919 7.63784 9.66966 8.67662 9.63299 9.22612L9.63297 9.22643C9.6273 9.31175 9.62423 9.39639 9.6237 9.48032ZM9.09938 15.9375C9.09938 15.3507 9.57508 14.875 10.1619 14.875H25.0369C25.6237 14.875 26.0994 15.3507 26.0994 15.9375V24.4375C26.0994 25.0243 25.6237 25.5 25.0369 25.5H10.1619C9.57508 25.5 9.09938 25.0243 9.09938 24.4375V15.9375ZM23.9744 17H11.2244V23.375H23.9744V17Z" fill="black"/>
</svg>
