<svg width="60" height="61" viewBox="0 0 60 61" fill="none" xmlns="http://www.w3.org/2000/svg">
<rect y="0.599976" width="60" height="60" rx="30" fill="white"/>
<path d="M32.9869 18.6C33.8774 18.5973 34.7488 18.859 35.4906 19.3518C36.2324 19.8446 36.8113 20.5465 37.1539 21.3685C37.4966 22.1906 37.5876 23.0958 37.4155 23.9696C37.2434 24.8434 36.8159 25.6465 36.1871 26.2772C35.5583 26.9078 34.7565 27.3378 33.8832 27.5125C33.01 27.6872 32.1045 27.5989 31.2814 27.2587C30.4584 26.9185 29.7548 26.3418 29.2597 25.6014C28.7646 24.8611 28.5004 23.9906 28.5004 23.1C28.5003 21.9091 28.9724 20.7668 29.8131 19.9233C30.6537 19.0798 31.7945 18.604 32.9854 18.6M32.9854 15.6C31.502 15.6 30.0519 16.0398 28.8186 16.864C27.5852 17.6881 26.6239 18.8594 26.0563 20.2299C25.4886 21.6003 25.3401 23.1083 25.6295 24.5632C25.9189 26.018 26.6332 27.3544 27.6821 28.4033C28.7309 29.4522 30.0673 30.1665 31.5222 30.4559C32.977 30.7453 34.485 30.5967 35.8555 30.0291C37.2259 29.4614 38.3973 28.5001 39.2214 27.2668C40.0455 26.0334 40.4854 24.5833 40.4854 23.1C40.4865 22.1147 40.2934 21.1389 39.9169 20.2285C39.5404 19.318 38.988 18.4907 38.2913 17.794C37.5946 17.0974 36.7674 16.545 35.8569 16.1685C34.9464 15.792 33.9706 15.5988 32.9854 15.6Z" fill="#222222"/>
<path d="M42 36.6V42.6H36V36.6H42ZM45 33.6H33V45.6H45V33.6Z" fill="#222222"/>
<path d="M22.5 32.277L24.9 36.6H20.1L22.5 32.277ZM22.5 26.1L15 39.6H30L22.5 26.1Z" fill="#222222"/>
</svg>
