<svg width="60" height="61" viewBox="0 0 60 61" fill="none" xmlns="http://www.w3.org/2000/svg">
<rect y="0.599976" width="60" height="60" rx="30" fill="white"/>
<path d="M16.5 27.6V39.6C16.5 39.9978 16.658 40.3793 16.9393 40.6606C17.2206 40.9419 17.6022 41.1 18 41.1H42C42.3978 41.1 42.7794 40.9419 43.0607 40.6606C43.342 40.3793 43.5 39.9978 43.5 39.6V27.6H16.5Z" fill="#222222"/>
<path d="M43.5 24.6V21.6C43.5 21.2022 43.342 20.8206 43.0607 20.5393C42.7794 20.258 42.3978 20.1 42 20.1H18C17.6022 20.1 17.2206 20.258 16.9393 20.5393C16.658 20.8206 16.5 21.2022 16.5 21.6V24.6H43.5Z" fill="#222222"/>
</svg>
