<svg width="60" height="61" viewBox="0 0 60 61" fill="none" xmlns="http://www.w3.org/2000/svg">
<rect y="0.599976" width="60" height="60" rx="30" fill="white"/>
<path d="M37.5 18.6C37.1022 18.6 36.7206 18.758 36.4393 19.0393C36.158 19.3206 36 19.7022 36 20.1V21.0375L17.7 26.754C17.5677 26.5561 17.3894 26.3933 17.1804 26.2794C16.9714 26.1655 16.738 26.1039 16.5 26.1C16.1022 26.1 15.7206 26.258 15.4393 26.5393C15.158 26.8206 15 27.2022 15 27.6V35.1C15 35.4978 15.158 35.8793 15.4393 36.1606C15.7206 36.4419 16.1022 36.6 16.5 36.6C16.7694 36.5976 17.0331 36.522 17.2627 36.3811C17.4923 36.2403 17.6793 36.0395 17.8035 35.8005L18.7695 36.042C18.8075 37.1782 19.2145 38.2711 19.929 39.1554C20.6435 40.0396 21.6266 40.6671 22.7294 40.9429C23.8323 41.2186 24.995 41.1277 26.0416 40.6837C27.0882 40.2398 27.9617 39.4671 28.53 38.4825L36 40.35V41.1C36 41.4978 36.158 41.8793 36.4393 42.1606C36.7206 42.4419 37.1022 42.6 37.5 42.6C37.8978 42.6 38.2794 42.4419 38.5607 42.1606C38.842 41.8793 39 41.4978 39 41.1V20.1C39 19.7022 38.842 19.3206 38.5607 19.0393C38.2794 18.758 37.8978 18.6 37.5 18.6ZM24 39.6C23.1065 39.5966 22.2434 39.2752 21.5653 38.6933C20.8872 38.1114 20.4385 37.3071 20.2995 36.4245L26.967 38.091C26.6234 38.5555 26.1765 38.9336 25.6615 39.1955C25.1466 39.4574 24.5777 39.5959 24 39.6ZM18 32.757V29.805L36 24.18V37.257L18 32.757Z" fill="#222222"/>
<path d="M41.9998 28.287C42.1452 28.287 42.2875 28.2448 42.4093 28.1655L46.9093 25.2285C47.076 25.1197 47.1926 24.9491 47.2336 24.7543C47.2745 24.5595 47.2364 24.3564 47.1275 24.1897C47.0187 24.023 46.8482 23.9064 46.6534 23.8655C46.4586 23.8245 46.2555 23.8627 46.0888 23.9715L41.5888 26.9085C41.4532 26.9968 41.3498 27.1266 41.294 27.2784C41.2382 27.4303 41.2331 27.5962 41.2793 27.7513C41.3255 27.9063 41.4207 28.0423 41.5505 28.1388C41.6804 28.2354 41.838 28.2874 41.9998 28.287Z" fill="#222222"/>
<path d="M46.9098 35.9085L42.4098 32.9715C42.2431 32.8627 42.04 32.8245 41.8452 32.8655C41.6504 32.9064 41.4799 33.023 41.3711 33.1897C41.2623 33.3564 41.2241 33.5595 41.2651 33.7543C41.306 33.9491 41.4226 34.1197 41.5893 34.2285L46.0893 37.1655C46.256 37.2743 46.4591 37.3124 46.6539 37.2715C46.8487 37.2306 47.0193 37.1139 47.1281 36.9472C47.2369 36.7805 47.275 36.5775 47.2341 36.3826C47.1931 36.1878 47.0765 36.0173 46.9098 35.9085Z" fill="#222222"/>
</svg>
