<svg width="48" height="48" viewBox="0 0 48 48" fill="none" xmlns="http://www.w3.org/2000/svg">
<rect width="48" height="48" rx="24" fill="white"/>
<rect x="4" y="4" width="40" height="40" rx="20" fill="url(#paint0_linear_2062_31634)"/>
<path d="M24 31.2375C23.7675 31.2375 23.5425 31.2075 23.355 31.14C20.49 30.1575 15.9375 26.67 15.9375 21.5175C15.9375 18.8925 18.06 16.7625 20.67 16.7625C21.9375 16.7625 23.1225 17.2575 24 18.1425C24.8775 17.2575 26.0625 16.7625 27.33 16.7625C29.94 16.7625 32.0625 18.9 32.0625 21.5175C32.0625 26.6775 27.51 30.1575 24.645 31.14C24.4575 31.2075 24.2325 31.2375 24 31.2375ZM20.67 17.8875C18.6825 17.8875 17.0625 19.515 17.0625 21.5175C17.0625 26.64 21.99 29.49 23.7225 30.0825C23.8575 30.1275 24.15 30.1275 24.285 30.0825C26.01 29.49 30.945 26.6475 30.945 21.5175C30.945 19.515 29.325 17.8875 27.3375 17.8875C26.1975 17.8875 25.14 18.42 24.4575 19.3425C24.2475 19.6275 23.7675 19.6275 23.5575 19.3425C22.86 18.4125 21.81 17.8875 20.67 17.8875Z" fill="#306CB5"/>
<defs>
<linearGradient id="paint0_linear_2062_31634" x1="24" y1="4" x2="24" y2="44" gradientUnits="userSpaceOnUse">
<stop stop-color="#3C5AF6" stop-opacity="0.11"/>
<stop offset="1" stop-color="#3C5AF6" stop-opacity="0"/>
</linearGradient>
</defs>
</svg>
