<svg width="48" height="48" viewBox="0 0 48 48" fill="none" xmlns="http://www.w3.org/2000/svg">
<rect width="48" height="48" rx="24" fill="white"/>
<rect x="4" y="4" width="40" height="40" rx="20" fill="url(#paint0_linear_2059_38713)"/>
<path d="M21.5696 16.2975H21.6671C24.9971 16.2975 26.6021 17.61 26.8796 20.55C26.9096 20.8575 26.6846 21.135 26.3696 21.165C26.0696 21.195 25.7846 20.9625 25.7546 20.655C25.5371 18.3 24.4271 17.4225 21.6596 17.4225H21.5621C18.5096 17.4225 17.4296 18.5025 17.4296 21.555V26.445C17.4296 29.4975 18.5096 30.5775 21.5621 30.5775H21.6596C24.4421 30.5775 25.5521 29.685 25.7546 27.285C25.7921 26.9775 26.0546 26.745 26.3696 26.775C26.6846 26.7975 26.9096 27.075 26.8871 27.3825C26.6321 30.3675 25.0196 31.7025 21.6671 31.7025H21.5696C17.8871 31.7025 16.3121 30.1275 16.3121 26.445V21.555C16.3121 17.8725 17.8871 16.2975 21.5696 16.2975Z" fill="#306CB5"/>
<path d="M21.7502 23.4375H30.2852C30.5927 23.4375 30.8477 23.6925 30.8477 24C30.8477 24.3075 30.5927 24.5625 30.2852 24.5625H21.7502C21.4427 24.5625 21.1877 24.3075 21.1877 24C21.1877 23.6925 21.4427 23.4375 21.7502 23.4375Z" fill="#306CB5"/>
<path d="M28.6124 20.925C28.7549 20.925 28.8974 20.9775 29.0099 21.09L31.5224 23.6025C31.7399 23.82 31.7399 24.18 31.5224 24.3975L29.0099 26.91C28.7924 27.1275 28.4324 27.1275 28.2149 26.91C27.9974 26.6925 27.9974 26.3325 28.2149 26.115L30.3299 24L28.2149 21.885C27.9974 21.6675 27.9974 21.3075 28.2149 21.09C28.3199 20.9775 28.4699 20.925 28.6124 20.925Z" fill="#306CB5"/>
<defs>
<linearGradient id="paint0_linear_2059_38713" x1="24" y1="4" x2="24" y2="44" gradientUnits="userSpaceOnUse">
<stop stop-color="#3C5AF6" stop-opacity="0.11"/>
<stop offset="1" stop-color="#3C5AF6" stop-opacity="0"/>
</linearGradient>
</defs>
</svg>
