<svg width="48" height="48" viewBox="0 0 48 48" fill="none" xmlns="http://www.w3.org/2000/svg">
<rect width="48" height="48" rx="24" fill="white"/>
<rect x="4" y="4" width="40" height="40" rx="20" fill="url(#paint0_linear_2059_38542)"/>
<path d="M24.0904 25.1475C24.0754 25.1475 24.0529 25.1475 24.0379 25.1475C24.0154 25.1475 23.9854 25.1475 23.9629 25.1475C22.2604 25.095 20.9854 23.7675 20.9854 22.1325C20.9854 20.4675 22.3429 19.11 24.0079 19.11C25.6729 19.11 27.0304 20.4675 27.0304 22.1325C27.0229 23.775 25.7404 25.095 24.1129 25.1475C24.0979 25.1475 24.0979 25.1475 24.0904 25.1475ZM24.0004 20.2275C22.9504 20.2275 22.1029 21.0825 22.1029 22.125C22.1029 23.1525 22.9054 23.985 23.9254 24.0225C23.9479 24.015 24.0229 24.015 24.0979 24.0225C25.1029 23.97 25.8904 23.145 25.8979 22.125C25.8979 21.0825 25.0504 20.2275 24.0004 20.2275Z" fill="#306CB5"/>
<path d="M23.9996 32.0625C21.9821 32.0625 20.0546 31.3125 18.5621 29.9475C18.4271 29.8275 18.3671 29.6475 18.3821 29.475C18.4796 28.5825 19.0346 27.75 19.9571 27.135C22.1921 25.65 25.8146 25.65 28.0421 27.135C28.9646 27.7575 29.5196 28.5825 29.6171 29.475C29.6396 29.655 29.5721 29.8275 29.4371 29.9475C27.9446 31.3125 26.0171 32.0625 23.9996 32.0625ZM19.5596 29.325C20.8046 30.3675 22.3721 30.9375 23.9996 30.9375C25.6271 30.9375 27.1946 30.3675 28.4396 29.325C28.3046 28.8675 27.9446 28.425 27.4121 28.065C25.5671 26.835 22.4396 26.835 20.5796 28.065C20.0471 28.425 19.6946 28.8675 19.5596 29.325Z" fill="#306CB5"/>
<path d="M24 32.0625C19.5525 32.0625 15.9375 28.4475 15.9375 24C15.9375 19.5525 19.5525 15.9375 24 15.9375C28.4475 15.9375 32.0625 19.5525 32.0625 24C32.0625 28.4475 28.4475 32.0625 24 32.0625ZM24 17.0625C20.175 17.0625 17.0625 20.175 17.0625 24C17.0625 27.825 20.175 30.9375 24 30.9375C27.825 30.9375 30.9375 27.825 30.9375 24C30.9375 20.175 27.825 17.0625 24 17.0625Z" fill="#306CB5"/>
<defs>
<linearGradient id="paint0_linear_2059_38542" x1="24" y1="4" x2="24" y2="44" gradientUnits="userSpaceOnUse">
<stop stop-color="#3C5AF6" stop-opacity="0.11"/>
<stop offset="1" stop-color="#3C5AF6" stop-opacity="0"/>
</linearGradient>
</defs>
</svg>
