<svg width="241" height="325" viewBox="0 0 241 325" fill="none" xmlns="http://www.w3.org/2000/svg">
<path d="M120.5 262.181C186.874 262.181 240.681 208.374 240.681 142C240.681 75.6261 186.874 21.8193 120.5 21.8193C54.1261 21.8193 0.319336 75.6261 0.319336 142C0.319336 208.374 54.1261 262.181 120.5 262.181Z" fill="url(#paint0_linear_4642_47243)"/>
<g filter="url(#filter0_d_4642_47243)">
<path d="M189.404 90.7227H51.5965C47.1716 90.7227 43.5845 94.3098 43.5845 98.7347V266.988C43.5845 271.413 47.1716 275 51.5965 275H189.404C193.829 275 197.416 271.413 197.416 266.988V98.7347C197.416 94.3098 193.829 90.7227 189.404 90.7227Z" fill="white"/>
</g>
<path d="M104.476 114.76H62.8136C60.1586 114.76 58.0063 116.912 58.0063 119.567C58.0063 122.222 60.1586 124.374 62.8136 124.374H104.476C107.131 124.374 109.283 122.222 109.283 119.567C109.283 116.912 107.131 114.76 104.476 114.76Z" fill="#B4DAFF"/>
<path d="M133.32 135.591H62.8136C60.1586 135.591 58.0063 137.743 58.0063 140.398C58.0063 143.053 60.1586 145.205 62.8136 145.205H133.32C135.975 145.205 138.127 143.053 138.127 140.398C138.127 137.743 135.975 135.591 133.32 135.591Z" fill="#DFEAFB"/>
<path d="M104.476 158.024H62.8131C60.1581 158.024 58.0059 160.177 58.0059 162.832C58.0059 165.487 60.1581 167.639 62.8131 167.639H104.476C107.131 167.639 109.283 165.487 109.283 162.832C109.283 160.177 107.131 158.024 104.476 158.024Z" fill="#B4DAFF"/>
<path d="M133.319 178.855H62.8131C60.1581 178.855 58.0059 181.008 58.0059 183.663C58.0059 186.318 60.1581 188.47 62.8131 188.47H133.319C135.974 188.47 138.126 186.318 138.126 183.663C138.126 181.008 135.974 178.855 133.319 178.855Z" fill="#DFEAFB"/>
<path d="M104.476 201.289H62.8131C60.1581 201.289 58.0059 203.441 58.0059 206.096C58.0059 208.751 60.1581 210.904 62.8131 210.904H104.476C107.131 210.904 109.283 208.751 109.283 206.096C109.283 203.441 107.131 201.289 104.476 201.289Z" fill="#B4DAFF"/>
<path d="M133.319 222.12H62.8131C60.1581 222.12 58.0059 224.272 58.0059 226.927C58.0059 229.582 60.1581 231.735 62.8131 231.735H133.319C135.974 231.735 138.126 229.582 138.126 226.927C138.126 224.272 135.974 222.12 133.319 222.12Z" fill="#DFEAFB"/>
<g filter="url(#filter1_d_4642_47243)">
<path d="M189.404 9H51.5965C47.1716 9 43.5845 12.5871 43.5845 17.012V65.0843C43.5845 69.5093 47.1716 73.0964 51.5965 73.0964H189.404C193.829 73.0964 197.416 69.5093 197.416 65.0843V17.012C197.416 12.5871 193.829 9 189.404 9Z" fill="#306CB5"/>
</g>
<path d="M104.476 26.627H62.8131C60.1581 26.627 58.0059 28.7792 58.0059 31.4342C58.0059 34.0891 60.1581 36.2414 62.8131 36.2414H104.476C107.131 36.2414 109.283 34.0891 109.283 31.4342C109.283 28.7792 107.131 26.627 104.476 26.627Z" fill="#B4DAFF"/>
<path d="M133.319 47.458H62.8131C60.1581 47.458 58.0059 49.6103 58.0059 52.2652C58.0059 54.9202 60.1581 57.0725 62.8131 57.0725H133.319C135.974 57.0725 138.126 54.9202 138.126 52.2652C138.126 49.6103 135.974 47.458 133.319 47.458Z" fill="white"/>
<path d="M66.388 307.4V320H64.462L57.514 311.468V320H55.192V307.4H57.118L64.066 315.932V307.4H66.388ZM73.8683 320.126C72.8963 320.126 72.0203 319.916 71.2403 319.496C70.4603 319.076 69.8483 318.494 69.4043 317.75C68.9723 316.994 68.7563 316.142 68.7563 315.194C68.7563 314.246 68.9723 313.4 69.4043 312.656C69.8483 311.912 70.4603 311.33 71.2403 310.91C72.0203 310.49 72.8963 310.28 73.8683 310.28C74.8523 310.28 75.7343 310.49 76.5143 310.91C77.2943 311.33 77.9003 311.912 78.3323 312.656C78.7763 313.4 78.9983 314.246 78.9983 315.194C78.9983 316.142 78.7763 316.994 78.3323 317.75C77.9003 318.494 77.2943 319.076 76.5143 319.496C75.7343 319.916 74.8523 320.126 73.8683 320.126ZM73.8683 318.2C74.6963 318.2 75.3803 317.924 75.9203 317.372C76.4603 316.82 76.7303 316.094 76.7303 315.194C76.7303 314.294 76.4603 313.568 75.9203 313.016C75.3803 312.464 74.6963 312.188 73.8683 312.188C73.0403 312.188 72.3563 312.464 71.8163 313.016C71.2883 313.568 71.0243 314.294 71.0243 315.194C71.0243 316.094 71.2883 316.82 71.8163 317.372C72.3563 317.924 73.0403 318.2 73.8683 318.2ZM95.5384 306.644V320H93.3784V318.758C93.0064 319.214 92.5444 319.556 91.9924 319.784C91.4524 320.012 90.8524 320.126 90.1924 320.126C89.2684 320.126 88.4344 319.922 87.6904 319.514C86.9584 319.106 86.3824 318.53 85.9624 317.786C85.5424 317.03 85.3324 316.166 85.3324 315.194C85.3324 314.222 85.5424 313.364 85.9624 312.62C86.3824 311.876 86.9584 311.3 87.6904 310.892C88.4344 310.484 89.2684 310.28 90.1924 310.28C90.8284 310.28 91.4104 310.388 91.9384 310.604C92.4664 310.82 92.9164 311.144 93.2884 311.576V306.644H95.5384ZM90.4624 318.2C91.0024 318.2 91.4884 318.08 91.9204 317.84C92.3524 317.588 92.6944 317.234 92.9464 316.778C93.1984 316.322 93.3244 315.794 93.3244 315.194C93.3244 314.594 93.1984 314.066 92.9464 313.61C92.6944 313.154 92.3524 312.806 91.9204 312.566C91.4884 312.314 91.0024 312.188 90.4624 312.188C89.9224 312.188 89.4364 312.314 89.0044 312.566C88.5724 312.806 88.2304 313.154 87.9784 313.61C87.7264 314.066 87.6004 314.594 87.6004 315.194C87.6004 315.794 87.7264 316.322 87.9784 316.778C88.2304 317.234 88.5724 317.588 89.0044 317.84C89.4364 318.08 89.9224 318.2 90.4624 318.2ZM102.154 310.28C103.57 310.28 104.65 310.622 105.394 311.306C106.15 311.978 106.528 312.998 106.528 314.366V320H104.404V318.83C104.128 319.25 103.732 319.574 103.216 319.802C102.712 320.018 102.1 320.126 101.38 320.126C100.66 320.126 100.03 320.006 99.4899 319.766C98.9499 319.514 98.5299 319.172 98.2299 318.74C97.9419 318.296 97.7979 317.798 97.7979 317.246C97.7979 316.382 98.1159 315.692 98.7519 315.176C99.3999 314.648 100.414 314.384 101.794 314.384H104.278V314.24C104.278 313.568 104.074 313.052 103.666 312.692C103.27 312.332 102.676 312.152 101.884 312.152C101.344 312.152 100.81 312.236 100.282 312.404C99.7659 312.572 99.3279 312.806 98.9679 313.106L98.0859 311.468C98.5899 311.084 99.1959 310.79 99.9039 310.586C100.612 310.382 101.362 310.28 102.154 310.28ZM101.848 318.488C102.412 318.488 102.91 318.362 103.342 318.11C103.786 317.846 104.098 317.474 104.278 316.994V315.878H101.956C100.66 315.878 100.012 316.304 100.012 317.156C100.012 317.564 100.174 317.888 100.498 318.128C100.822 318.368 101.272 318.488 101.848 318.488ZM115.193 319.478C114.929 319.694 114.605 319.856 114.221 319.964C113.849 320.072 113.453 320.126 113.033 320.126C111.977 320.126 111.161 319.85 110.585 319.298C110.009 318.746 109.721 317.942 109.721 316.886V312.26H108.137V310.46H109.721V308.264H111.971V310.46H114.545V312.26H111.971V316.832C111.971 317.3 112.085 317.66 112.313 317.912C112.541 318.152 112.871 318.272 113.303 318.272C113.807 318.272 114.227 318.14 114.563 317.876L115.193 319.478ZM120.716 310.28C122.132 310.28 123.212 310.622 123.956 311.306C124.712 311.978 125.09 312.998 125.09 314.366V320H122.966V318.83C122.69 319.25 122.294 319.574 121.778 319.802C121.274 320.018 120.662 320.126 119.942 320.126C119.222 320.126 118.592 320.006 118.052 319.766C117.512 319.514 117.092 319.172 116.792 318.74C116.504 318.296 116.36 317.798 116.36 317.246C116.36 316.382 116.678 315.692 117.314 315.176C117.962 314.648 118.976 314.384 120.356 314.384H122.84V314.24C122.84 313.568 122.636 313.052 122.228 312.692C121.832 312.332 121.238 312.152 120.446 312.152C119.906 312.152 119.372 312.236 118.844 312.404C118.328 312.572 117.89 312.806 117.53 313.106L116.648 311.468C117.152 311.084 117.758 310.79 118.466 310.586C119.174 310.382 119.924 310.28 120.716 310.28ZM120.41 318.488C120.974 318.488 121.472 318.362 121.904 318.11C122.348 317.846 122.66 317.474 122.84 316.994V315.878H120.518C119.222 315.878 118.574 316.304 118.574 317.156C118.574 317.564 118.736 317.888 119.06 318.128C119.384 318.368 119.834 318.488 120.41 318.488ZM136.859 308.336C135.911 308.336 135.437 308.852 135.437 309.884V310.46H138.083V312.26H135.509V320H133.259V312.26H131.675V310.46H133.259V309.848C133.259 308.816 133.559 308.006 134.159 307.418C134.759 306.818 135.605 306.518 136.697 306.518C137.561 306.518 138.239 306.692 138.731 307.04L138.101 308.732C137.717 308.468 137.303 308.336 136.859 308.336ZM143.776 320.126C142.804 320.126 141.928 319.916 141.148 319.496C140.368 319.076 139.756 318.494 139.312 317.75C138.88 316.994 138.664 316.142 138.664 315.194C138.664 314.246 138.88 313.4 139.312 312.656C139.756 311.912 140.368 311.33 141.148 310.91C141.928 310.49 142.804 310.28 143.776 310.28C144.76 310.28 145.642 310.49 146.422 310.91C147.202 311.33 147.808 311.912 148.24 312.656C148.684 313.4 148.906 314.246 148.906 315.194C148.906 316.142 148.684 316.994 148.24 317.75C147.808 318.494 147.202 319.076 146.422 319.496C145.642 319.916 144.76 320.126 143.776 320.126ZM143.776 318.2C144.604 318.2 145.288 317.924 145.828 317.372C146.368 316.82 146.638 316.094 146.638 315.194C146.638 314.294 146.368 313.568 145.828 313.016C145.288 312.464 144.604 312.188 143.776 312.188C142.948 312.188 142.264 312.464 141.724 313.016C141.196 313.568 140.932 314.294 140.932 315.194C140.932 316.094 141.196 316.82 141.724 317.372C142.264 317.924 142.948 318.2 143.776 318.2ZM160.364 310.388V320H158.222V318.776C157.862 319.208 157.412 319.544 156.872 319.784C156.332 320.012 155.75 320.126 155.126 320.126C153.842 320.126 152.828 319.772 152.084 319.064C151.352 318.344 150.986 317.282 150.986 315.878V310.388H153.236V315.572C153.236 316.436 153.428 317.084 153.812 317.516C154.208 317.936 154.766 318.146 155.486 318.146C156.29 318.146 156.926 317.9 157.394 317.408C157.874 316.904 158.114 316.184 158.114 315.248V310.388H160.364ZM168.764 310.28C169.976 310.28 170.948 310.634 171.68 311.342C172.412 312.05 172.778 313.1 172.778 314.492V320H170.528V314.78C170.528 313.94 170.33 313.31 169.934 312.89C169.538 312.458 168.974 312.242 168.242 312.242C167.414 312.242 166.76 312.494 166.28 312.998C165.8 313.49 165.56 314.204 165.56 315.14V320H163.31V310.388H165.452V311.63C165.824 311.186 166.292 310.85 166.856 310.622C167.42 310.394 168.056 310.28 168.764 310.28ZM185.134 306.644V320H182.974V318.758C182.602 319.214 182.14 319.556 181.588 319.784C181.048 320.012 180.448 320.126 179.788 320.126C178.864 320.126 178.03 319.922 177.286 319.514C176.554 319.106 175.978 318.53 175.558 317.786C175.138 317.03 174.928 316.166 174.928 315.194C174.928 314.222 175.138 313.364 175.558 312.62C175.978 311.876 176.554 311.3 177.286 310.892C178.03 310.484 178.864 310.28 179.788 310.28C180.424 310.28 181.006 310.388 181.534 310.604C182.062 310.82 182.512 311.144 182.884 311.576V306.644H185.134ZM180.058 318.2C180.598 318.2 181.084 318.08 181.516 317.84C181.948 317.588 182.29 317.234 182.542 316.778C182.794 316.322 182.92 315.794 182.92 315.194C182.92 314.594 182.794 314.066 182.542 313.61C182.29 313.154 181.948 312.806 181.516 312.566C181.084 312.314 180.598 312.188 180.058 312.188C179.518 312.188 179.032 312.314 178.6 312.566C178.168 312.806 177.826 313.154 177.574 313.61C177.322 314.066 177.196 314.594 177.196 315.194C177.196 315.794 177.322 316.322 177.574 316.778C177.826 317.234 178.168 317.588 178.6 317.84C179.032 318.08 179.518 318.2 180.058 318.2Z" fill="#34343F"/>
<defs>
<filter id="filter0_d_4642_47243" x="37.5845" y="81.7227" width="165.832" height="196.277" filterUnits="userSpaceOnUse" color-interpolation-filters="sRGB">
<feFlood flood-opacity="0" result="BackgroundImageFix"/>
<feColorMatrix in="SourceAlpha" type="matrix" values="0 0 0 0 0 0 0 0 0 0 0 0 0 0 0 0 0 0 127 0" result="hardAlpha"/>
<feOffset dy="-3"/>
<feGaussianBlur stdDeviation="3"/>
<feColorMatrix type="matrix" values="0 0 0 0 0.788235 0 0 0 0 0.803922 0 0 0 0 0.85098 0 0 0 0.349 0"/>
<feBlend mode="normal" in2="BackgroundImageFix" result="effect1_dropShadow_4642_47243"/>
<feBlend mode="normal" in="SourceGraphic" in2="effect1_dropShadow_4642_47243" result="shape"/>
</filter>
<filter id="filter1_d_4642_47243" x="37.5845" y="0" width="165.832" height="76.0967" filterUnits="userSpaceOnUse" color-interpolation-filters="sRGB">
<feFlood flood-opacity="0" result="BackgroundImageFix"/>
<feColorMatrix in="SourceAlpha" type="matrix" values="0 0 0 0 0 0 0 0 0 0 0 0 0 0 0 0 0 0 127 0" result="hardAlpha"/>
<feOffset dy="-3"/>
<feGaussianBlur stdDeviation="3"/>
<feColorMatrix type="matrix" values="0 0 0 0 0.788235 0 0 0 0 0.803922 0 0 0 0 0.85098 0 0 0 0.349 0"/>
<feBlend mode="normal" in2="BackgroundImageFix" result="effect1_dropShadow_4642_47243"/>
<feBlend mode="normal" in="SourceGraphic" in2="effect1_dropShadow_4642_47243" result="shape"/>
</filter>
<linearGradient id="paint0_linear_4642_47243" x1="120.5" y1="21.8193" x2="120.5" y2="262.181" gradientUnits="userSpaceOnUse">
<stop stop-color="#E3ECFA"/>
<stop offset="1" stop-color="#DAE7FF"/>
</linearGradient>
</defs>
</svg>
