<svg width="48" height="48" viewBox="0 0 48 48" fill="none" xmlns="http://www.w3.org/2000/svg">
<rect width="48" height="48" rx="24" fill="white"/>
<rect x="4" y="4" width="40" height="40" rx="20" fill="url(#paint0_linear_2059_38585)"/>
<path d="M29.2497 32.0624C28.1997 32.0624 27.2172 31.6049 26.5422 30.8024C26.5347 30.7874 26.4897 30.7499 26.4522 30.6899C26.3697 30.6074 26.2722 30.4574 26.1897 30.3149C25.8597 29.7824 25.6797 29.1524 25.6797 28.4924C25.6797 27.3974 26.1672 26.385 27.0147 25.71C27.6447 25.2075 28.4397 24.9299 29.2422 24.9299C30.1122 24.9299 30.9147 25.2299 31.5597 25.7924C31.6497 25.8524 31.7547 25.9649 31.8522 26.0699C32.4597 26.7374 32.7972 27.5924 32.7972 28.4849C32.7972 29.1374 32.6172 29.7749 32.2797 30.3224C32.0997 30.6374 31.8522 30.9224 31.5672 31.1624C30.9597 31.7474 30.1272 32.0624 29.2497 32.0624ZM29.2497 26.0624C28.6947 26.0624 28.1697 26.2499 27.7272 26.6024C27.1497 27.0599 26.8122 27.7574 26.8122 28.4999C26.8122 28.9424 26.9322 29.3774 27.1647 29.7524C27.2247 29.8574 27.2847 29.94 27.3522 30.0225C27.3672 30.0375 27.4122 30.0824 27.4497 30.1424C27.8622 30.6299 28.5372 30.9449 29.2497 30.9449C29.8422 30.9449 30.4122 30.7274 30.8472 30.3374C31.0422 30.1724 31.2072 29.9774 31.3272 29.7674C31.5672 29.3849 31.6872 28.9499 31.6872 28.5074C31.6872 27.8999 31.4547 27.3074 31.0347 26.8499C30.9822 26.7899 30.9222 26.73 30.8622 26.685C30.3897 26.265 29.8422 26.0624 29.2497 26.0624Z" fill="#306CB5"/>
<path d="M30.3675 29.0475H28.125C27.8175 29.0475 27.5625 28.7925 27.5625 28.485C27.5625 28.1775 27.8175 27.9225 28.125 27.9225H30.3675C30.675 27.9225 30.93 28.1775 30.93 28.485C30.93 28.7925 30.6825 29.0475 30.3675 29.0475Z" fill="url(#paint1_linear_2059_38585)"/>
<path d="M29.25 30.195C28.9425 30.195 28.6875 29.94 28.6875 29.6325V27.39C28.6875 27.0825 28.9425 26.8275 29.25 26.8275C29.5575 26.8275 29.8125 27.0825 29.8125 27.39V29.6325C29.8125 29.9475 29.5575 30.195 29.25 30.195Z" fill="#306CB5"/>
<path d="M24 24.9749C23.9025 24.9749 23.805 24.9524 23.715 24.8999L17.0925 21.0674C16.8225 20.9099 16.7325 20.5649 16.89 20.2949C17.0475 20.0249 17.3925 19.9349 17.655 20.0924L23.9925 23.7599L30.2925 20.1149C30.5625 19.9574 30.9075 20.0549 31.0575 20.3174C31.215 20.5874 31.1175 20.9324 30.855 21.0899L24.2775 24.8999C24.195 24.9449 24.0975 24.9749 24 24.9749Z" fill="#306CB5"/>
<path d="M24 31.7698C23.6925 31.7698 23.4375 31.5148 23.4375 31.2073V24.4048C23.4375 24.0973 23.6925 23.8423 24 23.8423C24.3075 23.8423 24.5625 24.0973 24.5625 24.4048V31.2073C24.5625 31.5148 24.3075 31.7698 24 31.7698Z" fill="#306CB5"/>
<path d="M24.0002 32.0624C23.3402 32.0624 22.6802 31.9199 22.1702 31.6274L18.1652 29.4075C17.0777 28.8075 16.2227 27.3599 16.2227 26.1149V21.8699C16.2227 20.6249 17.0777 19.185 18.1652 18.5775L22.1702 16.3574C23.1902 15.7799 24.7951 15.7799 25.8226 16.3574L29.8277 18.5775C30.9152 19.1775 31.7702 20.6249 31.7702 21.8699V26.1149C31.7702 26.1899 31.7702 26.2499 31.7551 26.3249C31.7176 26.5199 31.5752 26.6849 31.3877 26.7449C31.2002 26.8124 30.9902 26.7675 30.8327 26.64C29.9702 25.89 28.6352 25.86 27.7277 26.5875C27.1502 27.045 26.8127 27.7424 26.8127 28.4849C26.8127 28.9274 26.9327 29.3625 27.1652 29.7375C27.2252 29.8425 27.2852 29.9249 27.3527 30.0075C27.4652 30.1349 27.5102 30.3074 27.4802 30.4724C27.4502 30.6374 27.3451 30.78 27.1951 30.8625L25.8226 31.6199C25.3126 31.9199 24.6602 32.0624 24.0002 32.0624ZM24.0002 17.0624C23.5352 17.0624 23.0627 17.1599 22.7252 17.3474L18.7202 19.5675C17.9927 19.965 17.3626 21.0449 17.3626 21.8699V26.1149C17.3626 26.9399 18.0002 28.02 18.7202 28.4175L22.7252 30.6374C23.4077 31.0199 24.6002 31.0199 25.2827 30.6374L26.1227 30.1724C25.8452 29.6699 25.6951 29.0849 25.6951 28.4849C25.6951 27.3899 26.1826 26.3775 27.0301 25.7025C28.0501 24.885 29.5126 24.7124 30.6526 25.1999V21.855C30.6526 21.03 30.0152 19.9499 29.2952 19.5524L25.2902 17.3324C24.9377 17.1599 24.4652 17.0624 24.0002 17.0624Z" fill="#306CB5"/>
<defs>
<linearGradient id="paint0_linear_2059_38585" x1="24" y1="4" x2="24" y2="44" gradientUnits="userSpaceOnUse">
<stop stop-color="#3C5AF6" stop-opacity="0.11"/>
<stop offset="1" stop-color="#3C5AF6" stop-opacity="0"/>
</linearGradient>
<linearGradient id="paint1_linear_2059_38585" x1="27.5625" y1="27.9225" x2="28.2387" y2="29.9466" gradientUnits="userSpaceOnUse">
<stop stop-color="#3D5BF6"/>
<stop offset="0.0001" stop-color="#8598F9"/>
<stop offset="1" stop-color="#546EF7"/>
</linearGradient>
</defs>
</svg>
