<svg width="48" height="48" viewBox="0 0 48 48" fill="none" xmlns="http://www.w3.org/2000/svg">
<rect width="48" height="48" rx="24" fill="white"/>
<rect x="4" y="4" width="40" height="40" rx="20" fill="url(#paint0_linear_2059_38600)"/>
<path d="M24.0003 24.975C23.9028 24.975 23.8053 24.9525 23.7153 24.9L17.0928 21.0675C16.8303 20.91 16.7328 20.565 16.8903 20.295C17.0478 20.025 17.3928 19.935 17.6628 20.0925L24.0003 23.76L30.3003 20.115C30.5703 19.9575 30.9153 20.055 31.0728 20.3175C31.2303 20.5875 31.1328 20.9325 30.8703 21.09L24.2928 24.9C24.1953 24.945 24.0978 24.975 24.0003 24.975Z" fill="#306CB5"/>
<path d="M24 31.77C23.6925 31.77 23.4375 31.515 23.4375 31.2075V24.405C23.4375 24.0975 23.6925 23.8425 24 23.8425C24.3075 23.8425 24.5625 24.0975 24.5625 24.405V31.2075C24.5625 31.515 24.3075 31.77 24 31.77Z" fill="#306CB5"/>
<path d="M24.0005 32.0625C23.3405 32.0625 22.688 31.92 22.1705 31.635L18.1655 29.4075C17.078 28.8075 16.2305 27.36 16.2305 26.115V21.8775C16.2305 20.6325 17.078 19.1925 18.1655 18.585L22.1705 16.365C23.198 15.795 24.803 15.795 25.8305 16.365L29.8355 18.5925C30.923 19.1925 31.7705 20.64 31.7705 21.885V26.1225C31.7705 27.3675 30.923 28.8075 29.8355 29.415L25.8305 31.635C25.313 31.92 24.6605 32.0625 24.0005 32.0625ZM24.0005 17.0625C23.528 17.0625 23.063 17.16 22.718 17.3475L18.713 19.575C17.993 19.9725 17.3555 21.0525 17.3555 21.8775V26.115C17.3555 26.94 17.993 28.02 18.713 28.425L22.718 30.6525C23.4005 31.035 24.6005 31.035 25.283 30.6525L29.288 28.425C30.008 28.02 30.6455 26.9475 30.6455 26.115V21.8775C30.6455 21.0525 30.008 19.9725 29.288 19.5675L25.283 17.34C24.938 17.16 24.473 17.0625 24.0005 17.0625Z" fill="#306CB5"/>
<defs>
<linearGradient id="paint0_linear_2059_38600" x1="24" y1="4" x2="24" y2="44" gradientUnits="userSpaceOnUse">
<stop stop-color="#3C5AF6" stop-opacity="0.11"/>
<stop offset="1" stop-color="#3C5AF6" stop-opacity="0"/>
</linearGradient>
</defs>
</svg>
