<svg width="44" height="44" viewBox="0 0 44 44" fill="none" xmlns="http://www.w3.org/2000/svg">
<rect width="44" height="44" rx="22" fill="#DFEDFF"/>
<path d="M21.5 31.75C15.85 31.75 11.25 27.15 11.25 21.5C11.25 15.85 15.85 11.25 21.5 11.25C27.15 11.25 31.75 15.85 31.75 21.5C31.75 27.15 27.15 31.75 21.5 31.75ZM21.5 12.75C16.67 12.75 12.75 16.68 12.75 21.5C12.75 26.32 16.67 30.25 21.5 30.25C26.33 30.25 30.25 26.32 30.25 21.5C30.25 16.68 26.33 12.75 21.5 12.75Z" fill="#306CB5"/>
<path d="M32 32.7499C31.81 32.7499 31.62 32.6799 31.47 32.5299L29.47 30.5299C29.18 30.2399 29.18 29.7599 29.47 29.4699C29.76 29.1799 30.24 29.1799 30.53 29.4699L32.53 31.4699C32.82 31.7599 32.82 32.2399 32.53 32.5299C32.38 32.6799 32.19 32.7499 32 32.7499Z" fill="#306CB5"/>
</svg>
