<svg width="316" height="235" viewBox="0 0 316 235" fill="none" xmlns="http://www.w3.org/2000/svg">
<g clip-path="url(#clip0_1982_30969)">
<path opacity="0.5" d="M288.068 210.267C259.696 206.107 212.025 203.376 157.997 203.376C110.111 203.376 67.2272 205.524 38.3295 208.906C9.72088 193.118 13.031 167.859 15.7001 144.744C19.2624 113.829 67.1589 67.335 93.8183 109.952C142.813 188.27 251.442 154.471 298.266 168.81C304.771 170.801 309.447 173.222 311.743 176.352C321.306 189.415 305.701 201.522 288.068 210.267Z" fill="#D9E5FF"/>
<path opacity="0.8" d="M315.5 219.191C315.5 227.925 244.979 235 157.997 235C71.0155 235 0.5 227.951 0.5 219.191C0.5 215.262 14.7439 211.674 38.3296 208.906C67.2273 205.524 110.111 203.376 157.997 203.376C212.025 203.376 259.696 206.107 288.068 210.267C305.375 212.809 315.5 215.871 315.5 219.191Z" fill="#739AF0"/>
<path d="M208.563 0.189087H141.111C131.375 0.189087 123.483 8.07854 123.483 17.8107V194.326C123.483 204.058 131.375 211.948 141.111 211.948H208.563C218.298 211.948 226.191 204.058 226.191 194.326V17.8107C226.191 8.07854 218.298 0.189087 208.563 0.189087Z" fill="#03397A"/>
<path d="M205.763 5.69348H143.937C139.762 5.69413 135.743 7.27805 132.691 10.1255C129.639 12.973 127.781 16.872 127.492 21.0356H222.224C221.934 16.8698 220.073 12.9692 217.018 10.1216C213.962 7.27394 209.94 5.69138 205.763 5.69348Z" fill="#739AF0"/>
<path d="M222.255 22.1807C222.255 21.7972 222.255 21.4138 222.213 21.0356H127.466C127.439 21.4138 127.418 21.7972 127.418 22.1807V186.904H222.255V22.1807Z" fill="#739AF0"/>
<path d="M127.418 186.904V189.961C127.418 192.128 127.846 194.275 128.676 196.277C129.507 198.279 130.724 200.097 132.258 201.629C133.793 203.16 135.614 204.374 137.618 205.201C139.622 206.028 141.769 206.452 143.937 206.448H205.763C210.137 206.448 214.332 204.711 217.425 201.619C220.518 198.527 222.255 194.334 222.255 189.961V186.904H127.418Z" fill="#306CB5"/>
<path d="M174.569 201.201C177.227 201.201 179.382 199.047 179.382 196.39C179.382 193.733 177.227 191.579 174.569 191.579C171.911 191.579 169.756 193.733 169.756 196.39C169.756 199.047 171.911 201.201 174.569 201.201Z" fill="#FFF1F6"/>
<path d="M150.731 202.499V190.276L142.745 196.584L150.731 202.499Z" fill="#FFF1F6"/>
<path d="M198.985 200.697H206.934V198.906H198.985V200.697Z" fill="#FFF1F6"/>
<path d="M198.985 197.283H206.934V195.492H198.985V197.283Z" fill="#FFF1F6"/>
<path d="M198.985 193.874H206.934V192.083H198.985V193.874Z" fill="#FFF1F6"/>
<path d="M185.387 10.8671H164.292C163.659 10.8671 163.146 11.3797 163.146 12.0121C163.146 12.6444 163.659 13.1571 164.292 13.1571H185.387C186.02 13.1571 186.533 12.6444 186.533 12.0121C186.533 11.3797 186.02 10.8671 185.387 10.8671Z" fill="#FFF1F6"/>
<path d="M213.265 24.8488H138.531V182.062H213.265V24.8488Z" fill="#D8CEF4"/>
<path d="M265.265 24.8488H213.265V182.062H265.265V24.8488Z" fill="#03397A"/>
<path d="M260.437 82.9554H257.111V95.7869H260.437V82.9554Z" fill="#306CB5"/>
<path d="M257.111 82.9554H254.647L255.393 86.0386H257.111V82.9554Z" fill="#306CB5"/>
<path d="M257.111 95.7868H255.598L254.531 93.1711H257.111V95.7868Z" fill="#306CB5"/>
<path d="M146.738 24.8488H138.531V182.062H146.738V24.8488Z" fill="#CBC3ED"/>
<path d="M138.531 24.8488L146.732 36.7611H213.265V24.8488H138.531Z" fill="#BDB0EA"/>
<path d="M112.938 172.802C112.938 172.802 114.998 131.308 72.7862 111.349C72.7756 111.349 77.4098 159.062 112.938 172.802Z" fill="#D9E5FF"/>
<path d="M112.938 188.927C112.938 188.927 105.761 139.408 33.7585 136.976C44.3351 185.891 112.938 188.927 112.938 188.927Z" fill="#739AF0"/>
<path d="M110.915 192.761C110.915 192.761 88.7324 177.35 67.884 194.079C83.846 208.518 110.915 192.761 110.915 192.761Z" fill="#D9E5FF"/>
<path d="M110.337 81.5425C110.337 81.5425 121.796 86.7686 123.357 85.6236C124.917 84.4786 122.458 79.3208 124.581 72.4245C126.704 65.5282 127.534 62.1089 127.424 58.905C127.313 55.7011 126.105 51.4152 122.075 49.8447C118.045 48.2743 112.822 49.9235 109.57 55.5698C106.318 61.216 103.764 60.1813 100.78 57.6707C97.7956 55.1601 90.8707 61.5522 94.9216 65.129C98.9725 68.7058 93.6869 69.9086 91.3698 69.583C89.0528 69.2573 86.5623 76.1589 88.9319 78.7168C91.3015 81.2747 108.33 82.3987 110.337 81.5425Z" fill="#306CB5"/>
<path d="M148.33 114.049C148.33 114.049 151.698 114.328 152.917 117.51C154.135 120.693 152.575 121.413 152.575 121.413C152.575 121.413 148.923 119.165 148.33 117.542C147.993 116.402 147.993 115.189 148.33 114.049Z" fill="#FFC7BB"/>
<path d="M121.271 79.9301C122.17 80.324 130.419 100.745 130.419 100.745L150.479 114.501L148.74 118.887C148.74 118.887 132.2 108.881 128.538 106.097C124.875 103.313 115.928 85.7076 115.928 85.7076L121.271 79.9301Z" fill="#FF6683"/>
<path d="M123.793 119.927C123.793 119.927 127.791 130.337 122.427 147.37C117.062 164.403 113.064 206.133 113.064 206.133H108.651L109.912 176.804C109.912 176.804 112.854 156.094 113.169 154.744C113.484 153.394 111.068 122.574 111.068 122.574L123.793 119.927Z" fill="#306CB5"/>
<path d="M99.7083 123.398C99.7083 123.398 98.9727 134.334 111.793 158.405C104.327 170.391 103.912 174.388 100.113 192.992C96.3141 211.596 97.7012 204.768 97.7012 204.768L100.544 205.503C100.544 205.503 119.916 161.142 119.332 154.944C118.749 148.746 114.12 120.567 114.12 120.567L99.7083 123.398Z" fill="#163560"/>
<path d="M120.746 77.4562C120.746 77.4562 126.677 84.9302 126.105 86.9104C125.222 89.983 118.849 93.3182 119.9 101.092C120.95 108.865 124.529 119.906 124.529 119.906C124.529 119.906 116.852 132.207 96.3455 125.058C96.3455 121.171 100.974 112.127 104.227 107.725C107.479 103.324 101.6 88.381 101.6 88.381C101.6 88.381 97.3963 77.2356 102.65 76.3007C107.905 75.3657 116.852 74.0947 120.746 77.4562Z" fill="#FE3E64"/>
<path d="M107.122 115.987L110.852 117.08C110.852 117.08 113.427 121.03 115.45 119.181C117.472 117.332 114.026 115.504 113.626 115.142C113.227 114.779 110.364 114.091 110.001 114.065C109.639 114.039 107.122 115.987 107.122 115.987Z" fill="#FFC7BB"/>
<path d="M105.414 83.3178C105.414 83.3178 98.174 99.9204 100.391 105.635C102.608 111.349 112.434 114.039 112.434 114.039L110.5 117.715C110.5 117.715 94.5171 113.513 95.1634 104.432C95.5995 98.2607 97.265 79.6306 99.1828 78.0969C104.29 74.0159 106.16 78.9793 105.414 83.3178Z" fill="#FF6683"/>
<path d="M117.22 76.5107C117.22 76.5107 124.051 82.1885 119.952 82.8713C115.854 83.5541 108.283 79.8775 108.178 77.1935C108.073 74.5096 111.267 75.6178 111.267 75.6178L112.381 68.5745H117.11L117.22 76.5107Z" fill="#FFC7BB"/>
<path d="M112.591 205.135C112.67 205.687 113.815 210.34 114.567 211.485C115.318 212.63 114.094 215.073 112.355 215.162C110.616 215.251 109.596 211.533 109.596 211.533C109.596 211.533 109.475 205.897 109.833 205.345C110.19 204.794 112.591 205.135 112.591 205.135Z" fill="#306CB5"/>
<path d="M101.001 205.025C101.001 205.025 102.104 209.158 102.577 210.277C103.05 211.396 104.274 214.3 101.789 214.416C99.3036 214.532 98.3579 211.974 98.3158 211.816C98.2738 211.659 97.9218 211.543 97.9218 211.543L97.7747 204.515L101.001 205.025Z" fill="#306CB5"/>
<path d="M125.916 55.7326C125.916 55.7326 124.192 73.5012 116.984 72.8552C109.775 72.2091 111.294 60.5805 112.691 55.3544C114.089 50.1283 124.629 51.7355 125.916 55.7326Z" fill="#FFC7BB"/>
<path d="M120.488 55.3597C120.488 55.3597 112.082 61.5942 110.61 59.966C109.139 58.3377 109.843 52.87 114.041 51.5622C118.239 50.2544 122.59 50.2124 120.488 55.3597Z" fill="#306CB5"/>
<path d="M123.094 51.8511C123.094 51.8511 119.017 50.3226 120.467 55.3596C121.917 60.3966 125.353 61.258 125.353 61.258C125.353 61.258 126.819 58.4112 126.662 56.4311C126.504 54.451 123.094 51.8511 123.094 51.8511Z" fill="#306CB5"/>
<path opacity="0.5" d="M97.8483 16.2822H93.5978L83.4153 0H87.6606L97.8483 16.2822Z" fill="#D9E5FF"/>
<path opacity="0.5" d="M97.8483 16.2822H93.5978L83.4153 32.5645H87.6606L97.8483 16.2822Z" fill="#D9E5FF"/>
<path opacity="0.5" d="M109.276 16.2822H105.031L94.8428 0H99.0934L109.276 16.2822Z" fill="#D9E5FF"/>
<path opacity="0.5" d="M109.276 16.2822H105.031L94.8428 32.5645H99.0934L109.276 16.2822Z" fill="#D9E5FF"/>
<path d="M288.042 92.5094C288.042 92.5094 286.602 94.6523 285.163 97.3783C284.408 98.7873 283.744 100.243 283.177 101.738C282.631 103.075 282.318 104.497 282.252 105.94C282.218 106.73 282.433 107.51 282.867 108.172C283.273 108.694 283.729 109.176 284.227 109.611C286.219 111.423 289.529 113.96 292.356 117.878C295.182 121.796 297.515 127.065 297.52 134.381C297.508 136.442 297.333 138.498 296.995 140.531C295.314 150.978 291.646 158.978 288.383 165.328C286.755 168.505 285.231 171.263 284.086 173.731C282.94 176.2 282.21 178.354 282.205 180.36C282.205 180.612 282.205 180.885 282.241 181.116L283.292 181.006C283.271 180.796 283.261 180.581 283.261 180.36C283.261 178.627 283.938 176.578 285.047 174.173C286.707 170.564 289.319 166.168 291.83 160.69C294.805 154.353 296.894 147.637 298.041 140.731C298.383 138.647 298.559 136.54 298.566 134.428C298.566 125.809 295.413 119.832 291.925 115.662C290.39 113.846 288.71 112.158 286.902 110.614C286.156 109.958 285.483 109.385 284.931 108.881C284.485 108.496 284.077 108.068 283.713 107.605C283.409 107.122 283.264 106.556 283.297 105.987C283.37 104.672 283.66 103.378 284.154 102.158C284.979 100.048 285.972 98.0069 287.122 96.0547C287.648 95.1933 288.068 94.479 288.389 93.9538L288.772 93.3655L288.909 93.1554L288.037 92.5672L288.042 92.5094Z" fill="#D9E5FF"/>
<path d="M307.104 209.568C307.104 211.575 298.172 213.197 287.138 213.197C276.105 213.197 267.173 211.575 267.173 209.568C267.173 209.4 267.047 207.415 267.173 207.252C268.507 205.487 277.029 205.939 287.138 205.939C297.021 205.939 305.502 205.534 307.104 207.252C307.283 207.43 307.104 209.342 307.104 209.568Z" fill="#306CB5"/>
<path d="M287.159 210.86C298.174 210.86 307.104 209.235 307.104 207.231C307.104 205.226 298.174 203.602 287.159 203.602C276.144 203.602 267.215 205.226 267.215 207.231C267.215 209.235 276.144 210.86 287.159 210.86Z" fill="#D9E5FF"/>
<path d="M288.478 95.3457H285.841V205.918H288.478V95.3457Z" fill="#739AF0"/>
<path d="M305.317 99.7471H270.141L279 60.7748H296.459L305.317 99.7471Z" fill="#D9E5FF"/>
<path opacity="0.5" d="M70.7211 55.2126C68.6773 54.8029 68.0258 45.1701 67.369 38.6415C66.9487 34.4396 63.5178 33.0267 61.1481 32.575C61.0209 32.0704 60.7287 31.6226 60.3181 31.3027C59.9074 30.9828 59.4016 30.8091 58.881 30.8091C58.3604 30.8091 57.8546 30.9828 57.4439 31.3027C57.0332 31.6226 56.7411 32.0704 56.6138 32.575C54.2442 33.0267 50.8343 34.4133 50.3877 38.6415C49.7362 45.1701 49.0794 54.8029 47.0408 55.2126C45.0023 55.6223 44.9392 56.5152 46.0583 57.5761C46.6468 58.1014 50.0252 58.1014 53.1671 57.9648C53.6376 59.0613 54.4195 59.9958 55.416 60.6524C56.4125 61.3091 57.5798 61.6591 58.7733 61.6591C59.9668 61.6591 61.1341 61.3091 62.1306 60.6524C63.1271 59.9958 63.909 59.0613 64.3794 57.9648C67.5792 58.1171 71.0994 58.1486 71.6984 57.5867C72.8438 56.5152 72.7597 55.617 70.7211 55.2126Z" fill="#9A7FCD"/>
<path opacity="0.5" d="M88.0442 102.421C70.5322 83.9534 47.0253 94.81 31.5835 112.573C21.4168 95.5926 13.4725 73.3384 40.1792 71.4633C64.448 69.7563 79.1017 83.1498 88.0442 102.421Z" fill="#9A7FCD"/>
<mask id="mask0_1982_30969" style="mask-type:luminance" maskUnits="userSpaceOnUse" x="133" y="36" width="81" height="147">
<path d="M213.271 36.7611H133.723V182.062H213.271V36.7611Z" fill="white"/>
</mask>
<g mask="url(#mask0_1982_30969)">
<path d="M152.575 124.743C152.575 124.743 151.319 117.474 154.997 117.553C158.675 117.631 158.743 125.216 158.743 125.216" stroke="black" stroke-miterlimit="10"/>
<path d="M164.386 143.357H148.818L150.694 124.118H162.505L164.386 143.357Z" fill="#EF8FC7"/>
<path d="M162.505 124.118H163.661L167.182 143.084L164.386 143.357L162.505 124.118Z" fill="#306CB5"/>
<path d="M163.682 116.886C163.682 116.886 159.39 120.216 157.172 120.131C154.955 120.047 153.757 119.984 153.899 117.721C154.041 115.457 160.855 115.404 160.855 115.404L163.025 114.879L163.682 116.886Z" fill="#FFC7BB"/>
<path d="M178.278 101.255C173.113 106.565 164.922 112.81 159.574 115.268C157.777 116.098 159.705 115.877 160.162 117.574C160.535 118.981 160.461 120.058 161.696 119.522C170.786 117.6 183.569 109.905 183.974 103.214C183.974 103.214 180.805 98.8542 178.278 101.255Z" fill="#9A7FCD"/>
<path d="M190.441 93.6019C191.645 87.9136 194.224 76.0434 184.473 82.7506C178.851 86.6268 180.611 96.622 177.117 102.184C176.297 106.386 175.115 111.786 184.299 106.386C187.326 103.408 189.485 99.2692 190.441 93.6019Z" fill="#9A7FCD"/>
<path d="M184.567 106.318C184.567 105.425 184.042 100.766 184.01 100.089L183.916 91.4327C183.916 89.857 183.727 88.2446 183.858 86.6584C184.615 77.8344 195.99 84.7255 190.163 96.3489C190.142 96.3489 188.235 103.156 184.567 106.318Z" fill="#211630"/>
<path d="M214.442 127.264C214.442 127.264 200.634 138.73 184.814 127.264C184.93 115.798 185.261 114.575 184.704 99.3743C184.147 84.174 182.702 82.509 190.384 80.2821C198.065 78.0551 212.771 80.9228 213.885 82.383C214.999 83.8431 215.556 122.479 214.442 127.264Z" fill="#03397A"/>
<path d="M184.567 96.144C188.173 98.1655 191.945 99.8736 195.843 101.249C200.125 102.857 204.517 104.359 209.083 104.658C211.067 104.788 213.06 104.643 215.004 104.227C215.131 114.464 215.004 124.922 214.442 127.264C214.442 127.264 200.634 138.73 184.814 127.264C184.93 115.798 185.261 114.574 184.704 99.3742C184.662 98.2187 184.615 97.1682 184.567 96.144Z" fill="#739AF0"/>
<path d="M221.483 108.335C220.642 79.8618 215.241 82.5982 213.313 81.8787C210.344 81.6055 209.813 84.6782 210.039 87.5775C210.134 88.8223 211.615 97.9245 213.26 107.925C213.817 112.4 221.593 112.967 221.483 108.335Z" fill="#9A7FCD"/>
<path d="M183.27 115.341L173.492 117.516L177.185 122.973L187.389 117.873L183.27 115.341Z" fill="#FFFDDD"/>
<path d="M191.019 116.649C191.019 116.649 187.725 119.391 185.634 118.824C183.543 118.256 181.956 116.292 182.723 114.333C183.49 112.374 188.729 114.722 188.729 114.722L190.941 114.753L191.019 116.649Z" fill="#FFC7BB"/>
<path d="M216.475 104.658C203.687 109.149 189.364 114.244 189.364 114.244L189.89 117.316C201.449 115.777 210.47 114.27 217.484 112.82C223.674 111.218 222.155 102.048 216.475 104.658Z" fill="#9A7FCD"/>
<path d="M206.33 210.981H202.484C202.484 210.981 197.477 147.349 197.14 140.001C193.462 201.296 192.128 210.981 192.128 210.981H187.925C187.925 210.981 181.63 150.69 185.445 126.476C195.806 124.47 208.668 126.644 213.013 126.476C212.341 129.985 212.246 148.221 211.437 163.211C210.628 178.201 206.33 210.981 206.33 210.981Z" fill="#306CB5"/>
<path d="M201.449 72.6556C201.281 73.0706 203.204 79.9196 203.025 80.1665C202.846 80.4133 199.437 81.7054 197.177 81.6056C194.13 81.2537 193.878 81.0804 193.878 81.0804C193.878 81.0804 193.962 72.8447 193.715 71.2165C200.445 70.3814 201.449 72.6556 201.449 72.6556Z" fill="#FFC7BB"/>
<path d="M190.62 62.0406C191.618 68.8687 190.315 72.2774 195.202 74.4519C200.088 76.6264 201.769 74.2523 204.575 67.9653C207.381 61.6782 206.95 55.8849 202.064 53.7262C197.177 51.5675 189.517 54.4563 190.62 62.0406Z" fill="#FFC7BB"/>
<path d="M211.237 82.6403C211.174 83.0762 210.024 84.7149 211.568 91.0965C212.871 96.4959 213.145 105.01 212.751 104.842C211.432 96.3226 210.008 86.9839 209.976 85.9335C209.934 84.5994 210.218 83.26 211.237 82.6403Z" fill="#211630"/>
<path d="M191.808 62.8653C191.808 62.8653 194.813 59.7139 198.113 61.6625C198.932 62.1457 199.374 65.9327 200.902 65.9484C202.431 65.9642 202.479 63.359 202.773 63.8475C204.092 65.9957 201.853 70.2553 202.621 70.1818C203.866 70.0557 204.302 70.707 204.302 70.707C204.302 70.707 208.306 61.9671 206.319 57.7863C204.333 53.6054 198.212 51.515 193.531 54.5876C188.85 57.6602 191.808 62.8653 191.808 62.8653Z" fill="#306CB5"/>
<path d="M154.882 125.069C154.882 125.069 153.626 117.799 157.304 117.878C160.982 117.957 161.05 125.531 161.05 125.531" stroke="black" stroke-miterlimit="10"/>
<path d="M154.104 117.983C154.104 117.983 157.782 115.982 157.961 117.857C158.139 119.732 157.13 119.958 157.13 119.958C157.13 119.958 152.67 121.135 154.104 117.983Z" fill="#FFC7BB"/>
</g>
<path d="M185.413 63.5533C187.809 66.7362 189.28 64.6038 196.71 62.1194L189.78 60.6225C189.78 60.6225 183.023 60.3494 185.413 63.5533Z" fill="#FE3E64"/>
<path d="M189.716 61.2843C189.716 61.2843 189.091 55.0287 194.151 53.1641C199.211 51.2996 206.141 52.5916 206.509 59.7873C201.638 63.5953 193.09 63.0963 189.716 61.2843Z" fill="#FE3E64"/>
</g>
<defs>
<clipPath id="clip0_1982_30969">
<rect width="315" height="235" fill="white" transform="translate(0.5)"/>
</clipPath>
</defs>
</svg>
