<svg width="35" height="34" viewBox="0 0 35 34" fill="none" xmlns="http://www.w3.org/2000/svg">
<rect y="3.05176e-05" width="35" height="34" rx="17" fill="currentColor"/>
<path d="M21.2949 8.71337L13.0174 11.4634C7.4532 13.3242 7.4532 16.3584 13.0174 18.21L15.474 19.0259L16.2899 21.4825C18.1415 27.0467 21.1849 27.0467 23.0365 21.4825L25.7957 13.2142C27.024 9.5017 25.0074 7.47587 21.2949 8.71337ZM21.5882 13.645L18.1049 17.1467C17.9674 17.2842 17.7932 17.3484 17.619 17.3484C17.4449 17.3484 17.2707 17.2842 17.1332 17.1467C16.8674 16.8809 16.8674 16.4409 17.1332 16.175L20.6165 12.6734C20.8824 12.4075 21.3224 12.4075 21.5882 12.6734C21.854 12.9392 21.854 13.3792 21.5882 13.645Z" fill="white"/>
</svg>
