<svg width="48" height="48" viewBox="0 0 48 48" fill="none" xmlns="http://www.w3.org/2000/svg">
<rect width="48" height="48" rx="24" fill="white"/>
<rect x="4" y="4" width="40" height="40" rx="20" fill="url(#paint0_linear_2059_38630)"/>
<path d="M24 26.8125C22.4475 26.8125 21.1875 25.5525 21.1875 24C21.1875 22.4475 22.4475 21.1875 24 21.1875C25.5525 21.1875 26.8125 22.4475 26.8125 24C26.8125 25.5525 25.5525 26.8125 24 26.8125ZM24 22.3125C23.07 22.3125 22.3125 23.07 22.3125 24C22.3125 24.93 23.07 25.6875 24 25.6875C24.93 25.6875 25.6875 24.93 25.6875 24C25.6875 23.07 24.93 22.3125 24 22.3125Z" fill="#306CB5"/>
<path d="M26.4075 31.6425C26.25 31.6425 26.0925 31.62 25.935 31.5825C25.47 31.455 25.08 31.1625 24.8325 30.75L24.7425 30.6C24.3 29.835 23.6925 29.835 23.25 30.6L23.1675 30.7425C22.92 31.1625 22.53 31.4625 22.065 31.5825C21.5925 31.71 21.105 31.6425 20.6925 31.395L19.4025 30.6525C18.945 30.39 18.615 29.9625 18.4725 29.445C18.3375 28.9275 18.405 28.395 18.6675 27.9375C18.885 27.555 18.945 27.21 18.8175 26.9925C18.69 26.775 18.3675 26.6475 17.925 26.6475C16.83 26.6475 15.9375 25.755 15.9375 24.66V23.34C15.9375 22.245 16.83 21.3525 17.925 21.3525C18.3675 21.3525 18.69 21.225 18.8175 21.0075C18.945 20.79 18.8925 20.445 18.6675 20.0625C18.405 19.605 18.3375 19.065 18.4725 18.555C18.6075 18.0375 18.9375 17.61 19.4025 17.3475L20.7 16.605C21.5475 16.1025 22.665 16.395 23.175 17.2575L23.265 17.4075C23.7075 18.1725 24.315 18.1725 24.7575 17.4075L24.84 17.265C25.35 16.395 26.4675 16.1025 27.3225 16.6125L28.6125 17.355C29.07 17.6175 29.4 18.045 29.5425 18.5625C29.6775 19.08 29.61 19.6125 29.3475 20.07C29.13 20.4525 29.07 20.7975 29.1975 21.015C29.325 21.2325 29.6475 21.36 30.09 21.36C31.185 21.36 32.0775 22.2525 32.0775 23.3475V24.6675C32.0775 25.7625 31.185 26.655 30.09 26.655C29.6475 26.655 29.325 26.7825 29.1975 27C29.07 27.2175 29.1225 27.5625 29.3475 27.945C29.61 28.4025 29.685 28.9425 29.5425 29.4525C29.4075 29.97 29.0775 30.3975 28.6125 30.66L27.315 31.4025C27.03 31.56 26.7225 31.6425 26.4075 31.6425ZM24 28.8675C24.6675 28.8675 25.29 29.2875 25.7175 30.03L25.8 30.1725C25.89 30.33 26.04 30.4425 26.22 30.4875C26.4 30.5325 26.58 30.51 26.73 30.42L28.0275 29.67C28.2225 29.5575 28.3725 29.37 28.4325 29.145C28.4925 28.92 28.4625 28.6875 28.35 28.4925C27.9225 27.7575 27.87 27 28.2 26.4225C28.53 25.845 29.2125 25.515 30.0675 25.515C30.5475 25.515 30.93 25.1325 30.93 24.6525V23.3325C30.93 22.86 30.5475 22.47 30.0675 22.47C29.2125 22.47 28.53 22.14 28.2 21.5625C27.87 20.985 27.9225 20.2275 28.35 19.4925C28.4625 19.2975 28.4925 19.065 28.4325 18.84C28.3725 18.615 28.23 18.435 28.035 18.315L26.7375 17.5725C26.415 17.3775 25.9875 17.49 25.7925 17.82L25.71 17.9625C25.2825 18.705 24.66 19.125 23.9925 19.125C23.325 19.125 22.7025 18.705 22.275 17.9625L22.1925 17.8125C22.005 17.4975 21.585 17.385 21.2625 17.5725L19.965 18.3225C19.77 18.435 19.62 18.6225 19.56 18.8475C19.5 19.0725 19.53 19.305 19.6425 19.5C20.07 20.235 20.1225 20.9925 19.7925 21.57C19.4625 22.1475 18.78 22.4775 17.925 22.4775C17.445 22.4775 17.0625 22.86 17.0625 23.34V24.66C17.0625 25.1325 17.445 25.5225 17.925 25.5225C18.78 25.5225 19.4625 25.8525 19.7925 26.43C20.1225 27.0075 20.07 27.765 19.6425 28.5C19.53 28.695 19.5 28.9275 19.56 29.1525C19.62 29.3775 19.7625 29.5575 19.9575 29.6775L21.255 30.42C21.4125 30.5175 21.6 30.54 21.7725 30.495C21.9525 30.45 22.1025 30.33 22.2 30.1725L22.2825 30.03C22.71 29.295 23.3325 28.8675 24 28.8675Z" fill="#306CB5"/>
<defs>
<linearGradient id="paint0_linear_2059_38630" x1="24" y1="4" x2="24" y2="44" gradientUnits="userSpaceOnUse">
<stop stop-color="#3C5AF6" stop-opacity="0.11"/>
<stop offset="1" stop-color="#3C5AF6" stop-opacity="0"/>
</linearGradient>
</defs>
</svg>
