<svg width="10" height="9" viewBox="0 0 10 9" fill="none" xmlns="http://www.w3.org/2000/svg">
<path d="M4.77249 0.772697C4.79097 0.727624 4.82244 0.689066 4.86289 0.661928C4.90335 0.634791 4.95096 0.6203 4.99968 0.6203C5.04839 0.6203 5.096 0.634791 5.13646 0.661928C5.17691 0.689066 5.20838 0.727624 5.22686 0.772697L6.15524 3.00563C6.17262 3.04741 6.20119 3.08359 6.2378 3.11018C6.27442 3.13677 6.31766 3.15275 6.36276 3.15635L8.77351 3.34946C8.99152 3.36693 9.07977 3.63911 8.91375 3.7811L7.07707 5.35477C7.04276 5.38413 7.01719 5.42236 7.00316 5.46528C6.98914 5.50821 6.9872 5.55416 6.99756 5.59812L7.55896 7.95076C7.57024 7.99796 7.56729 8.04744 7.55046 8.09296C7.53364 8.13848 7.5037 8.178 7.46443 8.20651C7.42516 8.23503 7.37833 8.25127 7.32983 8.25318C7.28134 8.25509 7.23337 8.24259 7.19198 8.21726L5.12768 6.95684C5.08912 6.93333 5.04483 6.9209 4.99968 6.9209C4.95452 6.9209 4.91023 6.93333 4.87167 6.95684L2.80737 8.21769C2.76598 8.24303 2.71801 8.25553 2.66952 8.25362C2.62103 8.25171 2.57419 8.23547 2.53492 8.20695C2.49565 8.17843 2.46571 8.13892 2.44889 8.0934C2.43206 8.04788 2.42911 7.99839 2.44039 7.95119L3.00179 5.59812C3.0122 5.55417 3.01029 5.50819 2.99626 5.46526C2.98223 5.42233 2.95663 5.3841 2.92228 5.35477L1.0856 3.7811C1.04882 3.74948 1.02221 3.70768 1.00912 3.66097C0.996035 3.61427 0.997048 3.56473 1.01204 3.5186C1.02703 3.47246 1.05532 3.43179 1.09336 3.4017C1.13141 3.3716 1.1775 3.35343 1.22584 3.34946L3.63659 3.15635C3.6817 3.15275 3.72494 3.13677 3.76155 3.11018C3.79816 3.08359 3.82673 3.04741 3.84411 3.00563L4.77249 0.772697Z" stroke="#D48D3B" stroke-linecap="round" stroke-linejoin="round"/>
</svg>
