<svg width="35" height="34" viewBox="0 0 35 34" fill="none" xmlns="http://www.w3.org/2000/svg">
<path d="M12.8411 26.9167H12.1328C6.46615 26.9167 3.63281 25.5 3.63281 18.4167V11.3333C3.63281 5.66667 6.46615 2.83333 12.1328 2.83333H23.4661C29.1328 2.83333 31.9661 5.66667 31.9661 11.3333V18.4167C31.9661 24.0833 29.1328 26.9167 23.4661 26.9167H22.7578C22.3186 26.9167 21.8936 27.1292 21.6245 27.4833L19.4995 30.3167C18.5645 31.5633 17.0345 31.5633 16.0995 30.3167L13.9745 27.4833C13.7478 27.1717 13.2236 26.9167 12.8411 26.9167Z" stroke="black" stroke-width="2" stroke-miterlimit="10" stroke-linecap="round" stroke-linejoin="round"/>
<path d="M10.7168 11.3333H24.8835" stroke="black" stroke-width="2" stroke-linecap="round" stroke-linejoin="round"/>
<path d="M10.7168 18.4167H19.2168" stroke="black" stroke-width="2" stroke-linecap="round" stroke-linejoin="round"/>
</svg>
