<svg width="16" height="17" viewBox="0 0 16 17" fill="none" xmlns="http://www.w3.org/2000/svg">
<path d="M5.66683 13.2869H5.3335C2.66683 13.2869 1.3335 12.6203 1.3335 9.28695V5.95361C1.3335 3.28695 2.66683 1.95361 5.3335 1.95361H10.6668C13.3335 1.95361 14.6668 3.28695 14.6668 5.95361V9.28695C14.6668 11.9536 13.3335 13.2869 10.6668 13.2869H10.3335C10.1268 13.2869 9.92683 13.3869 9.80016 13.5536L8.80016 14.8869C8.36016 15.4736 7.64016 15.4736 7.20016 14.8869L6.20016 13.5536C6.0935 13.4069 5.84683 13.2869 5.66683 13.2869Z" stroke="#306CB5" stroke-width="1.5" stroke-miterlimit="10" stroke-linecap="round" stroke-linejoin="round"/>
<path d="M4.6665 5.95361H11.3332" stroke="#306CB5" stroke-width="1.5" stroke-linecap="round" stroke-linejoin="round"/>
<path d="M4.6665 9.28699H8.6665" stroke="#306CB5" stroke-width="1.5" stroke-linecap="round" stroke-linejoin="round"/>
</svg>
