<svg width="316" height="235" viewBox="0 0 316 235" fill="none" xmlns="http://www.w3.org/2000/svg">
<g clip-path="url(#clip0_2389_68292)">
<path d="M220.227 117.248C220.227 117.248 218.167 75.7208 260.379 55.7458C260.379 55.7564 255.745 103.512 220.227 117.248Z" fill="#D9E5FF"/>
<path d="M220.206 133.401C220.206 133.401 227.394 83.837 299.396 81.4032C288.814 130.363 220.206 133.401 220.206 133.401Z" fill="#739AF0"/>
<path opacity="0.5" d="M222.224 137.233C222.224 137.233 244.401 121.816 265.255 138.558C249.309 153.008 222.224 137.233 222.224 137.233Z" fill="#D9E5FF"/>
<path opacity="0.5" d="M288.068 210.263C259.696 206.099 212.025 203.361 157.997 203.361C110.111 203.361 67.2168 205.511 38.3297 208.896C9.721 193.1 13.0311 167.816 15.7002 144.682C19.2625 113.747 67.159 67.2157 93.8184 109.862C142.813 188.248 251.442 154.422 298.267 168.767C304.771 170.765 309.447 173.183 311.743 176.316C321.306 189.378 305.701 201.495 288.068 210.263Z" fill="#D9E5FF"/>
<path opacity="0.5" d="M292.413 167.264C242.914 156.908 140.864 185.136 93.8078 109.846C84.7182 95.3015 73.1539 91.1278 61.7209 93.1779C63.9382 89.8399 67.18 87.853 71.8719 88.4154C91.2596 90.7493 163.325 162.133 245.557 154.264C287.28 150.275 294.967 158.344 292.413 167.264Z" fill="#9A7FCD"/>
<path opacity="0.8" d="M315.5 219.199C315.5 227.935 244.979 235.021 157.997 235.021C71.0155 235.021 0.5 227.914 0.5 219.199C0.5 215.267 14.7439 211.677 38.3296 208.901C67.2273 205.516 110.111 203.366 157.997 203.366C212.025 203.366 259.696 206.105 288.068 210.268C305.375 212.786 315.5 215.861 315.5 219.199Z" fill="#739AF0"/>
<path d="M208.563 0H141.111C131.375 0 123.483 7.89581 123.483 17.6358V194.293C123.483 204.033 131.375 211.929 141.111 211.929H208.563C218.298 211.929 226.191 204.033 226.191 194.293V17.6358C226.191 7.89581 218.298 0 208.563 0Z" fill="#03397A"/>
<path d="M222.255 22.004C222.256 20.3172 221.999 18.6402 221.493 17.0312H128.175C127.667 18.64 127.409 20.3169 127.408 22.004V185.688H222.245L222.255 22.004Z" fill="#F0F0FF"/>
<path d="M127.418 185.688V189.925C127.419 192.094 127.847 194.241 128.678 196.245C129.508 198.248 130.726 200.068 132.26 201.6C133.794 203.133 135.615 204.347 137.619 205.175C139.622 206.003 141.769 206.428 143.937 206.425H205.763C210.137 206.425 214.332 204.687 217.425 201.592C220.518 198.498 222.255 194.301 222.255 189.925V185.688H127.418Z" fill="#306CB5"/>
<path d="M174.569 201.169C177.227 201.169 179.382 199.013 179.382 196.354C179.382 193.694 177.227 191.539 174.569 191.539C171.911 191.539 169.756 193.694 169.756 196.354C169.756 199.013 171.911 201.169 174.569 201.169Z" fill="#FFF1F6"/>
<path d="M150.731 202.472V190.235L142.745 196.554L150.731 202.472Z" fill="#FFF1F6"/>
<path d="M198.985 200.669H206.934V198.877H198.985V200.669Z" fill="#FFF1F6"/>
<path d="M198.985 197.247H206.934V195.455H198.985V197.247Z" fill="#FFF1F6"/>
<path d="M198.985 193.836H206.934V192.043H198.985V193.836Z" fill="#FFF1F6"/>
<path opacity="0.5" d="M127.418 172.384L186.091 161.093L222.255 172.316V157.492L196.415 149.476L163.845 57.0233V36.5752H196.415V84.7306H202.852V36.5752H222.255V30.1412H202.852V5.50366H196.415V30.1412H163.845V5.50366H149.696V30.1412H127.418V36.5752H149.696V59.4465L183.38 155.063L127.418 165.829V172.384Z" fill="#C7BFDE"/>
<path d="M179.308 84.7306L127.345 109.179L127.25 131.787L179.308 106.94H222.255V84.7306H179.308Z" fill="#739AF0"/>
<path d="M205.763 5.50357H143.937C140.426 5.49663 137.004 6.61085 134.169 8.68413C131.334 10.7574 129.234 13.6816 128.175 17.0312H221.493C220.435 13.6872 218.34 10.7672 215.512 8.69448C212.683 6.6218 209.269 5.50416 205.763 5.50357Z" fill="#306CB5"/>
<path d="M185.387 10.6866H164.292C163.659 10.6866 163.146 11.1997 163.146 11.8326C163.146 12.4655 163.659 12.9785 164.292 12.9785H185.387C186.02 12.9785 186.532 12.4655 186.532 11.8326C186.532 11.1997 186.02 10.6866 185.387 10.6866Z" fill="#FFF1F6"/>
<path d="M144.704 71.7048C148.169 71.7048 150.978 68.8948 150.978 65.4284C150.978 61.9621 148.169 59.1521 144.704 59.1521C141.24 59.1521 138.431 61.9621 138.431 65.4284C138.431 68.8948 141.24 71.7048 144.704 71.7048Z" fill="#242324"/>
<path d="M144.704 70.6797C147.603 70.6797 149.953 68.3286 149.953 65.4284C149.953 62.5282 147.603 60.1771 144.704 60.1771C141.806 60.1771 139.456 62.5282 139.456 65.4284C139.456 68.3286 141.806 70.6797 144.704 70.6797Z" fill="#F0F0FF"/>
<path d="M142.009 83.2483L143.512 71.3579H144.704L143.937 82.8382C143.937 82.8382 142.934 85.1038 142.009 83.2483Z" fill="#121212"/>
<path d="M113.463 82.423C113.463 82.423 126.016 83.4743 127.093 81.8553C128.17 80.2363 124.114 76.236 123.772 69.0082C123.431 61.7805 123.052 58.3006 121.865 55.3412C120.677 52.3817 118.087 48.7389 113.763 48.6233C109.439 48.5076 105.088 51.835 103.938 58.2586C102.787 64.6821 100.034 64.5664 96.3718 63.1892C92.7097 61.812 88.3488 70.233 93.3927 72.2147C98.4367 74.1965 93.8551 77.1349 91.559 77.6132C89.263 78.0916 89.2683 85.435 92.3629 87.0435C95.4576 88.652 111.84 83.9106 113.463 82.423Z" fill="#306CB5"/>
<path d="M139.519 84.3783C139.519 84.3783 138.993 80.2572 140.317 77.7708C141.641 75.2845 143.07 74.8219 143.07 74.8219C143.07 74.8219 144.153 75.295 142.866 77.918C141.578 80.541 144.505 79.106 144.505 79.106C144.505 79.106 146.648 78.4752 144.079 82.5385C142.671 84.7673 142.445 85.1668 142.398 85.3823C142.351 85.5979 139.519 84.3783 139.519 84.3783Z" fill="#FFC7BB"/>
<path d="M121.271 79.7999C122.17 80.1942 130.418 100.632 130.418 100.632L139.093 82.3231L143.591 83.7476C143.591 83.7476 135.005 108.443 130.497 107.76C125.989 107.076 115.907 85.5874 115.907 85.5874L121.271 79.7999Z" fill="#FF6683"/>
<path d="M112.591 205.111C112.67 205.663 113.816 210.315 114.567 211.461C115.318 212.607 114.094 215.051 112.355 215.141C110.616 215.23 109.596 211.514 109.596 211.514C109.596 211.514 109.476 205.868 109.833 205.316C110.19 204.764 112.591 205.111 112.591 205.111Z" fill="#306CB5"/>
<path d="M101.001 205.006C101.001 205.006 102.104 209.143 102.577 210.263C103.05 211.382 104.274 214.284 101.789 214.405C99.3037 214.526 98.3579 211.96 98.3159 211.776C98.2739 211.592 97.9218 211.498 97.9218 211.498L97.7747 204.47L101.001 205.006Z" fill="#306CB5"/>
<path d="M123.793 119.85C123.793 119.85 127.791 130.268 122.427 147.31C117.063 164.352 113.064 206.11 113.064 206.11H108.651L109.912 176.752C109.912 176.752 112.854 156.025 113.169 154.674C113.484 153.324 111.068 122.478 111.068 122.478L123.793 119.85Z" fill="#306CB5"/>
<path d="M99.7082 123.303C99.7082 123.303 98.9726 134.247 111.793 158.344C104.327 170.334 104.4 174.444 100.113 192.958C97.7642 203.103 97.3806 204.727 97.3806 204.727C98.7257 205.332 100.034 205.716 101.232 205.479C101.232 205.479 119.905 161.077 119.322 154.869C118.739 148.661 114.11 120.465 114.11 120.465L99.7082 123.303Z" fill="#163560"/>
<path d="M120.746 77.3293C120.746 77.3293 126.946 84.904 126.105 86.7912C125.264 88.6783 118.849 93.2094 119.9 100.984C120.951 108.758 124.529 119.85 124.529 119.85C124.529 119.85 116.852 132.161 96.3456 125.006C96.3456 121.111 100.974 112.065 104.227 107.66C107.479 103.255 101.6 88.2998 101.6 88.2998C101.6 88.2998 97.3964 77.1506 102.651 76.2097C107.905 75.2688 116.852 73.9599 120.746 77.3293Z" fill="#FE3E64"/>
<path d="M112.413 113.4C112.413 113.4 117.562 112.559 118.828 113.4C120.094 114.241 120.346 118.798 120.089 119.135C119.831 119.471 117.168 118.488 116.19 117.332C115.213 116.175 112.339 115.965 112.339 115.965L112.413 113.4Z" fill="#FFC7BB"/>
<path d="M105.414 83.1956C105.414 83.1956 100.58 102.119 99.9499 104.49C99.3194 106.861 114.246 112.732 114.246 112.732L113.721 117.637C113.721 117.637 94.6643 110.277 95.1739 104.343C95.6836 98.4081 97.0707 79.1954 99.1933 77.9864C101.316 76.7774 105.414 78.3228 105.414 83.1956Z" fill="#FF6683"/>
<path d="M117.22 76.3831C117.22 76.3831 124.051 82.0602 119.952 82.7435C115.854 83.4269 108.283 79.7473 108.178 77.0665C108.073 74.3856 111.267 75.4895 111.267 75.4895L112.381 68.4404H117.11L117.22 76.3831Z" fill="#FFC7BB"/>
<path d="M119.343 52.839C119.343 52.839 123.746 70.1857 116.753 71.9939C109.759 73.8022 107.237 62.3587 106.77 56.9707C106.302 51.5827 116.779 49.5169 119.343 52.839Z" fill="#FFC7BB"/>
<path d="M114.115 54.3319C114.115 54.3319 108.335 63.0473 106.381 62.017C104.426 60.9867 103.228 55.5935 106.764 52.9547C110.301 50.3159 114.346 48.7704 114.115 54.3319Z" fill="#306CB5"/>
<path d="M115.376 50.1476C115.376 50.1476 111.02 50.0898 114.115 54.3529C117.21 58.6159 120.709 58.2532 120.709 58.2532C120.709 58.2532 121.124 55.0993 120.304 53.2648C119.485 51.4302 115.376 50.1476 115.376 50.1476Z" fill="#306CB5"/>
<path opacity="0.8" d="M79.0482 50.3327L86.7835 70.8129C86.9439 71.2378 87.0192 71.6902 87.0049 72.1442C86.9907 72.5981 86.8872 73.0449 86.7004 73.4589C86.5135 73.8728 86.247 74.2459 85.9161 74.5569C85.5851 74.8678 85.1962 75.1105 84.7715 75.271L75.9787 78.5951C75.554 78.7557 75.1018 78.831 74.648 78.8167C74.1943 78.8024 73.7477 78.6989 73.3339 78.512C72.9202 78.325 72.5472 78.0584 72.2364 77.7273C71.9256 77.3962 71.6831 77.0071 71.5226 76.5822L67.0375 64.7071C65.8553 61.5772 65.9644 58.1056 67.3406 55.0562C68.7169 52.0067 71.2476 49.6291 74.376 48.4464L74.5923 48.3647C75.45 48.0404 76.4013 48.0703 77.237 48.4478C78.0727 48.8253 78.7242 49.5195 79.0484 50.3776L79.0482 50.3327Z" fill="#739AF0"/>
<path opacity="0.8" d="M56.3088 36.3277L51.8144 24.428C51.6515 24.0026 51.5742 23.5492 51.587 23.0938C51.5997 22.6384 51.7023 22.1901 51.8887 21.7745C52.0751 21.3589 52.3418 20.9842 52.6734 20.672C53.0049 20.3597 53.3949 20.1161 53.8208 19.9551L62.6186 16.6292C63.0447 16.4673 63.4985 16.3914 63.9541 16.4057C64.4097 16.42 64.8579 16.5243 65.273 16.7126C65.6881 16.9009 66.0619 17.1694 66.3729 17.5028C66.6839 17.8361 66.9259 18.2277 67.0851 18.655L74.8222 39.1401C75.1463 39.9982 75.1164 40.95 74.7391 41.7861C74.3618 42.6222 73.6679 43.274 72.8102 43.5983L72.6038 43.6763C69.4753 44.859 66.0054 44.7499 62.9574 43.373C59.9093 41.9961 57.5328 39.4642 56.3507 36.3343L56.3088 36.3277Z" fill="#739AF0"/>
<path d="M76.7108 50.6044L72.9258 40.5831L70.0015 41.6887L73.7864 51.71L76.7108 50.6044Z" fill="#306CB5"/>
<path opacity="0.5" d="M86.6554 76.9402L85.1974 73.0802L79.7026 75.1575L81.1605 79.0175L86.6554 76.9402Z" fill="#9A7FCD"/>
<path opacity="0.5" d="M64.4167 18.0381L62.9588 14.1781L57.4639 16.2554L58.9218 20.1154L64.4167 18.0381Z" fill="#9A7FCD"/>
<path opacity="0.5" d="M57.4546 16.2585L17.9384 30.6037C17.9384 30.6037 11.1344 33.5106 15.4165 46.5101C16.9927 51.283 17.7861 49.0332 18.5689 47.1987C19.3518 45.3641 12.285 35.8813 19.9402 32.1334C29.9493 28.7692 57.9695 17.5727 57.9695 17.5727L57.3863 15.9274" fill="#9A7FCD"/>
<path opacity="0.5" d="M80.9615 78.8484L41.7606 94.0399C41.7606 94.0399 34.7253 96.3265 29.3976 83.7213C27.4431 79.0902 29.5237 80.2625 31.3049 81.1403C33.086 82.0182 34.0213 93.7876 42.2387 91.5798C51.9956 87.5323 80.4624 77.5343 80.4624 77.5343L81.1034 79.1533" fill="#9A7FCD"/>
<path opacity="0.5" d="M257.027 24.6743H250.475C248.067 27.0584 246.368 30.0647 245.568 33.3582H261.892C261.036 29.852 259.601 26.8085 257.027 24.6743Z" fill="#D9E5FF"/>
<path opacity="0.5" d="M245.568 33.3582C245.042 35.4471 244.724 37.5829 244.617 39.7344H262.885C262.705 37.5882 262.373 35.4575 261.892 33.3582H245.568Z" fill="#FF6683"/>
<path opacity="0.5" d="M262.885 9.61951H244.617C244.743 14.5449 245.93 18.9447 248.657 22.5875H258.477C260.768 18.8132 262.155 14.4188 262.885 9.61951Z" fill="#D9E5FF"/>
<path opacity="0.5" d="M248.657 22.6033C249.21 23.3482 249.818 24.051 250.475 24.7059H257.027C257.546 24.0305 258.03 23.3287 258.477 22.6033H248.657Z" fill="#FF6683"/>
<path d="M262.885 39.7344H244.323V41.4217H262.885V39.7344Z" fill="#306CB5"/>
<path d="M262.885 7.93213H244.323V9.61949H262.885V7.93213Z" fill="#306CB5"/>
<path d="M127.25 121.973L131.459 119.955L130.345 117.637L127.25 119.119" fill="#FFF1F6"/>
<path d="M204.107 96.8365H211.243V94.2607H204.107V96.8365ZM189.837 96.8365H196.972V94.2607H189.837V96.8365ZM176.513 98.3609L179.665 96.8365H182.692V94.2607H179.082L175.378 96.0375L176.487 98.3609H176.513ZM163.646 104.532L170.061 101.452L168.952 99.1283L162.516 102.214L163.646 104.532ZM150.768 110.698L157.204 107.618L156.095 105.294L149.659 108.38L150.768 110.698ZM137.9 116.869L144.337 113.784L143.223 111.465L136.792 114.551L137.9 116.869Z" fill="#FFF1F6"/>
<path d="M218.378 96.8365H222.239V94.2607H218.378" fill="#FFF1F6"/>
<path d="M202.237 80.4518H181.131V90.1817H202.237V80.4518Z" fill="#03397A"/>
<path d="M184.651 92.5523C185.583 92.5523 186.338 91.7969 186.338 90.865C186.338 89.9331 185.583 89.1776 184.651 89.1776C183.72 89.1776 182.965 89.9331 182.965 90.865C182.965 91.7969 183.72 92.5523 184.651 92.5523Z" fill="#306CB5"/>
<path d="M197.971 92.5523C198.902 92.5523 199.657 91.7969 199.657 90.865C199.657 89.9331 198.902 89.1776 197.971 89.1776C197.039 89.1776 196.284 89.9331 196.284 90.865C196.284 91.7969 197.039 92.5523 197.971 92.5523Z" fill="#306CB5"/>
<path d="M206.414 85.8187C207.68 86.5757 209.425 86.5231 211.243 86.3917V83.9211L205.894 82.076C205.736 83.6583 205.563 85.251 206.414 85.8187Z" fill="#306CB5"/>
<path d="M206.414 85.8186C205.563 85.2509 205.736 83.6582 205.889 82.076L203.22 81.892V89.9293H211.243V86.3916C209.425 86.523 207.68 86.5756 206.414 85.8186Z" fill="#03397A"/>
<path d="M206.225 92.5523C207.156 92.5523 207.911 91.7969 207.911 90.865C207.911 89.9331 207.156 89.1776 206.225 89.1776C205.293 89.1776 204.538 89.9331 204.538 90.865C204.538 91.7969 205.293 92.5523 206.225 92.5523Z" fill="#306CB5"/>
<path d="M215.488 51.793C215.488 57.0022 207.885 70.3066 206.062 70.3066C204.239 70.3066 196.636 57.0022 196.636 51.793C196.636 49.2919 197.629 46.8933 199.397 45.1247C201.165 43.3562 203.562 42.3627 206.062 42.3627C208.562 42.3627 210.959 43.3562 212.727 45.1247C214.495 46.8933 215.488 49.2919 215.488 51.793Z" fill="#FE3E64"/>
<path d="M206.062 54.7471C208.366 54.7471 210.234 52.8785 210.234 50.5734C210.234 48.2683 208.366 46.3997 206.062 46.3997C203.758 46.3997 201.89 48.2683 201.89 50.5734C201.89 52.8785 203.758 54.7471 206.062 54.7471Z" fill="#FFF1F6"/>
<path d="M77.5201 215.882C78.6169 215.882 79.5061 214.992 79.5061 213.895C79.5061 212.798 78.6169 211.908 77.5201 211.908C76.4232 211.908 75.534 212.798 75.534 213.895C75.534 214.992 76.4232 215.882 77.5201 215.882Z" fill="#306CB5"/>
<path d="M52.3791 215.882C53.476 215.882 54.3652 214.992 54.3652 213.895C54.3652 212.798 53.476 211.908 52.3791 211.908C51.2823 211.908 50.3931 212.798 50.3931 213.895C50.3931 214.992 51.2823 215.882 52.3791 215.882Z" fill="#306CB5"/>
<path d="M22.4359 163.726L22.4832 164.252L27.5272 163.789C27.8319 163.789 28.1209 163.753 28.3993 163.753C30.0285 163.722 31.6235 164.222 32.9441 165.177C33.5304 165.593 34.039 166.109 34.4468 166.701L35.8707 171.18L41.5819 189.094L46.6416 205.048L42.8692 208.917C42.4113 209.378 42.1544 210.002 42.1546 210.652C42.1553 211.301 42.4011 211.926 42.8429 212.402C43.0732 212.647 43.3507 212.842 43.6588 212.975C43.9668 213.109 44.2988 213.179 44.6346 213.18H84.5658V212.654H44.6346C44.3649 212.659 44.0972 212.606 43.8492 212.5C43.6011 212.395 43.3782 212.237 43.1949 212.039C42.8536 211.658 42.6663 211.163 42.6695 210.652C42.6695 210.398 42.7197 210.146 42.817 209.912C42.9144 209.677 43.0571 209.464 43.237 209.285L47.2301 205.19L45.6854 200.275L83.7304 199.303C84.3851 199.285 85.007 199.013 85.4642 198.543C85.9213 198.074 86.1777 197.445 86.1788 196.79V176.289L36.4381 171.238L34.9302 166.481V166.449C34.4995 165.825 33.9666 165.277 33.354 164.83C31.926 163.761 30.1829 163.197 28.3993 163.227C28.1051 163.227 27.8004 163.227 27.4799 163.269L22.4359 163.726ZM45.5067 199.749L44.561 196.78L48.3177 196.653L48.9639 199.665L45.5067 199.749ZM85.6166 186.345L80.8144 186.161L80.9983 180.81L85.6166 181.204V186.345ZM44.7869 177.751L51.2285 178.276L51.8537 185.047L46.3106 184.831L44.7869 177.751ZM45.7694 184.826L40.6887 184.637L38.3296 177.204L44.2352 177.703L45.7694 184.826ZM47.787 191.623H52.4789L52.8888 196.002L48.759 196.138L47.787 191.623ZM48.2231 196.154L44.4139 196.28L42.9322 191.623H47.2511L48.2231 196.154ZM80.1524 191.097H73.1329L73.3168 186.403L80.2837 186.666L80.1524 191.097ZM80.8302 186.687L85.6482 186.871V191.076H80.6778L80.8302 186.687ZM72.6285 191.097H66.271L66.4076 186.14L72.8124 186.382L72.6285 191.097ZM59.1307 191.097H52.9413L52.4159 185.609L58.8837 185.856L59.1307 191.097ZM59.4459 185.872L65.8874 186.119L65.7456 191.097H59.6351L59.4459 185.872ZM52.4054 185.078L51.7801 178.339L58.642 178.918L58.8995 185.325L52.4054 185.078ZM59.1727 178.965L66.0713 179.549L65.898 185.594L59.4249 185.347L59.1727 178.965ZM66.5915 179.591L73.0593 180.116L72.8334 185.835L66.4234 185.594L66.5915 179.591ZM72.6075 191.623L72.4604 195.36L66.1554 195.565L66.2657 191.623H72.6075ZM65.6195 195.581L59.84 195.77L59.6771 191.623H65.7298L65.6195 195.581ZM59.3146 195.791L53.4142 195.986L53.0096 191.623H59.1517L59.3146 195.791ZM47.6767 191.097L46.4472 185.378L51.922 185.588L52.4474 191.097H47.6767ZM44.6923 177.215L43.6836 172.484L50.7766 173.204L51.1969 177.746L44.6923 177.215ZM51.3125 173.277L58.4266 173.992L58.6 178.382L51.7066 177.798L51.3125 173.277ZM58.973 174.055L66.2027 174.791L66.0819 179.023L59.1517 178.434L58.973 174.055ZM66.7281 174.844L73.238 175.506L73.0803 179.612L66.6073 179.086L66.7281 174.844ZM73.7423 175.569L80.641 176.268L80.5044 180.253L73.5795 179.669L73.7423 175.569ZM80.4834 180.779L80.2995 186.156L73.3378 185.888L73.5585 180.195L80.4834 180.779ZM85.6166 194.929L80.5097 195.092L80.6305 191.623H85.6166V194.929ZM79.9842 195.113L72.9542 195.339L73.1013 191.623H80.0998L79.9842 195.113ZM79.9842 195.639L79.8739 198.893L72.8281 199.077L72.9542 195.87L79.9842 195.639ZM72.3027 199.087L66.0293 199.25L66.1186 196.096L72.4236 195.891L72.3027 199.087ZM65.5039 199.261L59.9766 199.403L59.8505 196.296L65.5932 196.112L65.5039 199.261ZM59.4512 199.418L53.7347 199.566L53.451 196.506L59.3251 196.317L59.4512 199.418ZM53.2093 199.576L49.5314 199.671L48.8378 196.659L52.9045 196.527L53.2093 199.576ZM42.039 188.895L40.8621 185.168L45.885 185.357L47.1197 191.097H42.7431L42.039 188.895ZM36.6115 171.785L43.1109 172.447L44.1091 177.146L38.1457 176.621L36.6115 171.785ZM85.6166 176.763V180.673L81.014 180.284L81.1507 176.31L85.6166 176.763ZM83.6831 198.798L80.3783 198.882L80.4886 195.623L85.6166 195.455V196.811C85.6169 197.327 85.4163 197.823 85.0574 198.194C84.6985 198.565 84.2094 198.782 83.6936 198.798H83.6831Z" fill="#306CB5"/>
<path d="M18.2138 166.074L28.1583 165.036C29.0732 164.94 29.7375 164.121 29.6419 163.205L29.5912 162.719C29.4957 161.804 28.6766 161.139 27.7617 161.235L17.8172 162.273C16.9023 162.369 16.2381 163.188 16.3336 164.104L16.3843 164.59C16.4798 165.505 17.2989 166.17 18.2138 166.074Z" fill="#EA4846"/>
</g>
<defs>
<clipPath id="clip0_2389_68292">
<rect width="315" height="235" fill="white" transform="translate(0.5)"/>
</clipPath>
</defs>
</svg>
