<svg width="9" height="10" viewBox="0 0 9 10" fill="none" xmlns="http://www.w3.org/2000/svg">
<path d="M1.0918 6.91479C1.00195 6.82495 0.927734 6.74487 0.869141 6.67456C0.810547 6.60034 0.78125 6.53589 0.78125 6.4812C0.78125 6.42261 0.806641 6.37183 0.857422 6.32886C0.912109 6.28198 0.976562 6.24487 1.05078 6.21753C1.125 6.18628 1.20312 6.16479 1.28516 6.15308C1.37109 6.13745 1.44336 6.12964 1.50195 6.12964C1.56445 6.12964 1.61523 6.14526 1.6543 6.17651C1.69727 6.20386 1.74609 6.24487 1.80078 6.29956C2.16797 6.66675 2.5 7.06128 2.79688 7.48315C3.09766 7.90503 3.375 8.323 3.62891 8.73706C4.11719 7.3855 4.68555 6.07495 5.33398 4.80542C5.98242 3.53589 6.71289 2.34644 7.52539 1.23706C7.60352 1.12769 7.72461 1.0437 7.88867 0.985107C8.05664 0.926514 8.24414 0.897217 8.45117 0.897217C8.51758 0.897217 8.57031 0.910889 8.60938 0.938232C8.64844 0.96167 8.66797 0.996826 8.66797 1.0437C8.66797 1.09058 8.66211 1.13159 8.65039 1.16675C8.63867 1.198 8.61133 1.24097 8.56836 1.29565C8.13477 1.86987 7.71289 2.47144 7.30273 3.10034C6.89648 3.72925 6.50781 4.39331 6.13672 5.09253C5.76562 5.78784 5.41406 6.51831 5.08203 7.28394C4.75 8.04956 4.44531 8.85425 4.16797 9.698C4.16016 9.72144 4.13867 9.74292 4.10352 9.76245C4.06836 9.77808 4.02539 9.79175 3.97461 9.80347C3.92383 9.81519 3.86719 9.823 3.80469 9.8269C3.74219 9.83472 3.67969 9.83862 3.61719 9.83862C3.52734 9.83862 3.44531 9.82886 3.37109 9.80933C3.29688 9.7937 3.24219 9.75659 3.20703 9.698C3.01953 9.37769 2.8457 9.09644 2.68555 8.85425C2.52539 8.60815 2.36328 8.37964 2.19922 8.1687C2.03516 7.95776 1.86328 7.75269 1.68359 7.55347C1.50781 7.35425 1.31055 7.14136 1.0918 6.91479Z" fill="#222222"/>
</svg>
