<svg width="16" height="16" viewBox="0 0 16 16" fill="none" xmlns="http://www.w3.org/2000/svg">
<path d="M7.99967 15.1667C4.04634 15.1667 0.833008 11.9534 0.833008 8.00004C0.833008 4.04671 4.04634 0.833374 7.99967 0.833374C11.953 0.833374 15.1663 4.04671 15.1663 8.00004C15.1663 11.9534 11.953 15.1667 7.99967 15.1667ZM7.99967 1.83337C4.59967 1.83337 1.83301 4.60004 1.83301 8.00004C1.83301 11.4 4.59967 14.1667 7.99967 14.1667C11.3997 14.1667 14.1663 11.4 14.1663 8.00004C14.1663 4.60004 11.3997 1.83337 7.99967 1.83337Z" fill="#101010"/>
<path d="M7.05297 10.3866C6.91964 10.3866 6.79297 10.3333 6.69964 10.2399L4.81297 8.35328C4.61964 8.15994 4.61964 7.83994 4.81297 7.64661C5.0063 7.45328 5.3263 7.45328 5.51964 7.64661L7.05297 9.17994L10.4796 5.75328C10.673 5.55994 10.993 5.55994 11.1863 5.75328C11.3796 5.94661 11.3796 6.26661 11.1863 6.45994L7.4063 10.2399C7.31297 10.3333 7.1863 10.3866 7.05297 10.3866Z" fill="#101010"/>
</svg>
